<?xml version="1.0" encoding="utf-8"?>
<!-- Generator: Adobe Illustrator 16.0.0, SVG Export Plug-In . SVG Version: 6.00 Build 0)  -->
<!DOCTYPE svg PUBLIC "-//W3C//DTD SVG 1.1//EN" "http://www.w3.org/Graphics/SVG/1.1/DTD/svg11.dtd">
<svg version="1.1" id="Layer_1" xmlns="http://www.w3.org/2000/svg" xmlns:xlink="http://www.w3.org/1999/xlink" x="0px" y="0px"
	 width="61.507px" height="60.392px" viewBox="19.549 65.173 61.507 60.392" enable-background="new 19.549 65.173 61.507 60.392"
	 xml:space="preserve">
<g id="g8478">
	<g id="g8524">
		<g id="g8526">
			<path id="polygon3_11_" fill="#000100" stroke="#262424" stroke-width="0.25" d="M42.747,124.02h-0.93l9.436-16.393h0.478
				l0.24,0.406L42.747,124.02z"/>
			<path id="polygon5_10_" fill="#000100" stroke="#262424" stroke-width="0.25" d="M51.967,107.223l-0.238,0.405h-0.477
				L41.816,91.26h0.929L51.967,107.223z"/>
			<path id="polygon13_10_" fill="#000100" stroke="#262424" stroke-width="0.25" d="M42.747,91.26h-0.93l7.076-12.27l0.716,0.405
				L42.747,91.26z"/>
			<g id="g15_10_" transform="matrix(0.95,0,0,0.95,5.1188,3.0296)">
				<path id="path17_10_" fill="#000100" d="M19.763,97.009c-1.43,0-2.55-0.382-3.359-1.153c-0.809-0.768-1.214-1.76-1.214-2.975
					c0-0.797,0.189-1.513,0.569-2.153c0.381-0.639,0.91-1.126,1.591-1.461c0.679-0.336,1.453-0.505,2.314-0.505
					c0.874,0,1.656,0.178,2.346,0.529c0.689,0.354,1.211,0.852,1.567,1.5c0.354,0.648,0.531,1.346,0.531,2.095
					c0,0.81-0.196,1.536-0.588,2.175c-0.392,0.638-0.927,1.123-1.604,1.454C21.237,96.845,20.52,97.009,19.763,97.009z
					 M19.778,95.833c1.036,0,1.856-0.279,2.454-0.839c0.597-0.558,0.896-1.26,0.896-2.101c0-0.857-0.301-1.566-0.906-2.122
					c-0.603-0.554-1.459-0.833-2.568-0.833c-0.701,0-1.314,0.118-1.837,0.356c-0.522,0.236-0.927,0.585-1.216,1.042
					c-0.287,0.456-0.432,0.968-0.432,1.537c0,0.807,0.278,1.503,0.832,2.086C17.554,95.541,18.481,95.833,19.778,95.833z"/>
			</g>
			<path id="rect19_11_" fill="#000100" stroke="#262424" stroke-width="0.25" d="M29.095,93.095v-0.811h14.008v0.811H29.095z"/>
			<path id="rect21_10_" fill="#000100" stroke="#262424" stroke-width="0.25" d="M29.095,90.234v-0.81h14.008v0.81H29.095z"/>
			<path id="polygon33_11_" fill="#000100" stroke="#262424" stroke-width="0.25" d="M65.855,107.223v0.813H51.967l-0.238-0.406
				l0.238-0.405L65.855,107.223L65.855,107.223z"/>
			<polyline id="polyline8536" fill="#000100" points="41.541,124.02 43.64,125.564 51.967,108.034 			"/>
			<g id="g8538">
				<path id="path8540" d="M50.105,77.685c-1.726-0.634-2.519-2.111-2.577-3.14c-0.106-1.863,1.492-4.25,3.427-4.526
					c2.104-0.303,4.25,1.462,4.225,3.557c-0.012,1.063-0.229,1.403-0.557,2.021c-0.682,1.288-1.459,1.742-1.78,1.923
					C52.166,77.899,51.215,78.091,50.105,77.685z M53.634,71.93c-2.921-3.476-7.7,3.284-3.242,4.861
					C52.941,77.691,55.137,73.721,53.634,71.93z"/>
				<path id="path8542" d="M44.2,74.295c0.521-0.908,1.042-1.817,1.564-2.727c-0.93-0.707-2.242-1.313-3.319-1.979
					c-0.588,0.72-1.074,1.826-1.622,2.694c-0.271,0.001-0.632-0.322-0.941-0.464c1.271-2.217,2.542-4.432,3.813-6.646
					c0.302,0.174,0.604,0.348,0.908,0.521c-0.587,1.022-1.173,2.044-1.76,3.067c1.137,0.65,2.274,1.304,3.409,1.955
					c0.587-1.021,1.173-2.046,1.758-3.067c0.304,0.174,0.608,0.349,0.91,0.521c-1.239,2.16-2.476,4.317-3.715,6.477
					C44.986,74.962,44.528,74.396,44.2,74.295z"/>
			</g>
			<g id="g8544">
				<path id="path8546" fill="#FFFFFF" d="M67.417,103.999c0.033,2.028,0.067,4.06,0.103,6.087c0.274-0.005,0.555-0.009,0.832-0.014
					c-0.025-1.545-0.054-3.088-0.078-4.631c1.072,1.502,2.123,3.025,3.146,4.576c0.297-0.002,0.591-0.009,0.886-0.014
					c-0.033-2.029-0.068-4.059-0.103-6.087c-0.277,0.004-0.556,0.008-0.832,0.015c0.026,1.524,0.051,3.053,0.073,4.577
					c-1.069-1.483-2.09-3.022-3.145-4.526C68.005,103.988,67.71,103.994,67.417,103.999z"/>
				<path id="path8548" d="M73.859,103.984c0.013,0.814,0.027,1.631,0.041,2.445c0.938,0.104,2.103-0.019,3.125,0
					c0.105-0.729-0.014-1.684,0.009-2.498c0.271,0.021,0.646-0.066,0.834,0.036c0.03,1.995,0.065,3.99,0.101,5.984
					c-0.187,0.11-0.562,0.036-0.83,0.063c-0.019-0.951-0.033-1.906-0.052-2.859c-1.058,0.018-2.114,0.035-3.17,0.053
					c0.015,0.954,0.031,1.908,0.047,2.861c-0.271-0.021-0.646,0.066-0.834-0.036c-0.03-1.96-0.063-3.921-0.098-5.88
					C73.053,103.854,73.594,104.053,73.859,103.984z"/>
				<path id="path8550" d="M68.3,103.982c1.056,1.504,2.074,3.043,3.146,4.526c-0.023-1.524-0.047-3.053-0.074-4.577
					c0.277-0.007,0.555-0.011,0.834-0.015c0.033,2.028,0.066,4.058,0.102,6.087c-0.295,0.005-0.59,0.012-0.887,0.014
					c-1.021-1.551-2.072-3.074-3.146-4.576c0.026,1.543,0.055,3.086,0.078,4.631c-0.275,0.005-0.556,0.009-0.832,0.014
					c-0.033-2.027-0.066-4.059-0.103-6.087C67.71,103.994,68.005,103.988,68.3,103.982z"/>
				<path id="path8552" d="M79.387,111.703c0.555-0.01,1.108-0.02,1.661-0.027c0.002,0.146,0.004,0.291,0.009,0.438
					c-0.767,0.013-1.529,0.023-2.295,0.039c-0.015-0.979,1.274-1.443,1.666-2.168c0.504-0.932-1.072-1.428-1.193-0.256
					c-0.18,0.024-0.248-0.065-0.437-0.031c-0.041-1.454,2.453-1.4,2.181,0.16C80.825,110.73,79.777,110.965,79.387,111.703z"/>
			</g>
		</g>
	</g>
</g>
</svg>
