<?xml version="1.0" encoding="utf-8"?>
<!-- Generator: Adobe Illustrator 16.0.0, SVG Export Plug-In . SVG Version: 6.00 Build 0)  -->
<!DOCTYPE svg PUBLIC "-//W3C//DTD SVG 1.1//EN" "http://www.w3.org/Graphics/SVG/1.1/DTD/svg11.dtd">
<svg version="1.1" id="Layer_1" xmlns="http://www.w3.org/2000/svg" xmlns:xlink="http://www.w3.org/1999/xlink" x="0px" y="0px"
	 width="86.545px" height="163.023px" viewBox="0 0 86.545 163.023" enable-background="new 0 0 86.545 163.023"
	 xml:space="preserve">
<g id="g6684">
	<path id="polygon3" fill="#030303" d="M36.494,64.561h-1.002l10.169-17.667h0.513l0.257,0.437L36.494,64.561z"/>
	<path id="polygon5" fill="#030303" d="M46.431,46.458l-0.257,0.436h-0.513l-10.169-17.64h1.002L46.431,46.458z"/>
	<path id="polygon13" fill="#030303" d="M36.494,29.254h-1.002l7.626-13.224l0.771,0.438L36.494,29.254z"/>
	<path id="rect19" fill="#030303" d="M21.781,31.231v-0.872h15.098v0.872H21.781z"/>
	<path id="rect21" fill="#030303" d="M21.781,28.151v-0.873h15.098v0.873H21.781z"/>
	<path id="polygon33" fill="#030303" d="M61.4,46.458v0.873H46.431l-0.257-0.437l0.257-0.436H61.4z"/>
	<path id="polygon35" fill="#030303" d="M35.492,64.561h1.002l10.193,17.642h-1.025L35.492,64.561z"/>
	<path id="polygon37" fill="#030303" d="M45.662,82.201h1.025L36.494,99.839h-1.002L45.662,82.201z"/>
	<path id="polygon47" fill="#030303" d="M35.492,99.839h1.002l7.035,12.197l-0.771,0.437L35.492,99.839z"/>
	<g id="g6695">
		<path id="polygon49" fill="#030303" d="M44.23,122.471l-0.704-0.5l-8.195,11.379l0.412,0.914L44.23,122.471z"/>
		<path id="polygon63" fill="#030303" d="M35.744,134.263l-0.412-0.914l-14.067-1.407l-0.081,0.882L35.744,134.263z"/>
		<path id="rect71" fill="#030303" d="M39.635,147.717l0.796-0.359l-6.263-13.905l-0.797,0.358L39.635,147.717z"/>
		<path id="rect73" fill="#030303" d="M42.421,146.46l0.796-0.356l-6.263-13.907l-0.795,0.359L42.421,146.46z"/>
	</g>
	<g id="g15_1_" transform="matrix(0.95,0,0,0.95,5.731775,3.1171)">
		<path id="path17_1_" fill="#030303" d="M8.139,32.185c-1.869,0-3.331-0.501-4.388-1.507c-1.056-1.001-1.585-2.299-1.585-3.884
			c0-1.041,0.248-1.977,0.745-2.811c0.497-0.835,1.188-1.472,2.077-1.908c0.889-0.438,1.896-0.657,3.02-0.657
			c1.142,0,2.163,0.23,3.064,0.691c0.901,0.461,1.583,1.114,2.046,1.959c0.463,0.844,0.694,1.755,0.694,2.734
			c0,1.059-0.255,2.006-0.767,2.842c-0.512,0.834-1.21,1.465-2.096,1.897C10.063,31.97,9.125,32.185,8.139,32.185z M8.158,30.65
			c1.355,0,2.423-0.365,3.205-1.096c0.78-0.729,1.17-1.645,1.17-2.745c0-1.122-0.393-2.044-1.181-2.77
			c-0.789-0.724-1.906-1.087-3.355-1.087c-0.916,0-1.715,0.155-2.398,0.464c-0.683,0.31-1.212,0.763-1.59,1.361
			c-0.376,0.596-0.563,1.265-0.563,2.007c0,1.054,0.362,1.962,1.086,2.723C5.255,30.269,6.463,30.65,8.158,30.65z"/>
	</g>
	<g id="g6703">
		<g id="g23_3_" transform="matrix(0.95,0,0,0.95,5.731775,3.1171)">
			<path id="path25_3_" fill="#030303" d="M6.308,140.035V129.88H7.69l5.32,7.971v-7.971h1.292v10.154h-1.382l-5.32-7.969v7.969
				H6.308z"/>
			<path id="path27_3_" fill="#030303" d="M-6.033,140.171v-10.155h1.348v4.174h5.254v-4.174h1.347v10.155H0.569v-4.783h-5.254
				v4.783H-6.033z"/>
		</g>
		<g id="g29_3_" transform="matrix(0.95,0,0,0.95,5.731775,3.1171)">
			<path id="path31_3_" fill="#030303" d="M5.646,144.423v0.642H2.032c-0.005-0.161,0.022-0.317,0.079-0.467
				c0.094-0.245,0.242-0.487,0.445-0.726c0.204-0.238,0.494-0.513,0.876-0.824c0.592-0.488,0.992-0.874,1.203-1.158
				c0.21-0.284,0.316-0.553,0.316-0.806c0-0.265-0.096-0.489-0.286-0.671c-0.191-0.182-0.439-0.272-0.746-0.272
				c-0.324,0-0.583,0.098-0.778,0.292c-0.193,0.193-0.292,0.464-0.295,0.806l-0.688-0.074c0.047-0.514,0.225-0.905,0.534-1.176
				c0.309-0.269,0.723-0.405,1.243-0.405c0.524,0,0.941,0.146,1.246,0.436c0.306,0.29,0.46,0.651,0.46,1.079
				c0,0.22-0.046,0.433-0.135,0.646c-0.09,0.211-0.24,0.432-0.447,0.667c-0.208,0.233-0.553,0.554-1.034,0.961
				c-0.402,0.337-0.661,0.565-0.776,0.687c-0.115,0.121-0.21,0.243-0.285,0.363H5.646L5.646,144.423z"/>
		</g>
	</g>
	<polyline id="polyline6711" fill="#030303" points="36.494,64.561 37.458,66.226 46.431,47.331 	"/>
	<polyline id="polyline6713" fill="#030303" points="36.494,99.839 37.115,100.917 46.687,82.201 	"/>
	<g id="g6715">
		<path id="path6717" fill="#010101" d="M46.527,16.638c-2.295-0.842-3.351-2.809-3.429-4.175c-0.141-2.477,1.984-5.652,4.558-6.021
			c2.799-0.4,5.654,1.943,5.619,4.729c-0.016,1.416-0.303,1.868-0.74,2.69c-0.904,1.712-1.941,2.316-2.367,2.556
			C49.264,16.925,48.001,17.181,46.527,16.638z M51.216,8.986c-3.883-4.623-10.238,4.368-4.311,6.465
			C50.298,16.649,53.215,11.369,51.216,8.986z"/>
		<path id="path6719" fill="#010101" d="M38.669,12.132c0.693-1.209,1.387-2.418,2.081-3.626c-1.238-0.941-2.981-1.746-4.416-2.632
			c-0.782,0.957-1.427,2.427-2.155,3.583c-0.359,0.001-0.839-0.429-1.251-0.619C34.617,5.892,36.307,2.947,37.998,0
			c0.403,0.231,0.805,0.462,1.208,0.693c-0.78,1.36-1.561,2.719-2.341,4.08c1.511,0.866,3.024,1.734,4.534,2.6
			c0.78-1.36,1.56-2.719,2.339-4.079c0.402,0.231,0.808,0.464,1.209,0.694c-1.646,2.872-3.292,5.741-4.94,8.612
			C39.717,13.019,39.109,12.265,38.669,12.132z"/>
	</g>
	<g id="g6721">
		<path id="path6723" fill="#FFFFFF" d="M63.718,40.919c0.059,3.395,0.115,6.793,0.171,10.189c0.461-0.008,0.929-0.015,1.392-0.024
			c-0.041-2.584-0.088-5.167-0.131-7.75c1.795,2.514,3.553,5.067,5.268,7.664c0.497-0.008,0.988-0.017,1.48-0.024
			c-0.056-3.396-0.111-6.793-0.168-10.188c-0.467,0.006-0.931,0.015-1.396,0.022c0.045,2.554,0.085,5.109,0.126,7.663
			c-1.792-2.485-3.499-5.061-5.264-7.577C64.705,40.903,64.21,40.912,63.718,40.919z"/>
		<path id="path6725" fill="#010101" d="M74.502,40.899c0.021,1.364,0.048,2.726,0.069,4.091c1.57,0.176,3.516-0.03,5.228,0
			c0.181-1.224-0.021-2.816,0.015-4.182c0.452,0.035,1.077-0.111,1.396,0.064c0.053,3.339,0.109,6.677,0.167,10.015
			c-0.312,0.187-0.938,0.06-1.392,0.112c-0.026-1.598-0.056-3.194-0.082-4.79c-1.771,0.029-3.539,0.059-5.31,0.088
			c0.026,1.595,0.054,3.192,0.079,4.791c-0.451-0.036-1.079,0.111-1.395-0.064c-0.055-3.281-0.109-6.561-0.164-9.841
			C73.15,40.674,74.056,41.01,74.502,40.899z"/>
		<path id="path6727" fill="#010101" d="M65.197,40.894c1.766,2.516,3.473,5.092,5.265,7.577c-0.041-2.554-0.081-5.109-0.126-7.663
			c0.465-0.007,0.929-0.016,1.395-0.022c0.057,3.395,0.113,6.792,0.168,10.188c-0.492,0.007-0.983,0.016-1.479,0.024
			c-1.714-2.597-3.474-5.15-5.267-7.664c0.043,2.583,0.088,5.166,0.131,7.75c-0.465,0.009-0.932,0.016-1.393,0.024
			c-0.057-3.396-0.113-6.794-0.171-10.189C64.21,40.912,64.705,40.903,65.197,40.894z"/>
		<path id="path6729" fill="#010101" d="M83.751,53.815c0.929-0.016,1.854-0.031,2.781-0.046c0.002,0.242,0.007,0.485,0.013,0.728
			c-1.28,0.022-2.56,0.043-3.843,0.065c-0.021-1.635,2.135-2.416,2.789-3.624c0.844-1.56-1.793-2.39-1.996-0.43
			c-0.299,0.042-0.413-0.112-0.729-0.054c-0.068-2.434,4.105-2.344,3.649,0.27C86.16,52.188,84.408,52.579,83.751,53.815z"/>
	</g>
	<g id="g6731">
		<path id="path6733" fill="#FFFFFF" d="M40.842,149.38c0.056,3.396,0.114,6.793,0.171,10.19c0.461-0.009,0.927-0.015,1.393-0.024
			c-0.043-2.584-0.089-5.168-0.132-7.75c1.795,2.515,3.553,5.066,5.266,7.664c0.499-0.008,0.99-0.017,1.482-0.023
			c-0.055-3.396-0.111-6.793-0.17-10.189c-0.465,0.008-0.929,0.017-1.394,0.023c0.045,2.553,0.084,5.107,0.125,7.663
			c-1.791-2.485-3.497-5.062-5.262-7.578C41.826,149.365,41.334,149.373,40.842,149.38z"/>
		<path id="path6735" fill="#010101" d="M51.625,149.36c0.021,1.364,0.047,2.726,0.068,4.093c1.573,0.176,3.518-0.031,5.229,0
			c0.182-1.224-0.02-2.816,0.016-4.183c0.451,0.035,1.077-0.112,1.396,0.063c0.052,3.34,0.108,6.677,0.167,10.015
			c-0.313,0.187-0.94,0.062-1.393,0.11c-0.026-1.596-0.055-3.192-0.082-4.789c-1.77,0.029-3.539,0.059-5.308,0.088
			c0.024,1.595,0.054,3.191,0.078,4.791c-0.451-0.036-1.079,0.111-1.396-0.064c-0.054-3.279-0.107-6.561-0.162-9.841
			C50.273,149.136,51.177,149.472,51.625,149.36z"/>
		<path id="path6737" fill="#010101" d="M42.32,149.356c1.766,2.517,3.472,5.093,5.262,7.578c-0.041-2.556-0.08-5.11-0.125-7.663
			c0.465-0.007,0.929-0.016,1.394-0.023c0.059,3.396,0.115,6.793,0.17,10.189c-0.492,0.007-0.984,0.016-1.482,0.023
			c-1.713-2.596-3.471-5.149-5.266-7.664c0.043,2.582,0.089,5.166,0.132,7.75c-0.466,0.01-0.932,0.016-1.393,0.024
			c-0.057-3.397-0.115-6.794-0.171-10.19C41.334,149.373,41.826,149.365,42.32,149.356z"/>
		<path id="path6739" fill="#010101" d="M60.873,162.277c0.929-0.016,1.855-0.031,2.783-0.046c0.002,0.243,0.006,0.485,0.013,0.728
			c-1.28,0.021-2.56,0.043-3.843,0.064c-0.023-1.635,2.134-2.416,2.787-3.624c0.846-1.56-1.793-2.39-1.996-0.43
			c-0.299,0.042-0.414-0.111-0.728-0.054c-0.067-2.436,4.106-2.346,3.649,0.27C63.281,160.65,61.529,161.041,60.873,162.277z"/>
	</g>
	<g id="g6741">
		<path id="path43_2_" fill="#030303" stroke="#262524" stroke-width="0.25" stroke-miterlimit="3" d="M54.539,121.717v-9.446h1.254
			v3.881h4.886v-3.881h1.254v9.446h-1.254v-4.448h-4.886v4.448H54.539z"/>
		<path id="path45_1_" fill="#030303" stroke="#262524" stroke-width="0.25" stroke-miterlimit="3" d="M45.642,121.717v-9.446h1.285
			l4.948,7.413v-7.413h1.202v9.446h-1.285l-4.949-7.414v7.414H45.642z"/>
	</g>
</g>
<g>
</g>
<g>
</g>
<g>
</g>
<g>
</g>
<g>
</g>
<g>
</g>
<g>
</g>
</svg>
