<?xml version="1.0" encoding="utf-8"?>
<!-- Generator: Adobe Illustrator 16.0.0, SVG Export Plug-In . SVG Version: 6.00 Build 0)  -->
<!DOCTYPE svg PUBLIC "-//W3C//DTD SVG 1.1//EN" "http://www.w3.org/Graphics/SVG/1.1/DTD/svg11.dtd">
<svg version="1.1" id="Layer_1" xmlns="http://www.w3.org/2000/svg" xmlns:xlink="http://www.w3.org/1999/xlink" x="0px" y="0px"
	 width="100px" height="200px" viewBox="0 0 100 200" enable-background="new 0 0 100 200" xml:space="preserve">
<g id="g6798">
	<path id="polygon3_2_" fill="#030303" stroke="#262524" stroke-width="0.25" d="M39.487,113.018h-1.074l10.909-18.951h0.551
		l0.276,0.469L39.487,113.018z"/>
	<path id="polygon5_2_" fill="#030303" stroke="#262524" stroke-width="0.25" d="M50.149,93.599l-0.276,0.468h-0.551L38.413,75.142
		h1.074L50.149,93.599z"/>
	<path id="polygon13_2_" fill="#030303" stroke="#262524" stroke-width="0.25" d="M39.487,75.142h-1.074l8.182-14.186l0.827,0.468
		L39.487,75.142z"/>
	<g id="g15_2_" transform="matrix(0.95,0,0,0.95,5.1188,3.0296)">
		<path id="path17_2_" fill="#030303" d="M13.233,80.689c-1.654,0-2.949-0.444-3.886-1.333c-0.934-0.888-1.402-2.035-1.402-3.44
			c0-0.92,0.219-1.751,0.659-2.489c0.439-0.739,1.053-1.302,1.839-1.689c0.784-0.388,1.679-0.582,2.675-0.582
			c1.009,0,1.914,0.205,2.712,0.613c0.798,0.407,1.401,0.985,1.812,1.734c0.409,0.748,0.615,1.555,0.615,2.421
			c0,0.938-0.227,1.776-0.678,2.516c-0.453,0.739-1.072,1.297-1.855,1.68C14.938,80.499,14.108,80.689,13.233,80.689z M13.251,79.33
			c1.2,0,2.146-0.322,2.837-0.969c0.69-0.645,1.036-1.457,1.036-2.43c0-0.993-0.348-1.811-1.047-2.453
			c-0.698-0.641-1.687-0.962-2.97-0.962c-0.81,0-1.518,0.136-2.124,0.411c-0.604,0.274-1.073,0.676-1.406,1.205
			c-0.332,0.527-0.5,1.12-0.5,1.777c0,0.933,0.321,1.738,0.961,2.411C10.68,78.993,11.751,79.33,13.251,79.33z"/>
	</g>
	<path id="rect19_2_" fill="#030303" stroke="#262524" stroke-width="0.25" d="M23.704,77.264v-0.937H39.9v0.937H23.704z"/>
	<path id="rect21_2_" fill="#030303" stroke="#262524" stroke-width="0.25" d="M23.704,73.958v-0.936H39.9v0.936H23.704z"/>
	<path id="polygon33_2_" fill="#030303" stroke="#262524" stroke-width="0.25" d="M66.208,93.599v0.937H50.149l-0.276-0.469
		l0.276-0.468H66.208z"/>
	<path id="polygon35_2_" fill="#030303" stroke="#262524" stroke-width="0.25" d="M38.413,113.018h1.074l10.662,18.459l-0.553,0.937
		L38.413,113.018z"/>
	<g id="g37_1_" transform="matrix(0.95,0,0,0.95,5.1188,3.0296)">
		<path id="path39_1_" fill="#030303" d="M36.228,160.401c-1.654,0-2.949-0.445-3.885-1.332c-0.935-0.889-1.404-2.035-1.404-3.442
			c0-0.919,0.22-1.75,0.66-2.488c0.439-0.738,1.054-1.301,1.839-1.69c0.785-0.388,1.678-0.581,2.675-0.581
			c1.009,0,1.914,0.205,2.712,0.612c0.799,0.409,1.402,0.985,1.811,1.733c0.41,0.748,0.616,1.555,0.616,2.422
			c0,0.939-0.226,1.776-0.679,2.515c-0.452,0.739-1.07,1.298-1.854,1.679C37.93,160.209,37.102,160.401,36.228,160.401z
			 M36.244,159.042c1.201,0,2.146-0.323,2.836-0.969c0.693-0.647,1.037-1.457,1.037-2.431c0-0.993-0.35-1.809-1.046-2.452
			c-0.698-0.64-1.687-0.962-2.969-0.962c-0.812,0-1.52,0.137-2.126,0.411c-0.603,0.274-1.073,0.675-1.406,1.205
			c-0.332,0.528-0.5,1.119-0.5,1.777c0,0.933,0.322,1.737,0.961,2.411C33.674,158.704,34.744,159.042,36.244,159.042z"/>
	</g>
	<path id="polygon41" fill="#030303" stroke="#262524" stroke-width="0.25" d="M48.522,130.07l0.8,0.469l-8.292,14.406l-0.826-0.469
		L48.522,130.07z"/>
	<path id="polygon43" fill="#030303" stroke="#262524" stroke-width="0.25" d="M51.36,131.725l0.826,0.467l-8.318,14.379
		l-0.826-0.467L51.36,131.725z"/>
	<path id="path47" fill="#030303" d="M72.342,136.484c-1.57,0-2.802-0.422-3.689-1.266c-0.89-0.844-1.333-1.934-1.333-3.269
		c0-0.875,0.209-1.662,0.627-2.364c0.417-0.701,0.999-1.236,1.746-1.605c0.747-0.367,1.595-0.551,2.541-0.551
		c0.96,0,1.818,0.193,2.575,0.581c0.759,0.388,1.332,0.938,1.724,1.647c0.389,0.711,0.583,1.477,0.583,2.299
		c0,0.893-0.216,1.689-0.646,2.391c-0.432,0.701-1.019,1.233-1.764,1.596C73.961,136.305,73.173,136.484,72.342,136.484z
		 M72.358,135.193c1.141,0,2.039-0.308,2.694-0.922c0.657-0.613,0.984-1.383,0.984-2.309c0-0.943-0.331-1.72-0.993-2.329
		c-0.663-0.61-1.604-0.914-2.821-0.914c-0.771,0-1.442,0.13-2.018,0.39c-0.575,0.262-1.021,0.643-1.338,1.145
		c-0.316,0.501-0.475,1.064-0.475,1.689c0,0.887,0.306,1.649,0.913,2.289C69.917,134.873,70.934,135.193,72.358,135.193z"/>
	<path id="polygon51_1_" fill="#030303" stroke="#262524" stroke-width="0.25" d="M66.07,131.477v0.937H49.597l0.553-0.937H66.07z"
		/>
	<polyline id="polyline6815" fill="#030303" points="39.487,113.018 40.521,114.807 50.149,94.536 	"/>
	<g id="g6817">
		<path id="path6819" fill="#010101" d="M47.997,59.446c-1.995-0.732-2.912-2.442-2.98-3.629c-0.122-2.153,1.727-4.914,3.964-5.234
			c2.433-0.349,4.916,1.69,4.886,4.112c-0.015,1.23-0.265,1.623-0.645,2.337c-0.787,1.49-1.688,2.014-2.059,2.223
			C50.378,59.695,49.28,59.917,47.997,59.446z M52.075,52.793c-3.376-4.019-8.901,3.797-3.747,5.62
			C51.276,59.455,53.813,54.864,52.075,52.793z"/>
		<path id="path6821" fill="#010101" d="M41.167,55.528c0.603-1.051,1.206-2.102,1.809-3.153c-1.074-0.818-2.591-1.517-3.838-2.288
			c-0.68,0.832-1.241,2.111-1.874,3.115c-0.313,0.001-0.729-0.373-1.088-0.537c1.469-2.562,2.938-5.122,4.407-7.684
			c0.351,0.201,0.7,0.401,1.051,0.602c-0.679,1.183-1.356,2.364-2.035,3.547c1.314,0.752,2.629,1.507,3.942,2.26
			c0.678-1.182,1.354-2.365,2.033-3.547c0.35,0.201,0.702,0.404,1.052,0.603c-1.432,2.497-2.863,4.993-4.296,7.488
			C42.078,56.299,41.549,55.644,41.167,55.528z"/>
	</g>
	<g id="g6823">
		<path id="path6825" fill="#FFFFFF" d="M67.765,89.23c0.051,2.952,0.101,5.906,0.148,8.858c0.4-0.007,0.807-0.013,1.21-0.021
			c-0.036-2.246-0.076-4.492-0.113-6.737c1.561,2.187,3.089,4.406,4.578,6.663c0.434-0.007,0.859-0.014,1.288-0.021
			c-0.048-2.952-0.097-5.905-0.146-8.857c-0.405,0.006-0.81,0.013-1.214,0.02c0.039,2.22,0.073,4.441,0.109,6.662
			c-1.558-2.161-3.042-4.4-4.576-6.588C68.621,89.216,68.191,89.224,67.765,89.23z"/>
		<path id="path6827" fill="#010101" d="M77.139,89.212c0.021,1.186,0.042,2.371,0.062,3.557c1.366,0.154,3.057-0.025,4.545,0
			c0.157-1.063-0.02-2.448,0.013-3.635c0.394,0.03,0.938-0.097,1.214,0.055c0.046,2.903,0.096,5.805,0.146,8.707
			c-0.271,0.162-0.816,0.053-1.209,0.097c-0.023-1.389-0.049-2.777-0.072-4.165c-1.538,0.026-3.077,0.051-4.615,0.077
			c0.022,1.387,0.047,2.775,0.069,4.165c-0.393-0.031-0.938,0.097-1.213-0.056c-0.047-2.852-0.095-5.704-0.144-8.555
			C75.964,89.018,76.751,89.309,77.139,89.212z"/>
		<path id="path6829" fill="#010101" d="M69.05,89.208c1.534,2.188,3.02,4.427,4.576,6.588c-0.036-2.221-0.07-4.442-0.109-6.662
			c0.404-0.007,0.809-0.014,1.214-0.02c0.05,2.952,0.099,5.905,0.146,8.857c-0.429,0.007-0.855,0.014-1.288,0.021
			c-1.489-2.257-3.019-4.477-4.578-6.663c0.037,2.245,0.077,4.491,0.113,6.737c-0.403,0.008-0.811,0.014-1.21,0.021
			c-0.049-2.953-0.099-5.906-0.148-8.858C68.191,89.224,68.621,89.216,69.05,89.208z"/>
		<path id="path6831" fill="#010101" d="M85.18,100.442c0.809-0.014,1.612-0.027,2.419-0.041c0.002,0.211,0.005,0.422,0.012,0.633
			c-1.112,0.019-2.227,0.038-3.341,0.056c-0.02-1.422,1.855-2.1,2.425-3.151c0.732-1.355-1.561-2.077-1.735-0.374
			c-0.261,0.038-0.36-0.096-0.633-0.047c-0.061-2.116,3.567-2.038,3.172,0.234C87.273,99.027,85.75,99.367,85.18,100.442z"/>
	</g>
</g>
</svg>
