<?xml version="1.0" encoding="utf-8"?>
<!-- Generator: Adobe Illustrator 16.0.0, SVG Export Plug-In . SVG Version: 6.00 Build 0)  -->
<!DOCTYPE svg PUBLIC "-//W3C//DTD SVG 1.1//EN" "http://www.w3.org/Graphics/SVG/1.1/DTD/svg11.dtd">
<svg version="1.1" id="Layer_1" xmlns="http://www.w3.org/2000/svg" xmlns:xlink="http://www.w3.org/1999/xlink" x="0px" y="0px"
	 width="69.698px" height="110.256px" viewBox="14.861 44.86 69.698 110.256" enable-background="new 14.861 44.86 69.698 110.256"
	 xml:space="preserve">
<g id="g8093">
	<path id="polygon3_5_" fill="#000100" stroke="#262424" stroke-width="0.25" d="M39.804,108.136h-0.999l10.146-17.625h0.512
		l0.257,0.438L39.804,108.136z"/>
	<path id="polygon5_5_" fill="#000100" stroke="#262424" stroke-width="0.25" d="M49.72,90.075l-0.257,0.436h-0.512L38.805,72.91
		h0.999L49.72,90.075z"/>
	<path id="polygon13_5_" fill="#000100" stroke="#262424" stroke-width="0.25" d="M39.804,72.91h-0.999l7.609-13.192l0.77,0.436
		L39.804,72.91z"/>
	<g id="g15_5_" transform="matrix(0.95,0,0,0.95,5.1188,3.0296)">
		<path id="path17_5_" fill="#000100" d="M15.173,78.006c-1.538,0-2.743-0.412-3.613-1.241c-0.87-0.826-1.305-1.893-1.305-3.199
			c0-0.855,0.204-1.626,0.613-2.313c0.409-0.688,0.979-1.212,1.711-1.571c0.73-0.361,1.561-0.542,2.488-0.542
			c0.94,0,1.78,0.19,2.522,0.569c0.742,0.379,1.303,0.916,1.685,1.611c0.381,0.697,0.572,1.447,0.572,2.253
			c0,0.872-0.211,1.651-0.632,2.34c-0.421,0.687-0.997,1.206-1.725,1.561C16.757,77.83,15.986,78.006,15.173,78.006z M15.19,76.743
			c1.114,0,1.996-0.3,2.638-0.903c0.641-0.6,0.964-1.354,0.964-2.26c0-0.923-0.324-1.683-0.974-2.281
			c-0.649-0.595-1.569-0.894-2.762-0.894c-0.753,0-1.412,0.126-1.975,0.382c-0.562,0.255-0.998,0.629-1.308,1.12
			c-0.309,0.491-0.465,1.042-0.465,1.653c0,0.869,0.298,1.616,0.894,2.241C12.798,76.428,13.795,76.743,15.19,76.743z"/>
	</g>
	<path id="rect19_5_" fill="#000100" stroke="#262424" stroke-width="0.25" d="M25.125,74.884v-0.871h15.063v0.871H25.125z"/>
	<path id="rect21_5_" fill="#000100" stroke="#262424" stroke-width="0.25" d="M25.125,71.81v-0.871h15.063v0.871H25.125z"/>
	<path id="polygon33_5_" fill="#000100" stroke="#262424" stroke-width="0.25" d="M64.654,90.075v0.871H49.72l-0.257-0.437
		l0.257-0.436L64.654,90.075L64.654,90.075z"/>
	<path id="polygon35_6_" fill="#000100" stroke="#262424" stroke-width="0.25" d="M38.805,108.136h0.999L49.72,125.3l-0.513,0.871
		L38.805,108.136z"/>
	<polyline id="polyline8104" fill="#000100" points="39.804,108.136 40.765,109.798 49.72,90.946 	"/>
	<g id="g8106">
		<path id="path8108" d="M47.718,58.313c-1.855-0.681-2.708-2.271-2.772-3.375c-0.113-2.002,1.605-4.57,3.686-4.868
			c2.263-0.324,4.572,1.572,4.544,3.825c-0.013,1.144-0.244,1.509-0.599,2.174c-0.731,1.385-1.57,1.873-1.915,2.067
			C49.932,58.545,48.911,58.751,47.718,58.313z M51.512,52.126c-3.141-3.738-8.279,3.532-3.486,5.227
			C50.768,58.322,53.126,54.052,51.512,52.126z"/>
		<path id="path8110" d="M41.366,54.67c0.561-0.977,1.122-1.955,1.682-2.933c-1-0.761-2.41-1.41-3.569-2.128
			c-0.632,0.774-1.154,1.963-1.743,2.897c-0.291,0.001-0.679-0.347-1.012-0.5c1.366-2.383,2.732-4.764,4.099-7.146
			c0.326,0.187,0.651,0.374,0.977,0.56c-0.631,1.1-1.262,2.199-1.893,3.299c1.223,0.7,2.445,1.401,3.667,2.102
			c0.63-1.1,1.261-2.199,1.891-3.299c0.325,0.187,0.653,0.375,0.978,0.561c-1.332,2.322-2.663,4.643-3.995,6.963
			C42.213,55.387,41.721,54.778,41.366,54.67z"/>
	</g>
	<g id="g8112">
		<path id="path8114" fill="#FFFFFF" d="M66.102,86.013c0.047,2.746,0.094,5.492,0.14,8.238c0.372-0.008,0.75-0.014,1.125-0.02
			c-0.034-2.091-0.071-4.179-0.104-6.267c1.449,2.033,2.872,4.096,4.258,6.195c0.4-0.006,0.799-0.012,1.196-0.021
			c-0.044-2.743-0.09-5.489-0.136-8.235c-0.377,0.004-0.752,0.012-1.128,0.018c0.034,2.064,0.067,4.131,0.103,6.195
			c-1.449-2.008-2.828-4.092-4.257-6.127C66.898,85.999,66.499,86.007,66.102,86.013z"/>
		<path id="path8116" d="M74.818,85.995c0.02,1.104,0.039,2.205,0.058,3.309c1.271,0.144,2.843-0.022,4.228,0
			c0.146-0.987-0.018-2.276,0.013-3.381c0.364,0.029,0.87-0.09,1.129,0.051c0.043,2.701,0.088,5.4,0.135,8.099
			c-0.251,0.149-0.759,0.049-1.125,0.09c-0.021-1.291-0.045-2.582-0.065-3.871c-1.432,0.023-2.862,0.047-4.293,0.07
			c0.021,1.291,0.043,2.58,0.063,3.873c-0.364-0.027-0.873,0.09-1.128-0.052c-0.043-2.651-0.088-5.305-0.134-7.957
			C73.727,85.815,74.459,86.087,74.818,85.995z"/>
		<path id="path8118" d="M67.297,85.991c1.428,2.035,2.807,4.119,4.256,6.127c-0.033-2.064-0.064-4.131-0.102-6.195
			c0.376-0.006,0.751-0.014,1.128-0.018c0.046,2.746,0.092,5.492,0.136,8.235c-0.398,0.009-0.796,0.015-1.197,0.021
			c-1.386-2.101-2.808-4.162-4.258-6.195c0.034,2.088,0.072,4.176,0.105,6.267c-0.375,0.006-0.754,0.012-1.125,0.02
			c-0.045-2.746-0.092-5.492-0.139-8.238C66.499,86.007,66.898,85.999,67.297,85.991z"/>
		<path id="path8120" d="M82.298,96.44c0.751-0.015,1.5-0.025,2.25-0.039c0.002,0.194,0.004,0.393,0.011,0.59
			c-1.035,0.018-2.07,0.035-3.105,0.051c-0.02-1.322,1.727-1.951,2.254-2.93c0.684-1.261-1.451-1.933-1.614-0.349
			c-0.241,0.035-0.335-0.09-0.588-0.043c-0.055-1.969,3.319-1.896,2.95,0.218C84.245,95.124,82.828,95.44,82.298,96.44z"/>
	</g>
	<polyline id="polyline8122" fill="#030505" points="49.72,125.177 64.654,125.177 64.654,125.857 49.207,125.857 	"/>
	<g id="XMLID_7_">
		<polygon id="polygon8125" fill="#030505" points="49.74,126.846 49.21,127.535 49.45,126.484 49.72,126.846 		"/>
		<polygon id="polygon8127" fill="#030505" points="64.65,126.846 64.65,127.535 49.21,127.535 49.74,126.846 		"/>
		<polygon id="polygon8129" fill="#030505" points="50.25,126.176 49.74,126.846 49.72,126.846 49.45,126.484 49.72,125.296 		"/>
		<polygon id="polygon8131" fill="#030505" points="38.31,143.105 49.21,126.176 49.45,126.484 49.21,127.535 38.8,143.977 		"/>
	</g>
	<path id="path8133" d="M70.555,130.457c-1.418,0.163-2.688-0.344-3.371-1.04c-1.543-1.577-1.521-5.453,0.61-6.806
		c1.37-0.866,3.59-0.901,4.965,0.429c2.324,2.254,1.159,7.199-2.083,7.417C70.637,130.459,70.596,130.452,70.555,130.457z
		 M72.271,128.494c1.177-1.631,0.451-4.666-1.104-5.331c-1.242-0.529-2.826-0.03-3.494,1.043c-0.702,1.128-0.582,3.021-0.062,3.981
		c0.47,0.864,1.525,1.471,2.82,1.289C71.369,129.343,71.906,129.002,72.271,128.494z"/>
	<g id="g8135">
		<path id="path8137" fill="#FFFFFF" d="M34.181,144.085c0.046,2.746,0.093,5.492,0.138,8.238c0.373-0.009,0.75-0.015,1.125-0.021
			c-0.034-2.09-0.071-4.178-0.105-6.266c1.45,2.032,2.873,4.096,4.257,6.194c0.402-0.006,0.799-0.013,1.198-0.021
			c-0.044-2.744-0.09-5.489-0.136-8.235c-0.377,0.004-0.752,0.012-1.128,0.019c0.036,2.063,0.068,4.131,0.102,6.194
			c-1.449-2.008-2.829-4.092-4.256-6.127C34.978,144.07,34.578,144.079,34.181,144.085z"/>
		<path id="path8139" d="M42.898,144.066c0.019,1.104,0.039,2.205,0.057,3.31c1.271,0.144,2.843-0.022,4.227,0
			c0.146-0.987-0.017-2.276,0.012-3.381c0.365,0.028,0.871-0.09,1.129,0.051c0.043,2.701,0.088,5.399,0.135,8.099
			c-0.251,0.149-0.759,0.049-1.125,0.09c-0.022-1.291-0.045-2.582-0.067-3.87c-1.43,0.022-2.862,0.047-4.292,0.069
			c0.021,1.291,0.043,2.58,0.064,3.873c-0.365-0.026-0.873,0.09-1.128-0.052c-0.043-2.651-0.088-5.305-0.133-7.957
			C41.806,143.889,42.538,144.159,42.898,144.066z"/>
		<path id="path8141" d="M35.376,144.063c1.427,2.035,2.807,4.119,4.256,6.129c-0.034-2.064-0.065-4.133-0.102-6.195
			c0.376-0.006,0.751-0.014,1.128-0.02c0.046,2.746,0.092,5.492,0.136,8.236c-0.399,0.008-0.796,0.014-1.198,0.021
			c-1.385-2.102-2.807-4.162-4.257-6.195c0.034,2.088,0.072,4.176,0.105,6.266c-0.375,0.006-0.753,0.014-1.125,0.021
			c-0.045-2.746-0.092-5.492-0.138-8.238C34.578,144.079,34.978,144.07,35.376,144.063z"/>
		<path id="path8143" d="M50.377,154.514c0.751-0.015,1.5-0.024,2.25-0.039c0.002,0.194,0.004,0.394,0.01,0.59
			c-1.033,0.019-2.07,0.035-3.106,0.052c-0.018-1.322,1.726-1.951,2.254-2.931c0.682-1.261-1.451-1.933-1.614-0.349
			c-0.242,0.035-0.335-0.09-0.588-0.043c-0.055-1.969,3.319-1.896,2.95,0.217C52.324,153.195,50.907,153.514,50.377,154.514z"/>
	</g>
</g>
</svg>
