<?xml version="1.0" encoding="utf-8"?>
<!-- Generator: Adobe Illustrator 16.0.0, SVG Export Plug-In . SVG Version: 6.00 Build 0)  -->
<!DOCTYPE svg PUBLIC "-//W3C//DTD SVG 1.1//EN" "http://www.w3.org/Graphics/SVG/1.1/DTD/svg11.dtd">
<svg version="1.1" id="Layer_1" xmlns="http://www.w3.org/2000/svg" xmlns:xlink="http://www.w3.org/1999/xlink" x="0px" y="0px"
	 width="60.452px" height="80.422px" viewBox="20.912 55.984 60.452 80.422" enable-background="new 20.912 55.984 60.452 80.422"
	 xml:space="preserve">
<g id="g8391">
	<g id="g8393">
		<path id="polygon3_8_" fill="#000100" stroke="#262424" stroke-width="0.25" d="M42.546,110.866H41.68l8.801-15.287h0.442
			l0.224,0.379L42.546,110.866z"/>
		<path id="polygon5_8_" fill="#000100" stroke="#262424" stroke-width="0.25" d="M51.146,95.201l-0.226,0.378h-0.443l-8.8-15.266
			h0.866L51.146,95.201z"/>
		<path id="polygon13_8_" fill="#000100" stroke="#262424" stroke-width="0.25" d="M42.546,80.313H41.68l6.6-11.443l0.668,0.378
			L42.546,80.313z"/>
		<g id="g15_8_" transform="matrix(0.95,0,0,0.95,5.1188,3.0296)">
			<path id="path17_8_" fill="#000100" d="M20.889,85.208c-1.333,0-2.38-0.358-3.132-1.076c-0.756-0.715-1.133-1.642-1.133-2.774
				c0-0.742,0.177-1.411,0.53-2.008c0.356-0.595,0.849-1.05,1.483-1.362c0.633-0.313,1.355-0.47,2.158-0.47
				c0.815,0,1.544,0.165,2.19,0.494c0.641,0.329,1.13,0.795,1.461,1.398c0.33,0.603,0.495,1.255,0.495,1.953
				c0,0.757-0.184,1.433-0.549,2.03c-0.365,0.595-0.865,1.045-1.496,1.354C22.264,85.055,21.595,85.208,20.889,85.208z
				 M20.903,84.112c0.966,0,1.732-0.259,2.289-0.782c0.556-0.52,0.836-1.175,0.836-1.959c0-0.801-0.282-1.461-0.846-1.979
				c-0.561-0.517-1.36-0.776-2.394-0.776c-0.654,0-1.224,0.11-1.715,0.332c-0.486,0.221-0.865,0.545-1.134,0.971
				c-0.267,0.426-0.403,0.904-0.403,1.434c0,0.752,0.259,1.401,0.776,1.944C18.83,83.84,19.693,84.112,20.903,84.112z"/>
		</g>
		<path id="rect19_8_" fill="#000100" stroke="#262424" stroke-width="0.25" d="M29.814,82.025v-0.756h13.063v0.756H29.814z"/>
		<path id="rect21_8_" fill="#000100" stroke="#262424" stroke-width="0.25" d="M29.814,79.357v-0.754h13.063v0.754H29.814z"/>
		<path id="polygon33_8_" fill="#000100" stroke="#262424" stroke-width="0.25" d="M64.1,95.201v0.757H51.146l-0.225-0.379
			l0.225-0.378H64.1z"/>
		<path id="polygon35_8_" fill="#000100" stroke="#262424" stroke-width="0.25" d="M41.68,110.866h0.866l8.603,14.889l-0.445,0.755
			L41.68,110.866z"/>
		<polyline id="polyline8404" fill="#000100" points="42.546,110.866 43.379,112.309 51.146,95.958 		"/>
		<g id="g8406">
			<path id="path8408" d="M49.41,67.652c-1.609-0.591-2.351-1.97-2.404-2.928c-0.099-1.737,1.393-3.964,3.197-4.223
				c1.962-0.281,3.965,1.363,3.939,3.317c-0.013,0.993-0.213,1.31-0.52,1.886c-0.637,1.201-1.361,1.624-1.661,1.793
				C51.33,67.854,50.445,68.032,49.41,67.652z M52.7,62.286c-2.726-3.241-7.183,3.063-3.023,4.533
				C52.057,67.659,54.102,63.956,52.7,62.286z"/>
			<path id="path8410" d="M43.901,64.492c0.484-0.848,0.972-1.695,1.458-2.544c-0.867-0.659-2.091-1.223-3.097-1.846
				c-0.548,0.672-1.001,1.703-1.512,2.513c-0.253,0.001-0.59-0.301-0.878-0.433c1.186-2.067,2.37-4.132,3.556-6.198
				c0.282,0.161,0.564,0.323,0.849,0.485c-0.547,0.954-1.096,1.907-1.643,2.861c1.062,0.606,2.121,1.216,3.181,1.823
				c0.547-0.954,1.094-1.908,1.64-2.861c0.283,0.162,0.566,0.325,0.849,0.486c-1.154,2.014-2.309,4.027-3.465,6.04
				C44.636,65.114,44.209,64.586,43.901,64.492z"/>
		</g>
		<g id="g8412">
			<path id="path8414" fill="#FFFFFF" d="M65.355,91.678c0.039,2.381,0.078,4.765,0.117,7.146c0.324-0.006,0.65-0.011,0.978-0.019
				c-0.028-1.812-0.062-3.624-0.091-5.435c1.259,1.765,2.49,3.555,3.69,5.375c0.351-0.006,0.694-0.011,1.04-0.019
				c-0.038-2.38-0.078-4.762-0.117-7.145c-0.326,0.005-0.652,0.011-0.979,0.016c0.032,1.792,0.06,3.582,0.089,5.374
				c-1.256-1.741-2.453-3.548-3.689-5.313C66.046,91.666,65.7,91.672,65.355,91.678z"/>
			<path id="path8416" d="M72.917,91.663c0.015,0.957,0.033,1.912,0.049,2.869c1.103,0.124,2.466-0.021,3.666,0
				c0.127-0.857-0.016-1.976,0.011-2.934c0.316,0.025,0.756-0.077,0.979,0.045c0.037,2.344,0.076,4.685,0.117,7.023
				c-0.219,0.13-0.659,0.043-0.977,0.078c-0.021-1.12-0.039-2.24-0.059-3.359c-1.242,0.021-2.482,0.042-3.725,0.063
				c0.02,1.119,0.037,2.237,0.057,3.358c-0.316-0.024-0.758,0.077-0.979-0.045c-0.039-2.3-0.076-4.601-0.113-6.9
				C71.969,91.507,72.604,91.741,72.917,91.663z"/>
			<path id="path8418" d="M66.393,91.66c1.237,1.766,2.437,3.571,3.69,5.313c-0.028-1.792-0.058-3.582-0.089-5.374
				c0.326-0.005,0.652-0.011,0.979-0.016c0.041,2.383,0.08,4.765,0.118,7.145c-0.346,0.008-0.688,0.013-1.04,0.019
				c-1.201-1.82-2.434-3.61-3.691-5.375c0.029,1.811,0.063,3.623,0.092,5.435c-0.325,0.007-0.651,0.013-0.977,0.019
				c-0.039-2.382-0.08-4.766-0.119-7.146C65.7,91.672,66.046,91.666,66.393,91.66z"/>
			<path id="path8420" d="M79.402,100.723c0.649-0.012,1.301-0.021,1.951-0.033c0.002,0.172,0.004,0.342,0.01,0.513
				c-0.897,0.015-1.797,0.03-2.694,0.045c-0.017-1.146,1.497-1.694,1.955-2.541c0.592-1.094-1.258-1.677-1.399-0.303
				c-0.211,0.03-0.291-0.077-0.511-0.037c-0.049-1.707,2.878-1.645,2.56,0.188C81.092,99.581,79.861,99.854,79.402,100.723z"/>
		</g>
		<g id="g8422">
			<path id="path8424" fill="#262424" d="M48.205,133.462l1.085-0.095c0.051,0.435,0.171,0.792,0.358,1.07
				c0.187,0.276,0.479,0.504,0.875,0.676c0.395,0.172,0.84,0.258,1.334,0.258c0.438,0,0.824-0.064,1.16-0.195
				c0.338-0.131,0.588-0.31,0.75-0.535c0.164-0.229,0.246-0.477,0.246-0.744c0-0.272-0.078-0.513-0.236-0.715
				c-0.157-0.203-0.418-0.375-0.782-0.514c-0.233-0.091-0.749-0.232-1.547-0.424c-0.8-0.192-1.358-0.373-1.68-0.543
				c-0.415-0.217-0.724-0.487-0.928-0.811c-0.203-0.32-0.305-0.684-0.305-1.082c0-0.438,0.124-0.85,0.373-1.229
				s0.612-0.671,1.091-0.868s1.01-0.297,1.595-0.297c0.646,0,1.213,0.104,1.705,0.313c0.492,0.207,0.87,0.514,1.137,0.916
				c0.266,0.402,0.406,0.859,0.428,1.369l-1.104,0.083c-0.06-0.55-0.261-0.965-0.603-1.245c-0.342-0.279-0.848-0.421-1.516-0.421
				c-0.695,0-1.203,0.128-1.521,0.382c-0.318,0.256-0.479,0.563-0.479,0.924c0,0.313,0.112,0.567,0.339,0.771
				c0.222,0.201,0.8,0.408,1.733,0.619c0.937,0.212,1.576,0.396,1.925,0.555c0.506,0.233,0.879,0.528,1.12,0.888
				c0.24,0.356,0.361,0.771,0.361,1.234c0,0.463-0.134,0.898-0.397,1.309s-0.646,0.729-1.142,0.955
				c-0.496,0.228-1.054,0.342-1.675,0.342c-0.786,0-1.445-0.115-1.979-0.346c-0.53-0.229-0.947-0.572-1.251-1.033
				C48.38,134.564,48.221,134.043,48.205,133.462z"/>
			<path id="path8426" fill="#262424" d="M56.73,136.255v-8.69h1.149v3.567h4.519v-3.567h1.149v8.69h-1.149v-4.097H57.88v4.097
				H56.73z"/>
		</g>
	</g>
</g>
</svg>
