<?xml version="1.0" encoding="utf-8"?>
<!-- Generator: Adobe Illustrator 16.0.0, SVG Export Plug-In . SVG Version: 6.00 Build 0)  -->
<!DOCTYPE svg PUBLIC "-//W3C//DTD SVG 1.1//EN" "http://www.w3.org/Graphics/SVG/1.1/DTD/svg11.dtd">
<svg version="1.1" id="Layer_1" xmlns="http://www.w3.org/2000/svg" xmlns:xlink="http://www.w3.org/1999/xlink" x="0px" y="0px"
	 width="75.589px" height="128.002px" viewBox="0 0 75.589 128.002" enable-background="new 0 0 75.589 128.002"
	 xml:space="preserve">
<g id="g6833">
	<path id="polygon3_3_" fill="#030303" d="M26.76,66.874h-1.071l10.883-18.909h0.55l0.273,0.467L26.76,66.874z"/>
	<path id="polygon5_3_" fill="#030303" d="M37.395,47.498l-0.274,0.467h-0.55L25.688,29.084h1.071L37.395,47.498z"/>
	<path id="polygon13_3_" fill="#030303" d="M26.76,29.084h-1.071l8.163-14.152l0.822,0.467L26.76,29.084z"/>
	<g id="g15_3_" transform="matrix(0.95,0,0,0.95,6.389275,3.0296)">
		<path id="path17_3_" fill="#030303" d="M-1.448,32.196c-1.652,0-2.944-0.443-3.878-1.33c-0.93-0.887-1.399-2.031-1.399-3.433
			c0-0.918,0.22-1.746,0.66-2.481c0.436-0.738,1.051-1.301,1.832-1.687c0.786-0.385,1.677-0.58,2.67-0.58
			c1.008,0,1.912,0.204,2.708,0.611c0.795,0.407,1.397,0.983,1.808,1.73c0.408,0.746,0.611,1.552,0.611,2.415
			c0,0.936-0.223,1.773-0.673,2.509c-0.455,0.739-1.072,1.297-1.855,1.677C0.251,32.007-0.576,32.196-1.448,32.196z M-1.433,30.839
			c1.2,0,2.143-0.321,2.831-0.965c0.69-0.645,1.033-1.455,1.033-2.426c0-0.99-0.35-1.806-1.042-2.447
			c-0.697-0.639-1.685-0.959-2.963-0.959c-0.811,0-1.517,0.137-2.121,0.41c-0.602,0.274-1.072,0.674-1.404,1.202
			c-0.33,0.527-0.499,1.117-0.499,1.774c0,0.931,0.322,1.733,0.961,2.405C-3.996,30.505-2.928,30.839-1.433,30.839z"/>
	</g>
	<path id="rect19_3_" fill="#030303" d="M11.013,31.202v-0.936h16.159v0.936H11.013z"/>
	<path id="rect21_3_" fill="#030303" d="M11.013,27.903V26.97h16.159v0.933H11.013z"/>
	<path id="polygon33_3_" fill="#030303" d="M53.443,47.498v0.934H37.395l-0.274-0.467l0.274-0.467H53.443L53.443,47.498z"/>
	<path id="polygon35_3_" fill="#030303" d="M25.687,66.874h1.071l10.91,18.881h-1.1L25.687,66.874z"/>
	<path id="polygon37_1_" fill="#030303" d="M36.57,85.754h1.1l-10.91,18.882h-1.071L36.57,85.754z"/>
	<path id="path43_1_" fill="#030303" d="M37.719,128.002c-1.567,0-2.797-0.422-3.684-1.265c-0.886-0.843-1.33-1.929-1.33-3.261
		c0-0.873,0.207-1.658,0.625-2.359c0.415-0.699,0.997-1.233,1.742-1.601c0.745-0.368,1.59-0.552,2.534-0.552
		c0.959,0,1.815,0.193,2.571,0.58c0.754,0.389,1.329,0.935,1.717,1.645c0.389,0.71,0.584,1.475,0.584,2.294
		c0,0.89-0.215,1.685-0.646,2.386c-0.43,0.699-1.018,1.229-1.759,1.592C39.332,127.821,38.545,128.002,37.719,128.002z
		 M37.733,126.713c1.137,0,2.031-0.307,2.688-0.918c0.655-0.612,0.982-1.381,0.982-2.305c0-0.941-0.332-1.716-0.992-2.324
		c-0.661-0.608-1.599-0.912-2.814-0.912c-0.771,0-1.44,0.13-2.014,0.39c-0.571,0.259-1.017,0.64-1.332,1.142
		c-0.313,0.5-0.474,1.061-0.474,1.684c0,0.885,0.304,1.646,0.911,2.285C35.296,126.394,36.312,126.713,37.733,126.713z"/>
	<path id="polygon45" fill="#030303" d="M25.687,104.636h1.071l7.914,13.713l-0.823,0.467L25.687,104.636z"/>
	<g id="g47" transform="matrix(0.95,0,0,0.95,6.389275,3.0296)">
		<path id="path49" fill="#030303" d="M-1.448,111.723c-1.652,0-2.944-0.444-3.878-1.331c-0.93-0.885-1.399-2.03-1.399-3.43
			c0-0.921,0.22-1.748,0.66-2.485c0.436-0.737,1.051-1.298,1.832-1.685c0.786-0.387,1.677-0.58,2.67-0.58
			c1.008,0,1.912,0.202,2.708,0.61c0.795,0.407,1.397,0.984,1.808,1.73c0.408,0.746,0.611,1.552,0.611,2.416
			c0,0.936-0.223,1.772-0.673,2.51c-0.455,0.737-1.072,1.295-1.855,1.676C0.251,111.533-0.576,111.723-1.448,111.723z
			 M-1.433,110.367c1.2,0,2.143-0.324,2.831-0.967c0.69-0.646,1.033-1.454,1.033-2.426c0-0.99-0.35-1.806-1.042-2.447
			c-0.697-0.639-1.685-0.959-2.963-0.959c-0.811,0-1.517,0.136-2.121,0.408c-0.602,0.273-1.072,0.676-1.404,1.203
			c-0.33,0.526-0.499,1.116-0.499,1.774c0,0.929,0.322,1.733,0.961,2.403C-3.997,110.03-2.928,110.367-1.433,110.367z"/>
	</g>
	<path id="rect51" fill="#030303" d="M11.013,106.75v-0.936h16.159v0.936H11.013z"/>
	<path id="rect53" fill="#030303" d="M11.013,103.48v-0.935h16.159v0.935H11.013z"/>
	<polyline id="polyline6851" fill="#030303" points="26.76,66.874 27.598,68.323 37.395,48.432 	"/>
	<g id="g6853">
		<path id="path6855" fill="#010101" d="M36.494,15.007c-2.07-0.76-3.021-2.533-3.092-3.766c-0.127-2.234,1.79-5.098,4.11-5.43
			c2.523-0.361,5.101,1.753,5.068,4.266c-0.015,1.277-0.273,1.684-0.668,2.425c-0.816,1.545-1.752,2.089-2.136,2.306
			C38.964,15.266,37.825,15.496,36.494,15.007z M40.725,8.106c-3.502-4.169-9.233,3.939-3.887,5.831
			C39.896,15.017,42.527,10.254,40.725,8.106z"/>
		<path id="path6857" fill="#010101" d="M29.408,10.943c0.625-1.09,1.251-2.181,1.877-3.271c-1.116-0.849-2.688-1.574-3.982-2.374
			c-0.705,0.863-1.287,2.19-1.942,3.231c-0.324,0.001-0.759-0.387-1.129-0.557C25.754,5.314,27.279,2.658,28.803,0
			c0.363,0.208,0.728,0.417,1.09,0.625c-0.703,1.227-1.407,2.453-2.11,3.68c1.362,0.78,2.728,1.563,4.09,2.344
			c0.703-1.226,1.406-2.453,2.109-3.679c0.362,0.208,0.729,0.418,1.091,0.625c-1.484,2.59-2.97,5.179-4.456,7.768
			C30.354,11.742,29.805,11.063,29.408,10.943z"/>
	</g>
	<g id="g6859">
		<path id="path6861" fill="#FFFFFF" d="M55.001,42.907c0.052,3.063,0.104,6.126,0.154,9.19c0.416-0.008,0.837-0.014,1.256-0.022
			c-0.038-2.33-0.079-4.66-0.118-6.989c1.618,2.268,3.205,4.57,4.75,6.912c0.448-0.007,0.893-0.014,1.336-0.021
			c-0.05-3.063-0.101-6.126-0.152-9.189c-0.42,0.006-0.839,0.013-1.258,0.02c0.04,2.303,0.076,4.607,0.113,6.912
			c-1.616-2.242-3.155-4.564-4.747-6.834C55.89,42.892,55.444,42.9,55.001,42.907z"/>
		<path id="path6863" fill="#010101" d="M64.727,42.888c0.021,1.23,0.044,2.459,0.063,3.69c1.417,0.16,3.171-0.026,4.715,0
			c0.163-1.103-0.019-2.54,0.015-3.771c0.406,0.032,0.972-0.101,1.259,0.058c0.048,3.012,0.099,6.022,0.149,9.032
			c-0.279,0.168-0.848,0.055-1.255,0.101c-0.023-1.44-0.05-2.881-0.074-4.32c-1.596,0.027-3.191,0.053-4.788,0.08
			c0.023,1.439,0.05,2.879,0.071,4.32c-0.407-0.032-0.974,0.101-1.258-0.058c-0.049-2.958-0.099-5.917-0.147-8.875
			C63.508,42.686,64.324,42.988,64.727,42.888z"/>
		<path id="path6865" fill="#010101" d="M56.335,42.884c1.592,2.27,3.131,4.593,4.747,6.834c-0.037-2.304-0.073-4.608-0.113-6.912
			c0.419-0.007,0.838-0.014,1.258-0.02c0.053,3.063,0.104,6.126,0.152,9.189c-0.443,0.007-0.888,0.015-1.336,0.021
			c-1.545-2.342-3.132-4.644-4.75-6.912c0.039,2.329,0.08,4.659,0.118,6.989c-0.419,0.009-0.84,0.015-1.256,0.022
			c-0.052-3.063-0.104-6.127-0.154-9.19C55.444,42.9,55.89,42.892,56.335,42.884z"/>
		<path id="path6867" fill="#010101" d="M73.068,54.538c0.838-0.014,1.673-0.028,2.51-0.042c0.002,0.219,0.005,0.438,0.011,0.657
			c-1.153,0.02-2.309,0.039-3.465,0.059c-0.021-1.475,1.925-2.179,2.515-3.269c0.762-1.406-1.617-2.155-1.801-0.388
			c-0.271,0.039-0.373-0.1-0.656-0.049c-0.062-2.195,3.702-2.114,3.291,0.243C75.24,53.07,73.66,53.423,73.068,54.538z"/>
	</g>
</g>
<g>
</g>
<g>
</g>
<g>
</g>
<g>
</g>
<g>
</g>
<g>
</g>
</svg>
