<?xml version="1.0" encoding="utf-8"?>
<!-- Generator: Adobe Illustrator 16.0.0, SVG Export Plug-In . SVG Version: 6.00 Build 0)  -->
<!DOCTYPE svg PUBLIC "-//W3C//DTD SVG 1.1//EN" "http://www.w3.org/Graphics/SVG/1.1/DTD/svg11.dtd">
<svg version="1.1" id="Layer_1" xmlns="http://www.w3.org/2000/svg" xmlns:xlink="http://www.w3.org/1999/xlink" x="0px" y="0px"
	 width="69.696px" height="127.863px" viewBox="15.614 35.86 69.696 127.863" enable-background="new 15.614 35.86 69.696 127.863"
	 xml:space="preserve">
<g id="g8145">
	<path id="polygon3_7_" fill="#000100" stroke="#262424" stroke-width="0.25" d="M40.558,99.136h-0.999l10.146-17.625h0.512
		l0.257,0.438L40.558,99.136z"/>
	<path id="polygon5_7_" fill="#000100" stroke="#262424" stroke-width="0.25" d="M50.474,81.075l-0.257,0.436h-0.512L39.559,63.909
		h0.999L50.474,81.075z"/>
	<path id="polygon13_7_" fill="#000100" stroke="#262424" stroke-width="0.25" d="M40.558,63.909h-0.999l7.609-13.191l0.77,0.436
		L40.558,63.909z"/>
	<g id="g15_7_" transform="matrix(0.95,0,0,0.95,5.1188,3.0296)">
		<path id="path17_7_" fill="#000100" d="M15.966,68.533c-1.538,0-2.743-0.412-3.613-1.242c-0.87-0.826-1.305-1.894-1.305-3.199
			c0-0.855,0.204-1.626,0.613-2.313c0.409-0.687,0.979-1.211,1.711-1.571c0.73-0.362,1.561-0.542,2.488-0.542
			c0.94,0,1.78,0.19,2.522,0.569c0.742,0.379,1.303,0.916,1.685,1.611c0.381,0.697,0.572,1.447,0.572,2.253
			c0,0.872-0.211,1.651-0.632,2.34c-0.421,0.687-0.997,1.207-1.725,1.563C17.551,68.356,16.779,68.533,15.966,68.533z
			 M15.982,67.268c1.114,0,1.996-0.3,2.638-0.903c0.641-0.6,0.964-1.353,0.964-2.259c0-0.923-0.324-1.684-0.974-2.282
			c-0.649-0.594-1.569-0.893-2.762-0.893c-0.753,0-1.412,0.126-1.975,0.381c-0.562,0.255-0.998,0.629-1.308,1.12
			c-0.309,0.491-0.465,1.042-0.465,1.653c0,0.87,0.298,1.616,0.894,2.241C13.591,66.954,14.587,67.268,15.982,67.268z"/>
	</g>
	<path id="rect19_7_" fill="#000100" stroke="#262424" stroke-width="0.25" d="M25.879,65.884v-0.871h15.063v0.871H25.879z"/>
	<path id="rect21_7_" fill="#000100" stroke="#262424" stroke-width="0.25" d="M25.879,62.81v-0.871h15.063v0.871H25.879z"/>
	<path id="polygon33_7_" fill="#000100" stroke="#262424" stroke-width="0.25" d="M65.408,81.075v0.871H50.473l-0.257-0.437
		l0.257-0.436L65.408,81.075L65.408,81.075z"/>
	<path id="polygon35_7_" fill="#000100" stroke="#262424" stroke-width="0.25" d="M39.559,99.136h0.999l9.916,17.164l-0.513,0.871
		L39.559,99.136z"/>
	<polyline id="polyline8156" fill="#000100" points="40.558,99.136 41.519,100.798 50.474,81.946 	"/>
	<g id="g8158">
		<path id="path8160" d="M48.472,49.313c-1.855-0.682-2.708-2.271-2.772-3.375c-0.113-2.003,1.605-4.57,3.686-4.869
			c2.262-0.324,4.572,1.572,4.543,3.825c-0.013,1.144-0.244,1.509-0.599,2.174c-0.731,1.386-1.569,1.872-1.915,2.067
			C50.686,49.546,49.665,49.751,48.472,49.313z M52.266,43.126c-3.141-3.737-8.279,3.532-3.485,5.228
			C51.521,49.321,53.88,45.052,52.266,43.126z"/>
		<path id="path8162" d="M42.12,45.67c0.561-0.978,1.122-1.954,1.682-2.933c-1-0.761-2.41-1.41-3.569-2.128
			c-0.632,0.774-1.154,1.964-1.743,2.897c-0.291,0-0.679-0.348-1.012-0.5c1.366-2.383,2.732-4.764,4.099-7.146
			c0.326,0.187,0.651,0.374,0.977,0.56c-0.631,1.1-1.262,2.199-1.893,3.299c1.223,0.7,2.445,1.401,3.667,2.102
			c0.63-1.1,1.261-2.199,1.891-3.299c0.325,0.187,0.653,0.375,0.978,0.561c-1.332,2.322-2.663,4.643-3.995,6.963
			C42.967,46.387,42.475,45.778,42.12,45.67z"/>
	</g>
	<g id="g8164">
		<path id="path8166" fill="#FFFFFF" d="M66.855,77.013c0.047,2.746,0.093,5.492,0.139,8.238c0.372-0.008,0.75-0.014,1.125-0.02
			c-0.033-2.091-0.071-4.179-0.105-6.267c1.45,2.033,2.873,4.096,4.26,6.195c0.4-0.006,0.799-0.012,1.195-0.021
			c-0.044-2.743-0.09-5.489-0.136-8.235c-0.377,0.004-0.752,0.012-1.128,0.018c0.036,2.064,0.068,4.131,0.102,6.195
			c-1.447-2.008-2.828-4.092-4.256-6.127C67.652,76.999,67.252,77.007,66.855,77.013z"/>
		<path id="path8168" d="M75.573,76.995c0.019,1.104,0.038,2.205,0.057,3.309c1.271,0.144,2.843-0.022,4.228,0
			c0.146-0.987-0.018-2.276,0.013-3.381c0.364,0.029,0.871-0.09,1.129,0.051c0.043,2.701,0.089,5.4,0.135,8.099
			c-0.251,0.149-0.759,0.049-1.124,0.09c-0.021-1.291-0.046-2.582-0.066-3.871c-1.432,0.023-2.861,0.047-4.291,0.07
			c0.021,1.291,0.043,2.58,0.063,3.873c-0.365-0.027-0.873,0.09-1.129-0.052c-0.043-2.651-0.088-5.305-0.133-7.957
			C74.48,76.815,75.213,77.087,75.573,76.995z"/>
		<path id="path8170" d="M68.051,76.991c1.428,2.035,2.809,4.119,4.256,6.127c-0.031-2.064-0.063-4.131-0.102-6.195
			c0.376-0.006,0.751-0.014,1.128-0.018c0.046,2.746,0.092,5.492,0.136,8.235c-0.396,0.009-0.795,0.015-1.195,0.021
			c-1.387-2.101-2.81-4.162-4.26-6.195c0.034,2.088,0.072,4.176,0.105,6.267c-0.375,0.006-0.753,0.012-1.125,0.02
			c-0.046-2.746-0.092-5.492-0.139-8.238C67.252,77.007,67.652,76.999,68.051,76.991z"/>
		<path id="path8172" d="M83.052,87.44c0.751-0.015,1.499-0.025,2.249-0.039c0.002,0.194,0.006,0.393,0.01,0.59
			c-1.031,0.018-2.067,0.035-3.104,0.051c-0.02-1.322,1.727-1.951,2.254-2.93c0.684-1.261-1.449-1.933-1.613-0.349
			c-0.24,0.035-0.336-0.09-0.589-0.043c-0.056-1.969,3.319-1.896,2.95,0.218C84.999,86.124,83.582,86.44,83.052,87.44z"/>
	</g>
	<g id="XMLID_8_">
		<polygon id="polygon8175" fill="#030505" points="50.494,117.846 49.964,118.535 50.204,117.484 50.474,117.846 		"/>
		<polygon id="polygon8177" fill="#030505" points="51.004,116.902 50.494,117.846 49.96,117.171 50.474,115.959 		"/>
		<polygon id="polygon8179" fill="#030505" points="39.064,134.105 49.964,117.176 50.204,117.484 49.964,118.535 39.554,134.977 		
			"/>
	</g>
	<path id="path8181" d="M20.226,139.191c-1.418,0.162-2.689-0.346-3.371-1.041c-1.542-1.576-1.521-5.452,0.611-6.806
		c1.37-0.866,3.59-0.901,4.965,0.429c2.324,2.254,1.159,7.199-2.082,7.418C20.308,139.193,20.267,139.188,20.226,139.191z
		 M21.942,137.229c1.177-1.631,0.451-4.664-1.105-5.33c-1.242-0.528-2.826-0.029-3.493,1.043c-0.702,1.129-0.582,3.021-0.061,3.981
		c0.469,0.865,1.525,1.47,2.819,1.289C21.04,138.077,21.577,137.736,21.942,137.229z"/>
	<g id="g8183">
		<path id="path8185" fill="#FFFFFF" d="M46.921,152.693c0.046,2.746,0.093,5.49,0.138,8.236c0.373-0.008,0.75-0.014,1.125-0.02
			c-0.034-2.09-0.071-4.178-0.105-6.268c1.45,2.033,2.873,4.098,4.257,6.195c0.402-0.006,0.799-0.012,1.198-0.02
			c-0.044-2.744-0.091-5.49-0.136-8.236c-0.377,0.004-0.752,0.012-1.129,0.018c0.037,2.064,0.067,4.133,0.103,6.195
			c-1.449-2.008-2.829-4.092-4.256-6.127C47.718,152.68,47.318,152.688,46.921,152.693z"/>
		<path id="path8187" d="M55.639,152.676c0.021,1.104,0.039,2.205,0.057,3.311c1.271,0.143,2.845-0.023,4.229,0
			c0.146-0.988-0.017-2.277,0.014-3.383c0.363,0.029,0.871-0.09,1.129,0.053c0.043,2.699,0.088,5.398,0.135,8.098
			c-0.251,0.15-0.76,0.049-1.125,0.09c-0.021-1.291-0.045-2.582-0.067-3.871c-1.43,0.023-2.862,0.047-4.292,0.07
			c0.021,1.291,0.043,2.58,0.064,3.873c-0.365-0.027-0.873,0.09-1.129-0.051c-0.043-2.652-0.088-5.307-0.133-7.957
			C54.547,152.496,55.279,152.768,55.639,152.676z"/>
		<path id="path8189" d="M48.117,152.672c1.427,2.035,2.807,4.119,4.256,6.127c-0.034-2.063-0.064-4.131-0.102-6.195
			c0.375-0.006,0.75-0.014,1.127-0.018c0.047,2.746,0.093,5.492,0.137,8.236c-0.398,0.008-0.797,0.014-1.198,0.02
			c-1.385-2.1-2.807-4.162-4.257-6.195c0.034,2.09,0.072,4.178,0.105,6.268c-0.375,0.006-0.753,0.012-1.125,0.02
			c-0.045-2.746-0.092-5.49-0.138-8.236C47.318,152.688,47.718,152.68,48.117,152.672z"/>
		<path id="path8191" d="M63.117,163.121c0.752-0.014,1.5-0.025,2.25-0.039c0.002,0.195,0.005,0.393,0.01,0.59
			c-1.034,0.02-2.07,0.035-3.104,0.051c-0.021-1.32,1.725-1.949,2.254-2.93c0.683-1.26-1.451-1.932-1.614-0.348
			c-0.242,0.035-0.335-0.09-0.589-0.043c-0.057-1.971,3.318-1.896,2.949,0.217C65.064,161.805,63.648,162.121,63.117,163.121z"/>
	</g>
	<polyline id="polyline8193" fill="#262424" points="39.064,134.105 38.417,134.977 49.96,152.584 50.229,151.501 	"/>
	<polyline id="polyline8195" fill="#030505" points="39.551,134.445 24.616,134.445 24.616,133.766 40.064,133.766 	"/>
	<polyline id="polyline8197" fill="#030505" points="39.551,135.5 24.616,135.5 24.616,136.182 40.064,136.182 	"/>
</g>
</svg>
