<?xml version="1.0" encoding="utf-8"?>
<!-- Generator: Adobe Illustrator 16.0.0, SVG Export Plug-In . SVG Version: 6.00 Build 0)  -->
<!DOCTYPE svg PUBLIC "-//W3C//DTD SVG 1.1//EN" "http://www.w3.org/Graphics/SVG/1.1/DTD/svg11.dtd">
<svg version="1.1" id="Layer_1" xmlns="http://www.w3.org/2000/svg" xmlns:xlink="http://www.w3.org/1999/xlink" x="0px" y="0px"
	 width="60.036px" height="44.948px" viewBox="20.231 77.937 60.036 44.948" enable-background="new 20.231 77.937 60.036 44.948"
	 xml:space="preserve">
<g id="g8263">
	<path id="polygon5_9_" fill="#000100" stroke="#262424" stroke-width="0.25" d="M50.259,116.883l-0.222,0.375h-0.44l-8.738-15.16
		h0.859L50.259,116.883z"/>
	<path id="polygon13_9_" fill="#000100" stroke="#262424" stroke-width="0.25" d="M41.718,102.098h-0.859l6.554-11.364l0.663,0.375
		L41.718,102.098z"/>
	<g id="g15_9_" transform="matrix(0.95,0,0,0.95,5.1188,3.0296)">
		<path id="path17_9_" fill="#000100" d="M20.146,108.112c-1.325,0-2.362-0.356-3.112-1.069c-0.749-0.711-1.126-1.63-1.126-2.755
			c0-0.736,0.176-1.402,0.527-1.993c0.353-0.592,0.843-1.043,1.474-1.353c0.628-0.311,1.345-0.466,2.141-0.466
			c0.809,0,1.535,0.162,2.173,0.489c0.638,0.327,1.123,0.789,1.451,1.39c0.327,0.598,0.491,1.247,0.491,1.94
			c0,0.749-0.182,1.423-0.545,2.017c-0.363,0.59-0.858,1.038-1.485,1.345C21.511,107.96,20.847,108.112,20.146,108.112z
			 M20.16,107.023c0.959,0,1.72-0.257,2.273-0.775c0.553-0.518,0.831-1.168,0.831-1.947c0-0.796-0.28-1.45-0.84-1.964
			c-0.558-0.513-1.351-0.77-2.379-0.77c-0.65,0-1.216,0.109-1.701,0.329c-0.483,0.219-0.859,0.542-1.127,0.964
			c-0.265,0.421-0.401,0.897-0.401,1.424c0,0.747,0.257,1.392,0.771,1.934C18.101,106.753,18.959,107.023,20.16,107.023z"/>
	</g>
	<path id="rect19_9_" fill="#000100" stroke="#262424" stroke-width="0.25" d="M29.075,103.797v-0.75h12.974v0.75H29.075z"/>
	<path id="rect21_9_" fill="#000100" stroke="#262424" stroke-width="0.25" d="M29.075,101.148v-0.75h12.974v0.75H29.075z"/>
	<path id="polygon33_9_" fill="#000100" stroke="#262424" stroke-width="0.25" d="M63.122,116.883v0.75H50.259l-0.222-0.375
		l0.222-0.375H63.122z"/>
	<g id="g8272">
		<path id="path8274" d="M48.535,89.524c-1.6-0.587-2.334-1.956-2.388-2.908c-0.1-1.725,1.382-3.936,3.175-4.193
			c1.948-0.279,3.938,1.354,3.913,3.294c-0.012,0.986-0.211,1.3-0.516,1.872c-0.631,1.193-1.353,1.613-1.648,1.78
			C50.441,89.724,49.563,89.901,48.535,89.524z M51.802,84.195c-2.705-3.219-7.131,3.042-3.002,4.502
			C51.162,89.532,53.193,85.854,51.802,84.195z"/>
		<path id="path8276" d="M43.064,86.386c0.48-0.842,0.965-1.684,1.447-2.526c-0.86-0.655-2.076-1.214-3.074-1.833
			c-0.545,0.667-0.994,1.691-1.502,2.495c-0.251,0.001-0.585-0.299-0.87-0.43c1.177-2.053,2.354-4.104,3.53-6.155
			c0.279,0.161,0.561,0.321,0.841,0.482c-0.543,0.948-1.087,1.894-1.63,2.842c1.054,0.604,2.106,1.207,3.157,1.81
			c0.544-0.947,1.086-1.894,1.629-2.841c0.28,0.161,0.563,0.324,0.843,0.483c-1.146,2-2.293,3.999-3.44,5.998
			C43.793,87.003,43.369,86.479,43.064,86.386z"/>
	</g>
	<g id="g8278">
		<path id="path8280" fill="#FFFFFF" d="M64.369,113.383c0.04,2.365,0.08,4.73,0.119,7.096c0.32-0.006,0.646-0.01,0.969-0.018
			c-0.027-1.799-0.063-3.598-0.091-5.396c1.25,1.752,2.475,3.528,3.668,5.338c0.347-0.006,0.688-0.01,1.032-0.019
			c-0.039-2.362-0.078-4.729-0.117-7.096c-0.325,0.006-0.647,0.012-0.975,0.019c0.032,1.776,0.061,3.558,0.09,5.336
			c-1.248-1.729-2.438-3.522-3.666-5.276C65.055,113.371,64.712,113.377,64.369,113.383z"/>
		<path id="path8282" d="M71.879,113.367c0.016,0.951,0.033,1.898,0.049,2.852c1.094,0.121,2.447-0.021,3.643,0
			c0.125-0.854-0.018-1.961,0.01-2.912c0.313,0.025,0.75-0.078,0.973,0.043c0.037,2.326,0.075,4.652,0.115,6.977
			c-0.216,0.129-0.654,0.043-0.969,0.078c-0.02-1.113-0.038-2.227-0.059-3.336c-1.231,0.02-2.466,0.041-3.697,0.063
			c0.02,1.111,0.039,2.223,0.057,3.336c-0.313-0.023-0.752,0.076-0.973-0.045c-0.037-2.283-0.074-4.568-0.112-6.854
			C70.937,113.213,71.568,113.447,71.879,113.367z"/>
		<path id="path8284" d="M65.398,113.365c1.229,1.754,2.418,3.547,3.666,5.275c-0.029-1.777-0.058-3.559-0.09-5.336
			c0.325-0.006,0.647-0.012,0.975-0.018c0.039,2.367,0.078,4.73,0.117,7.096c-0.346,0.008-0.688,0.014-1.032,0.02
			c-1.193-1.811-2.418-3.586-3.668-5.338c0.03,1.799,0.063,3.598,0.091,5.396c-0.323,0.008-0.646,0.013-0.969,0.019
			c-0.039-2.364-0.079-4.729-0.119-7.097C64.712,113.377,65.055,113.371,65.398,113.365z"/>
		<path id="path8286" d="M78.32,122.365c0.646-0.014,1.291-0.023,1.938-0.033c0.001,0.168,0.004,0.338,0.01,0.508
			c-0.893,0.014-1.783,0.029-2.677,0.045c-0.016-1.139,1.486-1.684,1.941-2.521c0.588-1.086-1.249-1.666-1.392-0.303
			c-0.209,0.031-0.287-0.076-0.507-0.035c-0.048-1.695,2.858-1.635,2.54,0.188C79.997,121.23,78.775,121.504,78.32,122.365z"/>
	</g>
</g>
</svg>
