<?xml version="1.0" encoding="utf-8"?>
<!-- Generator: Adobe Illustrator 16.0.0, SVG Export Plug-In . SVG Version: 6.00 Build 0)  -->
<!DOCTYPE svg PUBLIC "-//W3C//DTD SVG 1.1//EN" "http://www.w3.org/Graphics/SVG/1.1/DTD/svg11.dtd">
<svg version="1.1" id="Layer_1" xmlns="http://www.w3.org/2000/svg" xmlns:xlink="http://www.w3.org/1999/xlink" x="0px" y="0px"
	 width="76.267px" height="121.47px" viewBox="62.743 88.98 76.267 121.47" enable-background="new 62.743 88.98 76.267 121.47"
	 xml:space="preserve">
<g id="g6618">
	<path id="path6620" opacity="0.6" fill="#FFFFFF" enable-background="new    " d="M124.484,189.79c0.091,0.39,0.131,1.2,0.641,1.29
		l-0.568,2c-1.33,2.41-2.66,4.818-3.99,7.229c0.33,0.183,0.66,0.371,1,0.551l-1.271,1.609c-0.569,0-1.04,0.48-1.479,0.75
		c-3.711,2.29-7.51,4.641-11.291,6.631c-5.469-4.841-11.188-9.601-16.528-14.471c2.931-6.92,5.67-13.21,8.61-20.311
		c7.31,0.631,14.661,1.341,21.952,1.881C122.505,181.05,123.625,185.66,124.484,189.79z"/>
	<path id="polygon3_1_" fill="#030303" stroke="#262524" stroke-width="0.25" stroke-miterlimit="3" d="M89.621,156.25H88.55
		l10.881-18.906h0.549l0.274,0.467L89.621,156.25z"/>
	<path id="polygon5_1_" fill="#030303" stroke="#262524" stroke-width="0.25" stroke-miterlimit="3" d="M100.255,136.877
		l-0.274,0.467h-0.549l-10.881-18.877h1.071L100.255,136.877z"/>
	<path id="polygon13_1_" fill="#030303" stroke="#262524" stroke-width="0.25" stroke-miterlimit="3" d="M89.621,118.467H88.55
		l8.161-14.179l0.824,0.467L89.621,118.467z"/>
	<g id="g15" transform="matrix(0.95,0,0,0.95,5.731775,3.1171)">
		<path id="path17" fill="#030303" stroke="#262524" stroke-width="0.25" stroke-miterlimit="3" d="M65.418,126.19
			c-1.65,0-2.941-0.443-3.875-1.33c-0.933-0.886-1.4-2.031-1.4-3.431c0-0.919,0.219-1.747,0.658-2.481
			c0.438-0.738,1.05-1.3,1.834-1.686c0.785-0.387,1.674-0.58,2.668-0.58c1.008,0,1.91,0.204,2.706,0.61
			c0.796,0.407,1.398,0.984,1.807,1.73c0.409,0.746,0.614,1.551,0.614,2.415c0,0.935-0.226,1.772-0.678,2.509
			c-0.452,0.737-1.069,1.295-1.851,1.675C67.117,126,66.289,126.19,65.418,126.19z M65.434,124.834c1.197,0,2.14-0.322,2.83-0.967
			c0.689-0.645,1.033-1.454,1.033-2.424c0-0.991-0.347-1.806-1.044-2.447c-0.696-0.639-1.683-0.96-2.962-0.96
			c-0.809,0-1.515,0.137-2.119,0.41c-0.603,0.274-1.071,0.674-1.404,1.202c-0.332,0.526-0.498,1.117-0.498,1.773
			c0,0.931,0.32,1.734,0.959,2.404C62.87,124.497,63.937,124.834,65.434,124.834z"/>
	</g>
	<path id="rect19_1_" fill="#030303" stroke="#262524" stroke-width="0.25" stroke-miterlimit="3" d="M73.876,120.582v-0.934h16.157
		v0.934H73.876z"/>
	<path id="rect21_1_" fill="#030303" stroke="#262524" stroke-width="0.25" stroke-miterlimit="3" d="M73.876,117.285v-0.934h16.157
		v0.934H73.876z"/>
	<path id="polygon33_1_" fill="#030303" stroke="#262524" stroke-width="0.25" stroke-miterlimit="3" d="M116.303,136.877v0.934
		h-16.048l-0.274-0.467l0.274-0.467H116.303z"/>
	<path id="polygon35_1_" fill="#030303" stroke="#262524" stroke-width="0.25" stroke-miterlimit="3" d="M100.283,174.688
		l-0.302,0.44l-0.522,0.028L88.55,156.25h1.071L100.283,174.688z"/>
	<path id="polygon51" fill="#030303" stroke="#262524" stroke-width="0.25" stroke-miterlimit="3" d="M108.061,205.271l-0.633,0.715
		l-8.793-7.942l0.604-0.687L108.061,205.271z"/>
	<g id="g6632">
		<g id="g37" transform="matrix(0.95,0,0,0.95,5.731775,3.1171)">
			<path id="path39" fill="#030303" stroke="#262524" stroke-width="0.25" stroke-miterlimit="3" d="M94.276,197.095v9.942h-1.354
				l-5.209-7.802v7.802h-1.266v-9.942h1.354l5.209,7.802v-7.802H94.276z"/>
		</g>
		<g id="g6636">
			<path id="path43" fill="#030303" stroke="#262524" stroke-width="0.25" stroke-miterlimit="3" d="M130.596,204.266v-9.445h1.254
				v3.882h4.885v-3.882h1.254v9.445h-1.254v-4.447h-4.885v4.447H130.596L130.596,204.266z"/>
			<path id="path45" fill="#030303" stroke="#262524" stroke-width="0.25" stroke-miterlimit="3" d="M121.699,204.266v-9.445h1.285
				l4.949,7.412v-7.412h1.2v9.445h-1.284l-4.949-7.414v7.414H121.699L121.699,204.266z"/>
		</g>
		<g id="XMLID_12_">
			<g id="g6641">
				<polygon id="polygon6643" fill="#030303" points="122.07,176.971 125.561,193.4 124.63,193.59 121.279,177.85 				"/>
				<polygon id="polygon6645" fill="#030303" points="107.37,209.061 120.1,201.73 120.561,202.55 107.26,210.221 				"/>
				<polygon id="polygon6647" fill="#030303" points="107.37,209.061 107.26,210.221 96.44,200.46 97.07,199.779 				"/>
				<polygon id="polygon6649" fill="#030303" points="100.28,174.689 122.07,176.971 121.279,177.85 100.28,175.62 99.98,175.13 
									"/>
				<polygon id="polygon6651" fill="#030303" points="99.46,175.16 99.98,175.13 100.28,175.62 94.02,189.689 93.17,189.311 				"/>
			</g>
			<g id="g6653">
				<polyline id="polyline6655" fill="none" stroke="#262524" stroke-width="0.25" stroke-miterlimit="3" points="100.28,175.62 
					94.02,189.689 93.17,189.311 99.46,175.16 99.98,175.13 				"/>
				<polyline id="polyline6657" fill="none" stroke="#262524" stroke-width="0.25" stroke-miterlimit="3" points="107.26,210.221 
					96.44,200.46 97.07,199.779 107.37,209.061 				"/>
				<polygon id="polygon6659" fill="none" stroke="#262524" stroke-width="0.25" stroke-miterlimit="3" points="107.37,209.061 
					120.1,201.73 120.561,202.55 107.26,210.221 				"/>
				<polyline id="polyline6661" fill="none" stroke="#262524" stroke-width="0.25" stroke-miterlimit="3" points="122.07,176.971 
					125.561,193.4 124.63,193.59 121.279,177.85 				"/>
				<polygon id="polygon6663" fill="none" stroke="#262524" stroke-width="0.25" stroke-miterlimit="3" points="100.28,175.62 
					99.98,175.13 100.28,174.689 122.07,176.971 121.279,177.85 				"/>
			</g>
		</g>
	</g>
	<path id="polygon59" fill="#030303" stroke="#262524" stroke-width="0.25" stroke-miterlimit="3" d="M101.959,179.084l0.083-0.906
		l16.981,1.787l-0.109,0.906L101.959,179.084z"/>
	<polyline id="polyline6666" fill="#030303" stroke="#262524" stroke-width="0.25" stroke-miterlimit="3" points="89.621,156.25 
		90.38,157.563 100.255,137.812 	"/>
	<g id="g6668">
		<path id="path6670" fill="#010101" d="M98.769,103.676c-2.027-0.744-2.959-2.48-3.028-3.688c-0.124-2.188,1.753-4.992,4.026-5.317
			c2.471-0.354,4.995,1.717,4.963,4.178c-0.016,1.25-0.27,1.649-0.654,2.375c-0.799,1.514-1.715,2.045-2.092,2.258
			C101.187,103.929,100.072,104.154,98.769,103.676z M102.912,96.917c-3.429-4.083-9.042,3.858-3.806,5.709
			C102.102,103.685,104.677,99.021,102.912,96.917z"/>
		<path id="path6672" fill="#010101" d="M91.83,99.696c0.612-1.068,1.225-2.136,1.838-3.204c-1.093-0.831-2.632-1.541-3.899-2.325
			c-0.69,0.845-1.261,2.145-1.903,3.164c-0.317,0.001-0.742-0.378-1.105-0.545c1.492-2.603,2.985-5.204,4.478-7.806
			c0.355,0.204,0.711,0.408,1.067,0.611c-0.689,1.202-1.379,2.402-2.068,3.604c1.335,0.764,2.671,1.531,4.005,2.295
			c0.689-1.201,1.377-2.402,2.066-3.603c0.355,0.204,0.713,0.41,1.068,0.612c-1.454,2.536-2.908,5.072-4.363,7.607
			C92.756,100.479,92.218,99.813,91.83,99.696z"/>
	</g>
	<g id="g6674">
		<path id="path6676" fill="#FFFFFF" d="M118.85,131.975c0.051,2.999,0.103,5.999,0.151,8.999c0.408-0.008,0.819-0.013,1.229-0.022
			c-0.037-2.282-0.078-4.563-0.115-6.844c1.584,2.221,3.139,4.476,4.65,6.769c0.438-0.006,0.873-0.014,1.309-0.021
			c-0.049-2.999-0.1-5.999-0.149-8.998c-0.411,0.006-0.821,0.013-1.231,0.02c0.039,2.255,0.074,4.512,0.111,6.768
			c-1.584-2.195-3.091-4.47-4.647-6.692C119.721,131.96,119.284,131.968,118.85,131.975z"/>
		<path id="path6678" fill="#010101" d="M128.374,131.957c0.019,1.205,0.042,2.408,0.062,3.614c1.387,0.156,3.105-0.026,4.617,0
			c0.16-1.08-0.018-2.487,0.014-3.693c0.398,0.031,0.951-0.099,1.232,0.057c0.047,2.949,0.098,5.897,0.146,8.845
			c-0.274,0.164-0.829,0.054-1.229,0.098c-0.022-1.411-0.049-2.821-0.071-4.23c-1.563,0.026-3.127,0.052-4.688,0.079
			c0.022,1.409,0.048,2.819,0.069,4.23c-0.398-0.031-0.953,0.099-1.231-0.057c-0.048-2.897-0.097-5.794-0.146-8.691
			C127.18,131.759,127.979,132.055,128.374,131.957z"/>
		<path id="path6680" fill="#010101" d="M120.156,131.953c1.559,2.223,3.066,4.498,4.648,6.692
			c-0.037-2.256-0.072-4.513-0.111-6.768c0.41-0.007,0.82-0.014,1.23-0.02c0.051,2.999,0.102,5.999,0.149,8.998
			c-0.437,0.007-0.869,0.015-1.31,0.021c-1.513-2.293-3.065-4.547-4.65-6.769c0.037,2.281,0.078,4.563,0.115,6.844
			c-0.41,0.009-0.82,0.014-1.229,0.022c-0.05-3-0.102-6-0.15-8.999C119.284,131.968,119.721,131.96,120.156,131.953z"/>
		<path id="path6682" fill="#010101" d="M136.542,143.365c0.821-0.014,1.638-0.027,2.458-0.041c0.002,0.214,0.005,0.428,0.01,0.643
			c-1.13,0.019-2.261,0.038-3.393,0.058c-0.02-1.445,1.885-2.134,2.462-3.201c0.745-1.377-1.585-2.11-1.765-0.38
			c-0.266,0.038-0.364-0.098-0.644-0.048c-0.062-2.149,3.625-2.07,3.224,0.238C138.669,141.928,137.122,142.273,136.542,143.365z"/>
	</g>
</g>
</svg>
