<?xml version="1.0" encoding="utf-8"?>
<!-- Generator: Adobe Illustrator 16.0.0, SVG Export Plug-In . SVG Version: 6.00 Build 0)  -->
<!DOCTYPE svg PUBLIC "-//W3C//DTD SVG 1.1//EN" "http://www.w3.org/Graphics/SVG/1.1/DTD/svg11.dtd">
<svg version="1.1" id="Layer_1" xmlns="http://www.w3.org/2000/svg" xmlns:xlink="http://www.w3.org/1999/xlink" x="0px" y="0px"
	 width="64.778px" height="96.021px" viewBox="17.121 80.235 64.778 96.021" enable-background="new 17.121 80.235 64.778 96.021"
	 xml:space="preserve">
<g id="g8586">
	<g id="g8638">
		<g id="g8640">
			<g id="g15_11_" transform="matrix(0.95,0,0,0.95,6.389275,3.0296)">
				<path id="path17_11_" fill="#000100" d="M16.204,114.177c-1.536,0-2.738-0.41-3.607-1.238c-0.866-0.822-1.301-1.887-1.301-3.192
					c0-0.854,0.205-1.623,0.614-2.308c0.406-0.689,0.976-1.21,1.704-1.571c0.731-0.358,1.558-0.539,2.481-0.539
					c0.939,0,1.778,0.189,2.519,0.566c0.739,0.377,1.299,0.915,1.681,1.609c0.38,0.693,0.568,1.443,0.568,2.246
					c0,0.873-0.207,1.649-0.627,2.332c-0.424,0.689-0.997,1.207-1.725,1.558C17.784,114.003,17.014,114.177,16.204,114.177z
					 M16.217,112.915c1.116,0,1.994-0.298,2.633-0.896c0.641-0.6,0.961-1.354,0.961-2.254c0-0.921-0.325-1.681-0.969-2.277
					c-0.648-0.593-1.567-0.891-2.755-0.891c-0.755,0-1.411,0.126-1.973,0.379c-0.56,0.257-0.997,0.627-1.306,1.117
					c-0.307,0.49-0.463,1.039-0.463,1.651c0,0.866,0.299,1.613,0.894,2.236C13.834,112.605,14.827,112.915,16.217,112.915z"/>
			</g>
			<g id="g8644">
				<path id="polygon3_9_" fill="#000100" d="M42.006,142.428h-0.997l10.121-17.585h0.511l0.256,0.437L42.006,142.428z"/>
				<path id="polygon5_11_" fill="#000100" d="M51.896,124.409l-0.256,0.434H51.13l-10.121-17.559h0.997L51.896,124.409z"/>
				<path id="polygon13_11_" fill="#000100" d="M42.006,107.284h-0.997L48.6,94.122l0.766,0.435L42.006,107.284z"/>
				<path id="rect19_12_" fill="#000100" d="M27.361,109.253v-0.87h15.028v0.87H27.361z"/>
				<path id="rect21_11_" fill="#000100" d="M27.361,106.186v-0.867h15.028v0.867H27.361z"/>
				<path id="polygon33_12_" fill="#000100" d="M66.822,124.409v0.868H51.896l-0.256-0.437l0.256-0.434L66.822,124.409
					L66.822,124.409z"/>
				<path id="polygon35_10_" fill="#000100" d="M41.009,142.428h0.997l10.146,17.562H51.13L41.009,142.428z"/>
				<path id="polygon37_2_" fill="#000100" d="M51.13,159.986h1.022l-9.401,16.27l-0.746-0.438L51.13,159.986z"/>
				<path id="rect53_1_" fill="#000100" d="M26.431,142.992v-0.869h15.028v0.869H26.431z"/>
				<polyline id="polyline8655" fill="#000100" points="42.006,142.428 42.785,143.775 51.896,125.277 				"/>
			</g>
			<g id="g8657">
				<path id="path8659" d="M51.059,94.192c-1.925-0.707-2.81-2.356-2.875-3.502c-0.118-2.077,1.665-4.741,3.823-5.052
					c2.347-0.336,4.743,1.631,4.714,3.969c-0.014,1.188-0.254,1.565-0.621,2.255c-0.76,1.438-1.629,1.943-1.986,2.146
					C53.355,94.433,52.297,94.646,51.059,94.192z M54.993,87.773c-3.257-3.879-8.588,3.664-3.615,5.423
					C54.223,94.2,56.67,89.771,54.993,87.773z"/>
				<path id="path8661" d="M44.469,90.413c0.582-1.015,1.164-2.029,1.746-3.042c-1.038-0.791-2.5-1.465-3.704-2.209
					c-0.656,0.803-1.197,2.037-1.807,3.006c-0.302,0-0.705-0.359-1.05-0.519c1.417-2.472,2.834-4.941,4.252-7.414
					c0.338,0.193,0.676,0.388,1.014,0.582c-0.655,1.141-1.31,2.279-1.963,3.422c1.268,0.726,2.537,1.453,3.803,2.18
					c0.654-1.14,1.308-2.281,1.962-3.421c0.338,0.193,0.677,0.39,1.014,0.582c-1.38,2.408-2.762,4.815-4.144,7.224
					C45.348,91.156,44.837,90.524,44.469,90.413z"/>
			</g>
			<g id="g8663">
				<path id="path8665" fill="#FFFFFF" d="M68.26,121.243c0.034,2.028,0.068,4.059,0.102,6.087c0.277-0.005,0.557-0.01,0.832-0.014
					c-0.023-1.545-0.051-3.088-0.076-4.633c1.07,1.504,2.121,3.027,3.146,4.578c0.297-0.003,0.592-0.009,0.885-0.014
					c-0.033-2.029-0.066-4.059-0.102-6.087c-0.277,0.004-0.556,0.008-0.833,0.014c0.027,1.525,0.052,3.054,0.075,4.578
					c-1.07-1.483-2.09-3.022-3.146-4.528C68.85,121.232,68.555,121.238,68.26,121.243z"/>
				<path id="path8667" d="M74.703,121.229c0.013,0.815,0.027,1.631,0.042,2.446c0.938,0.104,2.101-0.019,3.124,0
					c0.107-0.729-0.014-1.684,0.009-2.499c0.271,0.021,0.644-0.066,0.834,0.037c0.031,1.995,0.065,3.99,0.101,5.984
					c-0.187,0.109-0.563,0.035-0.832,0.063c-0.017-0.952-0.031-1.905-0.049-2.86c-1.058,0.019-2.115,0.035-3.172,0.054
					c0.016,0.954,0.032,1.907,0.047,2.862c-0.27-0.021-0.645,0.065-0.832-0.037c-0.033-1.961-0.064-3.922-0.099-5.881
					C73.896,121.098,74.437,121.297,74.703,121.229z"/>
				<path id="path8669" d="M69.145,121.227c1.055,1.506,2.073,3.045,3.146,4.528c-0.022-1.524-0.048-3.053-0.075-4.578
					c0.278-0.006,0.557-0.01,0.833-0.014c0.034,2.028,0.068,4.058,0.103,6.087c-0.295,0.005-0.588,0.011-0.885,0.014
					c-1.023-1.551-2.074-3.074-3.146-4.578c0.025,1.545,0.053,3.088,0.078,4.633c-0.277,0.005-0.557,0.009-0.832,0.014
					c-0.034-2.027-0.068-4.061-0.102-6.087C68.555,121.238,68.85,121.232,69.145,121.227z"/>
				<path id="path8671" d="M80.229,128.947c0.557-0.01,1.108-0.02,1.662-0.027c0.002,0.146,0.004,0.291,0.008,0.438
					c-0.766,0.013-1.528,0.023-2.295,0.037c-0.015-0.978,1.274-1.441,1.666-2.166c0.504-0.932-1.071-1.428-1.192-0.256
					c-0.181,0.024-0.248-0.065-0.437-0.031c-0.041-1.455,2.453-1.4,2.18,0.158C81.668,127.977,80.621,128.209,80.229,128.947z"/>
			</g>
		</g>
	</g>
</g>
</svg>
