<?xml version="1.0" encoding="utf-8"?>
<!-- Generator: Adobe Illustrator 16.0.0, SVG Export Plug-In . SVG Version: 6.00 Build 0)  -->
<!DOCTYPE svg PUBLIC "-//W3C//DTD SVG 1.1//EN" "http://www.w3.org/Graphics/SVG/1.1/DTD/svg11.dtd">
<svg version="1.1" id="Layer_1" xmlns="http://www.w3.org/2000/svg" xmlns:xlink="http://www.w3.org/1999/xlink" x="0px" y="0px"
	 width="64.788px" height="96.022px" viewBox="16.86 78.23 64.788 96.022" enable-background="new 16.86 78.23 64.788 96.022"
	 xml:space="preserve">
<g id="g8705">
	<g id="g8751">
		<g id="g15_12_" transform="matrix(0.95,0,0,0.95,6.389275,3.0296)">
			<path id="path17_12_" fill="#000100" d="M15.93,112.068c-1.535,0-2.738-0.411-3.607-1.238c-0.865-0.823-1.301-1.887-1.301-3.193
				c0-0.853,0.205-1.623,0.614-2.307c0.405-0.688,0.976-1.211,1.703-1.571c0.731-0.359,1.558-0.541,2.482-0.541
				c0.939,0,1.778,0.189,2.518,0.567c0.739,0.378,1.299,0.915,1.682,1.61c0.379,0.693,0.568,1.443,0.568,2.245
				c0,0.873-0.208,1.649-0.627,2.333c-0.424,0.687-0.997,1.205-1.726,1.558C17.511,111.892,16.741,112.068,15.93,112.068z
				 M15.945,110.806c1.115,0,1.993-0.298,2.633-0.895c0.641-0.599,0.961-1.354,0.961-2.255c0-0.922-0.325-1.68-0.969-2.275
				c-0.649-0.595-1.567-0.893-2.755-0.893c-0.755,0-1.411,0.129-1.972,0.381c-0.56,0.255-0.997,0.626-1.306,1.116
				c-0.307,0.488-0.463,1.038-0.463,1.649c0,0.868,0.298,1.613,0.894,2.238C13.56,110.495,14.554,110.806,15.945,110.806z"/>
		</g>
		<g id="g8755">
			<path id="polygon3_12_" fill="#000100" d="M41.747,140.424H40.75l10.121-17.585h0.511l0.255,0.437L41.747,140.424z"/>
			<path id="polygon5_12_" fill="#000100" d="M51.637,122.405l-0.255,0.434h-0.511L40.75,105.28h0.997L51.637,122.405z"/>
			<path id="polygon13_12_" fill="#000100" d="M41.747,105.28H40.75l7.592-13.162l0.766,0.435L41.747,105.28z"/>
			<path id="rect19_13_" fill="#000100" d="M27.102,107.249v-0.87H42.13v0.87H27.102z"/>
			<path id="rect21_12_" fill="#000100" d="M27.102,104.182v-0.867H42.13v0.867H27.102z"/>
			<path id="polygon33_13_" fill="#000100" d="M66.562,122.405v0.868H51.639l-0.256-0.437l0.256-0.435L66.562,122.405
				L66.562,122.405z"/>
			<path id="polygon35_11_" fill="#000100" d="M40.75,140.424h0.997l10.146,17.561h-1.021L40.75,140.424z"/>
			<path id="polygon37_3_" fill="#000100" d="M50.871,157.982h1.021l-9.4,16.27l-0.746-0.439L50.871,157.982z"/>
			<path id="rect53_2_" fill="#000100" d="M51.458,158.417v-0.868H70.76v0.868H51.458z"/>
			<polyline id="polyline8766" fill="#000100" points="41.747,140.424 42.526,141.771 51.637,123.273 			"/>
		</g>
		<g id="g8768">
			<path id="path8770" d="M50.8,92.188c-1.925-0.706-2.81-2.355-2.875-3.502c-0.118-2.076,1.665-4.74,3.824-5.051
				c2.347-0.336,4.743,1.631,4.713,3.968c-0.014,1.188-0.254,1.566-0.621,2.256c-0.759,1.438-1.629,1.942-1.985,2.146
				C53.098,92.429,52.038,92.644,50.8,92.188z M54.734,85.77c-3.258-3.878-8.588,3.664-3.614,5.423
				C53.964,92.196,56.411,87.768,54.734,85.77z"/>
			<path id="path8772" d="M44.21,88.409c0.581-1.016,1.163-2.029,1.746-3.043c-1.038-0.79-2.5-1.464-3.704-2.208
				c-0.656,0.803-1.197,2.037-1.808,3.006c-0.301,0-0.705-0.359-1.05-0.52c1.417-2.472,2.834-4.94,4.252-7.414
				c0.337,0.193,0.675,0.388,1.013,0.581c-0.655,1.143-1.31,2.281-1.963,3.424c1.268,0.726,2.537,1.452,3.804,2.18
				c0.654-1.14,1.308-2.281,1.961-3.422c0.338,0.192,0.678,0.39,1.015,0.583c-1.38,2.408-2.762,4.814-4.144,7.224
				C45.089,89.152,44.579,88.52,44.21,88.409z"/>
		</g>
		<g id="g8774">
			<path id="path8776" fill="#FFFFFF" d="M68.012,120.135c0.033,2.028,0.067,4.061,0.102,6.088c0.275-0.006,0.556-0.01,0.832-0.015
				c-0.024-1.544-0.053-3.087-0.077-4.631c1.071,1.503,2.123,3.026,3.146,4.578c0.297-0.003,0.59-0.009,0.885-0.015
				c-0.032-2.029-0.066-4.059-0.102-6.088c-0.277,0.006-0.556,0.01-0.833,0.016c0.027,1.523,0.052,3.053,0.075,4.578
				c-1.07-1.484-2.09-3.023-3.145-4.528C68.6,120.124,68.305,120.13,68.012,120.135z"/>
			<path id="path8778" d="M74.454,120.121c0.013,0.814,0.028,1.63,0.042,2.445c0.938,0.104,2.102-0.02,3.124,0
				c0.106-0.73-0.013-1.685,0.009-2.498c0.27,0.021,0.645-0.067,0.834,0.035c0.031,1.996,0.064,3.99,0.1,5.984
				c-0.186,0.111-0.562,0.036-0.83,0.064c-0.018-0.952-0.032-1.906-0.051-2.86c-1.057,0.019-2.115,0.035-3.17,0.054
				c0.014,0.953,0.031,1.907,0.047,2.861c-0.271-0.021-0.646,0.066-0.834-0.037c-0.031-1.96-0.063-3.921-0.098-5.88
				C73.646,119.988,74.187,120.188,74.454,120.121z"/>
			<path id="path8780" d="M68.895,120.118c1.056,1.505,2.074,3.044,3.146,4.528c-0.023-1.525-0.048-3.055-0.075-4.578
				c0.278-0.006,0.556-0.012,0.833-0.016c0.034,2.029,0.068,4.059,0.102,6.088c-0.293,0.006-0.588,0.012-0.885,0.014
				c-1.022-1.551-2.074-3.074-3.146-4.577c0.025,1.544,0.053,3.087,0.076,4.631c-0.275,0.005-0.555,0.009-0.832,0.015
				c-0.032-2.027-0.066-4.06-0.102-6.088C68.305,120.13,68.6,120.124,68.895,120.118z"/>
			<path id="path8782" d="M79.98,127.839c0.555-0.009,1.106-0.019,1.662-0.026c0,0.146,0.002,0.291,0.006,0.437
				c-0.766,0.013-1.528,0.024-2.295,0.039c-0.015-0.979,1.274-1.443,1.666-2.167c0.504-0.932-1.072-1.428-1.192-0.256
				c-0.181,0.023-0.248-0.066-0.435-0.032c-0.041-1.454,2.451-1.399,2.18,0.16C81.419,126.867,80.372,127.102,79.98,127.839z"/>
		</g>
	</g>
</g>
</svg>
