<?xml version="1.0" encoding="utf-8"?>
<!-- Generator: Adobe Illustrator 16.0.0, SVG Export Plug-In . SVG Version: 6.00 Build 0)  -->
<!DOCTYPE svg PUBLIC "-//W3C//DTD SVG 1.1//EN" "http://www.w3.org/Graphics/SVG/1.1/DTD/svg11.dtd">
<svg version="1.1" id="Layer_1" xmlns="http://www.w3.org/2000/svg" xmlns:xlink="http://www.w3.org/1999/xlink" x="0px" y="0px"
	 width="74.754px" height="148.636px" viewBox="0 0 74.754 148.636" enable-background="new 0 0 74.754 148.636"
	 xml:space="preserve">
<g id="g7726">
	<g id="g7728">
		<polyline id="polyline7730" fill="#010101" points="29.047,135.285 31.136,135.285 37.564,121.964 29.097,134.908 		"/>
		<g id="g7732">
			<path id="path7734" fill="#010101" d="M26.56,136.447c1.59,2.434,3.165,4.881,4.837,7.233c0.002-2.41,0.005-4.818,0.009-7.228
				c0.437,0.002,0.875,0.002,1.313,0.002c-0.003,3.176-0.008,6.352-0.01,9.526c-0.32,0.173-0.946,0.041-1.396,0.082
				c-1.579-2.472-3.23-4.873-4.837-7.317c-0.002,2.41-0.005,4.819-0.008,7.229c-0.296,0.169-0.888,0.042-1.315,0.081
				c0.004-3.203,0.007-6.407,0.011-9.61C25.628,136.446,26.092,136.447,26.56,136.447z"/>
			<path id="path7736" fill="#010101" d="M36.087,136.458c-0.003,1.289-0.005,2.572-0.006,3.858
				c1.451,0.194,3.259,0.032,4.848,0.089c0.19-1.15,0.028-2.656,0.084-3.941c0.438,0,0.878,0,1.316,0
				c-0.006,3.177-0.009,6.353-0.012,9.527c-0.296,0.172-0.89,0.041-1.316,0.08c0.003-1.477,0.004-2.955,0.007-4.434
				c-1.451-0.194-3.257-0.032-4.846-0.088c-0.192,1.314-0.032,2.982-0.088,4.436c-0.294,0.168-0.888,0.041-1.314,0.08
				c0.004-3.203,0.008-6.404,0.011-9.607C35.212,136.457,35.65,136.457,36.087,136.458z"/>
			<path id="path7738" fill="#010101" d="M29.738,135.276c-0.071-0.041-0.141-0.081-0.211-0.122
				c-0.144-0.083-0.287-0.165-0.43-0.246c0.023-0.047,0.048-0.093,0.071-0.138c2.204-4.208,4.875-8.543,7.254-12.798
				c-3.375-6.246-7.241-12.359-10.637-18.6c3.515-6.127,7.029-12.252,10.544-18.381c-3.73-6.67-7.744-13.264-11.479-19.934
				c3.788-5.58,7.491-11.209,11.346-16.974c-2.905-5.571-6.379-10.987-9.468-16.507c-4.657-0.039-9.448,0.063-14.313,0.026
				c-0.46-0.003-1.782,0.217-1.588-0.532c0.16-0.626,1.174-0.302,1.783-0.302c4.388-0.007,9.13-0.167,13.509-0.11
				c-0.336-0.652-0.851-1.254,0.054-2.242c-4.44-0.036-8.959-0.081-13.609-0.042c-0.56,0.004-1.577,0.217-1.75-0.247
				c-0.322-0.845,1.13-0.605,1.578-0.609c4.709-0.034,9.689-0.031,14.353-0.098c2.19-3.599,4.247-7.837,6.6-11.175
				c0.22,0.167,0.395,0.164,0.499,0.287c0.327,0.378-1.186,2.561-1.545,3.186c-1.832,3.196-3.987,6.953-5.599,9.76
				c3.208,6.071,7.016,11.979,10.302,18.027c3.565-0.002,7.241,0.01,11.003-0.034c0.798-0.008,3.271-0.245,3.482,0.2
				c0.459,0.958-0.862,0.703-1.252,0.702c-4.267-0.016-8.938,0.024-13.144,0.13C33.84,55.032,26.719,66.58,26.719,66.58
				s7.467,12.737,10.751,18.405c-3.528,6.149-7.055,12.3-10.584,18.451c3.375,6.228,7.207,12.327,10.678,18.526
				c-2.521,4.395-5.041,8.787-7.561,13.182C29.938,135.267,29.844,135.298,29.738,135.276z"/>
			<polyline id="polyline7740" fill="#010101" points="26.718,103.212 27.615,104.769 37.47,84.986 			"/>
			<path id="path7742" fill="#010101" d="M2.998,34.157c-1.946-0.785-3.042-2.653-2.996-4.181c0.083-2.892,2.702-5.412,4.978-5.381
				c3.5,0.048,5.576,3.837,3.982,6.923C7.604,34.148,5.356,35.107,2.998,34.157z M7.781,30.935c1.626-3.072-1.457-6.283-4.179-4.765
				c-2.787,1.556-3.08,5.718-0.245,6.867C5.312,33.829,6.711,32.96,7.781,30.935z"/>
			<g id="g7744">
				<path id="path7746" fill="#FFFFFF" d="M53.229,42.13c0.055,3.202,0.108,6.406,0.161,9.609c0.436-0.008,0.875-0.014,1.313-0.023
					c-0.04-2.437-0.083-4.873-0.124-7.308c1.691,2.371,3.352,4.778,4.967,7.227c0.469-0.007,0.932-0.016,1.396-0.022
					c-0.053-3.203-0.105-6.406-0.159-9.608c-0.439,0.006-0.877,0.015-1.315,0.021c0.042,2.408,0.08,4.817,0.119,7.226
					c-1.69-2.343-3.3-4.772-4.964-7.146C54.158,42.115,53.693,42.123,53.229,42.13z"/>
				<path id="path7748" fill="#010101" d="M63.398,42.111c0.021,1.286,0.046,2.571,0.064,3.858c1.482,0.167,3.315-0.027,4.93,0
					c0.171-1.154-0.019-2.656,0.016-3.943c0.426,0.033,1.016-0.105,1.315,0.061c0.05,3.148,0.104,6.295,0.157,9.443
					c-0.293,0.176-0.887,0.057-1.313,0.105c-0.025-1.506-0.053-3.012-0.077-4.518c-1.669,0.028-3.338,0.056-5.007,0.084
					c0.024,1.504,0.052,3.01,0.074,4.517c-0.426-0.034-1.019,0.105-1.314-0.06c-0.051-3.094-0.104-6.187-0.154-9.28
					C62.124,41.899,62.977,42.216,63.398,42.111z"/>
				<path id="path7750" fill="#010101" d="M54.624,42.106c1.664,2.373,3.272,4.802,4.964,7.146
					c-0.039-2.409-0.077-4.818-0.119-7.226c0.438-0.007,0.876-0.015,1.315-0.021c0.054,3.202,0.106,6.405,0.159,9.608
					c-0.466,0.007-0.929,0.015-1.396,0.022c-1.615-2.449-3.274-4.856-4.967-7.227c0.041,2.435,0.084,4.871,0.124,7.308
					c-0.438,0.009-0.879,0.015-1.313,0.023c-0.053-3.203-0.106-6.407-0.161-9.609C53.693,42.123,54.158,42.115,54.624,42.106z"/>
				<path id="path7752" fill="#010101" d="M72.12,54.292c0.876-0.016,1.749-0.03,2.624-0.044c0.002,0.229,0.005,0.458,0.011,0.686
					c-1.207,0.021-2.413,0.041-3.622,0.062c-0.021-1.542,2.012-2.278,2.629-3.418c0.795-1.47-1.691-2.253-1.883-0.405
					c-0.283,0.04-0.39-0.105-0.688-0.051c-0.063-2.295,3.871-2.211,3.441,0.254C74.39,52.757,72.738,53.126,72.12,54.292z"/>
			</g>
			<g id="g7754">
				<path id="path7756" fill="#010101" d="M35.179,15.69c-2.165-0.794-3.16-2.648-3.233-3.937c-0.132-2.336,1.872-5.33,4.298-5.678
					c2.639-0.378,5.333,1.834,5.3,4.461c-0.016,1.334-0.287,1.76-0.698,2.535c-0.854,1.617-1.833,2.184-2.233,2.411
					C37.761,15.96,36.57,16.201,35.179,15.69z M39.602,8.474c-3.661-4.36-9.655,4.119-4.063,6.096
					C38.736,15.699,41.487,10.72,39.602,8.474z"/>
				<path id="path7758" fill="#010101" d="M27.771,11.44c0.652-1.14,1.308-2.28,1.961-3.42c-1.167-0.888-2.811-1.645-4.163-2.482
					c-0.738,0.903-1.347,2.29-2.033,3.379c-0.339,0.001-0.791-0.404-1.18-0.582C23.948,5.556,25.542,2.778,27.136,0
					c0.379,0.217,0.759,0.435,1.139,0.652c-0.736,1.284-1.472,2.565-2.207,3.849c1.425,0.815,2.852,1.633,4.276,2.45
					c0.734-1.281,1.47-2.565,2.206-3.846c0.379,0.217,0.761,0.437,1.14,0.653c-1.552,2.708-3.105,5.416-4.658,8.123
					C28.757,12.275,28.186,11.566,27.771,11.44z"/>
			</g>
			<g id="g7760">
				<path id="path7762" fill="#262524" d="M43.766,147.862c0.175,0.104,0.572,0.279,1.005,0.279c0.78,0,1.031-0.495,1.024-0.878
					c-0.007-0.635-0.578-0.907-1.171-0.907h-0.342v-0.46h0.342c0.446,0,1.011-0.23,1.011-0.768c0-0.362-0.229-0.684-0.795-0.684
					c-0.362,0-0.711,0.161-0.906,0.301l-0.168-0.447c0.244-0.174,0.704-0.348,1.192-0.348c0.893,0,1.297,0.529,1.297,1.08
					c0,0.475-0.285,0.872-0.836,1.074v0.014c0.558,0.104,1.004,0.523,1.011,1.157c0,0.726-0.572,1.36-1.652,1.36
					c-0.51,0-0.955-0.16-1.179-0.307L43.766,147.862z"/>
			</g>
		</g>
	</g>
</g>
<g>
</g>
<g>
</g>
<g>
</g>
<g>
</g>
<g>
</g>
<g>
</g>
<g>
</g>
</svg>
