<?xml version="1.0" encoding="utf-8"?>
<!-- Generator: Adobe Illustrator 16.0.0, SVG Export Plug-In . SVG Version: 6.00 Build 0)  -->
<!DOCTYPE svg PUBLIC "-//W3C//DTD SVG 1.1//EN" "http://www.w3.org/Graphics/SVG/1.1/DTD/svg11.dtd">
<svg version="1.1" id="Layer_1" xmlns="http://www.w3.org/2000/svg" xmlns:xlink="http://www.w3.org/1999/xlink" x="0px" y="0px"
	 width="300px" height="500px" viewBox="0 0 300 500" enable-background="new 0 0 300 500" xml:space="preserve">
<g id="g7726">
	<g id="g7728">
		<polyline id="polyline7730" fill="#010101" points="127.299,419.119 133.091,419.119 150.914,382.184 127.438,418.074 		"/>
		<g id="g7732">
			<path id="path7734" fill="#010101" d="M120.4,422.342c4.408,6.748,8.775,13.533,13.412,20.057
				c0.006-6.684,0.014-13.361,0.024-20.041c1.212,0.006,2.427,0.006,3.641,0.006c-0.008,8.805-0.021,17.611-0.026,26.414
				c-0.889,0.48-2.624,0.115-3.871,0.229c-4.379-6.854-8.956-13.512-13.414-20.291c-0.005,6.684-0.013,13.363-0.021,20.045
				c-0.82,0.469-2.461,0.115-3.646,0.225c0.011-8.883,0.019-17.768,0.03-26.648C117.818,422.338,119.104,422.342,120.4,422.342z"/>
			<path id="path7736" fill="#010101" d="M146.82,422.373c-0.009,3.574-0.014,7.133-0.017,10.699
				c4.024,0.539,9.036,0.09,13.442,0.244c0.527-3.186,0.078-7.363,0.232-10.926c1.216,0,2.435,0.002,3.65,0.002
				c-0.017,8.807-0.024,17.611-0.032,26.416c-0.82,0.477-2.467,0.113-3.65,0.221c0.008-4.094,0.011-8.193,0.019-12.293
				c-4.023-0.539-9.03-0.09-13.437-0.244c-0.533,3.645-0.089,8.27-0.245,12.299c-0.814,0.467-2.461,0.115-3.644,0.223
				c0.012-8.881,0.023-17.758,0.031-26.641C144.394,422.369,145.608,422.369,146.82,422.373z"/>
			<path id="path7738" fill="#010101" d="M129.215,419.094c-0.196-0.113-0.392-0.225-0.585-0.338
				c-0.399-0.23-0.796-0.457-1.192-0.686c0.064-0.127,0.134-0.254,0.197-0.379c6.111-11.668,13.518-23.688,20.114-35.486
				c-9.358-17.32-20.079-34.271-29.494-51.574c9.745-16.99,19.49-33.973,29.236-50.968c-10.343-18.495-21.473-36.778-31.829-55.273
				c10.502-15.473,20.771-31.081,31.46-47.067c-8.055-15.447-17.688-30.465-26.253-45.771c-12.914-0.108-26.199,0.174-39.688,0.072
				c-1.275-0.008-4.941,0.601-4.403-1.476c0.443-1.736,3.255-0.836,4.944-0.836c12.167-0.019,25.315-0.463,37.459-0.305
				c-0.933-1.809-2.36-3.479,0.149-6.217c-12.312-0.1-24.843-0.225-37.736-0.117c-1.553,0.011-4.373,0.602-4.853-0.685
				c-0.894-2.342,3.133-1.677,4.376-1.688c13.058-0.095,26.866-0.087,39.799-0.272c6.073-9.98,11.775-21.731,18.301-30.986
				c0.61,0.463,1.095,0.455,1.384,0.796c0.906,1.048-3.289,7.102-4.284,8.835c-5.08,8.861-11.055,19.278-15.525,27.063
				c8.895,16.833,19.454,33.216,28.566,49.986c9.887-0.006,20.079,0.028,30.51-0.094c2.212-0.023,9.071-0.68,9.656,0.554
				c1.272,2.657-2.391,1.95-3.472,1.947c-11.83-0.045-24.785,0.066-36.445,0.36c-9.018,18.101-28.763,50.123-28.763,50.123
				s20.705,35.318,29.811,51.035c-9.782,17.051-19.562,34.105-29.348,51.162c9.358,17.268,19.984,34.182,29.607,51.371
				c-6.988,12.186-13.977,24.365-20.964,36.551C129.768,419.07,129.509,419.16,129.215,419.094z"/>
			<polyline id="polyline7740" fill="#010101" points="120.841,330.188 123.328,334.504 150.654,279.646 			"/>
			<path id="path7742" fill="#010101" d="M55.066,138.706c-5.396-2.177-8.435-7.357-8.308-11.594
				c0.23-8.02,7.493-15.007,13.803-14.92c9.705,0.132,15.461,10.639,11.042,19.196C67.838,138.68,61.607,141.339,55.066,138.706z
				 M68.331,129.771c4.509-8.519-4.04-17.422-11.587-13.213c-7.729,4.315-8.541,15.856-0.68,19.042
				C61.482,137.795,65.364,135.386,68.331,129.771z"/>
			<g id="g7744">
				<path id="path7746" fill="#FFFFFF" d="M194.352,160.813c0.151,8.879,0.301,17.764,0.447,26.645
					c1.207-0.022,2.426-0.038,3.642-0.063c-0.111-6.759-0.23-13.512-0.344-20.265c4.69,6.574,9.294,13.249,13.772,20.04
					c1.3-0.021,2.583-0.045,3.872-0.063c-0.146-8.88-0.292-17.762-0.441-26.642c-1.219,0.018-2.432,0.042-3.647,0.059
					c0.116,6.678,0.222,13.358,0.33,20.037c-4.688-6.497-9.149-13.232-13.764-19.815
					C196.927,160.772,195.638,160.793,194.352,160.813z"/>
				<path id="path7748" fill="#010101" d="M222.549,160.76c0.057,3.566,0.127,7.13,0.179,10.699c4.11,0.463,9.193-0.076,13.67,0
					c0.474-3.201-0.052-7.365,0.043-10.934c1.181,0.092,2.816-0.291,3.647,0.169c0.138,8.729,0.287,17.457,0.436,26.184
					c-0.812,0.489-2.458,0.158-3.639,0.292c-0.07-4.177-0.146-8.353-0.214-12.528c-4.628,0.077-9.256,0.154-13.884,0.233
					c0.067,4.17,0.144,8.346,0.206,12.525c-1.181-0.095-2.824,0.29-3.645-0.167c-0.142-8.58-0.29-17.156-0.429-25.733
					C219.015,160.172,221.382,161.052,222.549,160.76z"/>
				<path id="path7750" fill="#010101" d="M198.219,160.746c4.614,6.58,9.074,13.316,13.764,19.815
					c-0.108-6.679-0.214-13.359-0.33-20.037c1.216-0.019,2.429-0.041,3.647-0.059c0.149,8.879,0.295,17.761,0.441,26.642
					c-1.292,0.021-2.575,0.042-3.872,0.063c-4.479-6.792-9.08-13.466-13.772-20.04c0.113,6.752,0.232,13.506,0.344,20.265
					c-1.216,0.024-2.437,0.041-3.642,0.063c-0.146-8.881-0.296-17.765-0.447-26.645
					C195.638,160.793,196.927,160.772,198.219,160.746z"/>
				<path id="path7752" fill="#010101" d="M246.733,194.537c2.429-0.044,4.85-0.083,7.275-0.122c0.006,0.635,0.014,1.27,0.03,1.902
					c-3.347,0.058-6.691,0.114-10.044,0.172c-0.057-4.276,5.578-6.316,7.29-9.478c2.204-4.077-4.69-6.248-5.221-1.124
					c-0.785,0.111-1.081-0.291-1.906-0.141c-0.177-6.364,10.733-6.131,9.542,0.704C253.029,190.281,248.447,191.304,246.733,194.537
					z"/>
			</g>
			<g id="g7754">
				<path id="path7756" fill="#010101" d="M144.302,87.498c-6.003-2.202-8.762-7.343-8.965-10.917
					c-0.365-6.477,5.191-14.78,11.919-15.744c7.317-1.048,14.788,5.085,14.696,12.37c-0.044,3.699-0.797,4.88-1.937,7.028
					c-2.366,4.484-5.083,6.056-6.193,6.686C151.462,88.247,148.159,88.916,144.302,87.498z M156.565,67.489
					c-10.15-12.091-26.771,11.422-11.268,16.903C154.164,87.523,161.792,73.717,156.565,67.489z"/>
				<path id="path7758" fill="#010101" d="M123.759,75.713c1.808-3.16,3.627-6.322,5.438-9.483
					c-3.236-2.461-7.795-4.561-11.544-6.882c-2.046,2.503-3.735,6.35-5.637,9.369c-0.941,0.003-2.193-1.12-3.272-1.614
					c4.417-7.705,8.837-15.409,13.257-23.112c1.052,0.603,2.105,1.207,3.158,1.808c-2.04,3.561-4.082,7.113-6.12,10.673
					c3.952,2.26,7.909,4.529,11.857,6.794c2.036-3.553,4.076-7.112,6.116-10.665c1.051,0.601,2.111,1.211,3.162,1.812
					c-4.305,7.509-8.61,15.018-12.917,22.522C126.495,78.028,124.909,76.063,123.759,75.713z"/>
			</g>
			<g id="g7760">
				<path id="path7762" fill="#262524" d="M168.112,453.994c0.484,0.289,1.587,0.773,2.786,0.773c2.164,0,2.859-1.373,2.841-2.434
					c-0.019-1.76-1.604-2.516-3.247-2.516h-0.947v-1.275h0.947c1.238,0,2.803-0.639,2.803-2.129c0-1.004-0.636-1.895-2.204-1.895
					c-1.005,0-1.972,0.445-2.513,0.834l-0.466-1.24c0.677-0.482,1.952-0.965,3.307-0.965c2.475,0,3.596,1.469,3.596,2.994
					c0,1.316-0.791,2.42-2.318,2.98v0.037c1.547,0.289,2.784,1.451,2.803,3.209c0,2.012-1.587,3.771-4.581,3.771
					c-1.414,0-2.648-0.443-3.269-0.85L168.112,453.994z"/>
			</g>
		</g>
	</g>
</g>
</svg>
