<?xml version="1.0" encoding="utf-8"?>
<!-- Generator: Adobe Illustrator 16.0.0, SVG Export Plug-In . SVG Version: 6.00 Build 0)  -->
<!DOCTYPE svg PUBLIC "-//W3C//DTD SVG 1.1//EN" "http://www.w3.org/Graphics/SVG/1.1/DTD/svg11.dtd">
<svg version="1.1" id="Layer_1" xmlns="http://www.w3.org/2000/svg" xmlns:xlink="http://www.w3.org/1999/xlink" x="0px" y="0px"
	 width="64.895px" height="118.964px" viewBox="0 0 64.895 118.964" enable-background="new 0 0 64.895 118.964"
	 xml:space="preserve">
<g id="g8816">
	<g id="g8868">
		<path id="polygon3_14_" fill="#030303" stroke="#262524" stroke-width="0.25" d="M24.943,63.276h-0.999l10.145-17.625h0.514
			l0.257,0.436L24.943,63.276z"/>
		<path id="polygon5_14_" fill="#030303" stroke="#262524" stroke-width="0.25" d="M34.859,45.216l-0.257,0.437h-0.514L23.944,28.05
			h0.999L34.859,45.216z"/>
		<path id="polygon13_14_" fill="#030303" stroke="#262524" stroke-width="0.25" d="M24.943,28.05h-0.999l7.608-13.19l0.771,0.436
			L24.943,28.05z"/>
		<g id="g15_14_" transform="matrix(0.95,0,0,0.95,5.1188,3.0296)">
			<path id="path17_14_" fill="#030303" d="M-0.47,30.786c-1.538,0-2.743-0.413-3.613-1.242c-0.87-0.826-1.305-1.893-1.305-3.199
				c0-0.855,0.204-1.626,0.613-2.313c0.409-0.688,0.979-1.211,1.711-1.572c0.73-0.362,1.561-0.542,2.488-0.542
				c0.94,0,1.78,0.19,2.522,0.569c0.742,0.378,1.303,0.916,1.685,1.611c0.381,0.697,0.572,1.447,0.572,2.253
				c0,0.872-0.211,1.651-0.632,2.34c-0.421,0.687-0.997,1.207-1.725,1.563C1.115,30.609,0.344,30.786-0.47,30.786z M-0.453,29.522
				c1.114,0,1.996-0.299,2.638-0.903c0.641-0.6,0.964-1.353,0.964-2.259c0-0.922-0.324-1.684-0.974-2.281
				c-0.649-0.594-1.569-0.893-2.762-0.893c-0.753,0-1.412,0.125-1.975,0.38c-0.562,0.256-0.998,0.629-1.308,1.12
				c-0.309,0.491-0.465,1.042-0.465,1.653c0,0.87,0.298,1.616,0.894,2.241C-2.845,29.207-1.848,29.522-0.453,29.522z"/>
		</g>
		<path id="rect19_15_" fill="#030303" stroke="#262524" stroke-width="0.25" d="M10.266,30.024v-0.871h15.063v0.871H10.266z"/>
		<path id="rect21_14_" fill="#030303" stroke="#262524" stroke-width="0.25" d="M10.266,26.95v-0.871h15.063v0.871H10.266z"/>
		<path id="polygon33_15_" fill="#030303" stroke="#262524" stroke-width="0.25" d="M49.794,45.216v0.871H34.859l-0.257-0.436
			l0.257-0.437L49.794,45.216L49.794,45.216z"/>
		<path id="polygon35_13_" fill="#030303" stroke="#262524" stroke-width="0.25" d="M23.945,63.276h0.999L34.86,80.44l-0.514,0.871
			L23.945,63.276z"/>
		<polyline id="polyline8879" fill="#030303" points="24.943,63.276 25.905,64.938 34.859,46.087 		"/>
		<g id="g8881">
			<path id="path8883" fill="#010101" d="M32.857,13.454c-1.855-0.682-2.707-2.271-2.771-3.375c-0.113-2.003,1.605-4.57,3.687-4.869
				c2.263-0.323,4.571,1.572,4.544,3.825c-0.014,1.145-0.245,1.509-0.6,2.174c-0.731,1.387-1.569,1.872-1.914,2.067
				C35.072,13.687,34.05,13.892,32.857,13.454z M36.65,7.267c-3.14-3.737-8.277,3.531-3.484,5.228
				C35.908,13.462,38.265,9.192,36.65,7.267z"/>
			<path id="path8885" fill="#010101" d="M26.505,9.811c0.562-0.979,1.121-1.954,1.683-2.934c-1-0.761-2.409-1.41-3.569-2.128
				c-0.632,0.774-1.154,1.964-1.743,2.897c-0.291,0-0.679-0.349-1.012-0.5C23.229,4.764,24.596,2.382,25.962,0
				c0.326,0.188,0.651,0.374,0.978,0.561c-0.632,1.1-1.263,2.198-1.893,3.299c1.223,0.7,2.445,1.4,3.667,2.103
				c0.63-1.1,1.261-2.198,1.893-3.299c0.323,0.188,0.651,0.376,0.978,0.563c-1.331,2.32-2.663,4.643-3.995,6.963
				C27.353,10.527,26.861,9.919,26.505,9.811z"/>
		</g>
		<g id="XMLID_9_">
			<polygon id="polygon8888" fill="#060707" points="34.88,81.986 34.349,82.676 34.589,81.626 34.86,81.986 			"/>
			<polygon id="polygon8890" fill="#060707" points="35.39,81.043 34.88,81.986 34.346,81.312 34.859,80.1 			"/>
			<polygon id="polygon8892" fill="#060707" points="25.039,93.46 34.349,81.316 34.589,81.626 34.349,82.676 26.79,94.615 			"/>
		</g>
		<polyline id="polyline8894" fill="#262524" points="26.476,104.335 25.478,104.672 34.847,118.964 35.615,118.642 		"/>
		<g id="g8896">
			<path id="path8898" fill="#262524" d="M17.292,100.273l1.251-0.109c0.06,0.501,0.197,0.913,0.413,1.233
				c0.217,0.321,0.553,0.582,1.009,0.778c0.456,0.199,0.969,0.299,1.538,0.299c0.506,0,0.952-0.075,1.34-0.227
				c0.388-0.15,0.676-0.355,0.865-0.619c0.188-0.262,0.283-0.548,0.283-0.856c0-0.314-0.091-0.589-0.273-0.824
				c-0.183-0.234-0.483-0.432-0.902-0.591c-0.269-0.104-0.863-0.269-1.784-0.489c-0.921-0.221-1.565-0.429-1.935-0.625
				c-0.479-0.251-0.835-0.562-1.07-0.934c-0.234-0.371-0.352-0.787-0.352-1.247c0-0.506,0.144-0.979,0.431-1.419
				s0.706-0.773,1.258-1.001c0.552-0.229,1.164-0.343,1.839-0.343c0.743,0,1.398,0.12,1.965,0.358
				c0.568,0.24,1.004,0.592,1.31,1.057s0.47,0.991,0.492,1.579L23.7,96.391c-0.068-0.635-0.3-1.112-0.694-1.437
				c-0.394-0.323-0.976-0.485-1.746-0.485c-0.802,0-1.387,0.146-1.754,0.441c-0.366,0.293-0.55,0.646-0.55,1.063
				c0,0.36,0.13,0.656,0.39,0.89c0.255,0.231,0.922,0.471,2,0.715c1.077,0.243,1.816,0.456,2.218,0.639
				c0.583,0.27,1.014,0.609,1.292,1.021c0.278,0.413,0.417,0.888,0.417,1.426c0,0.533-0.152,1.035-0.458,1.508
				c-0.306,0.472-0.744,0.838-1.316,1.101c-0.571,0.263-1.215,0.394-1.931,0.394c-0.907,0-1.667-0.132-2.28-0.396
				c-0.612-0.266-1.094-0.662-1.441-1.192C17.494,101.544,17.311,100.943,17.292,100.273z"/>
		</g>
		<g id="g8932">
			<path id="path8934" fill="#FFFFFF" d="M51.255,42.407c0.033,2.028,0.068,4.059,0.103,6.087c0.274-0.005,0.555-0.009,0.832-0.014
				c-0.025-1.544-0.054-3.087-0.078-4.631c1.071,1.503,2.123,3.026,3.146,4.578c0.297-0.004,0.591-0.01,0.885-0.015
				c-0.032-2.028-0.065-4.058-0.101-6.087c-0.278,0.004-0.556,0.008-0.833,0.014c0.026,1.525,0.051,3.054,0.074,4.578
				c-1.07-1.483-2.09-3.022-3.146-4.527C51.843,42.396,51.548,42.402,51.255,42.407z"/>
			<path id="path8936" fill="#010101" d="M57.698,42.394c0.013,0.814,0.028,1.63,0.042,2.445c0.938,0.104,2.1-0.019,3.123,0
				c0.106-0.73-0.014-1.684,0.009-2.499c0.27,0.021,0.644-0.066,0.834,0.037c0.031,1.995,0.065,3.99,0.1,5.984
				c-0.186,0.111-0.562,0.036-0.831,0.064c-0.017-0.952-0.032-1.906-0.05-2.86c-1.057,0.018-2.113,0.035-3.171,0.053
				c0.016,0.954,0.031,1.908,0.047,2.862c-0.27-0.021-0.646,0.066-0.834-0.037c-0.03-1.96-0.063-3.921-0.098-5.88
				C56.89,42.262,57.431,42.461,57.698,42.394z"/>
			<path id="path8938" fill="#010101" d="M52.138,42.391c1.056,1.505,2.074,3.044,3.146,4.527c-0.023-1.524-0.048-3.053-0.074-4.578
				c0.277-0.006,0.555-0.01,0.833-0.014c0.034,2.029,0.067,4.059,0.102,6.087c-0.295,0.005-0.589,0.011-0.886,0.015
				c-1.022-1.552-2.073-3.075-3.146-4.578c0.024,1.544,0.053,3.087,0.078,4.631c-0.277,0.005-0.558,0.009-0.832,0.014
				c-0.033-2.028-0.068-4.059-0.103-6.087C51.548,42.402,51.843,42.396,52.138,42.391z"/>
			<path id="path8940" fill="#010101" d="M63.224,50.111c0.556-0.009,1.107-0.019,1.662-0.027c0.002,0.146,0.004,0.291,0.009,0.437
				c-0.767,0.013-1.529,0.024-2.297,0.039c-0.014-0.979,1.274-1.443,1.666-2.167c0.505-0.932-1.071-1.428-1.191-0.256
				c-0.181,0.024-0.248-0.066-0.437-0.032c-0.041-1.454,2.453-1.4,2.181,0.16C64.663,49.14,63.616,49.373,63.224,50.111z"/>
		</g>
	</g>
</g>
<g>
</g>
<g>
</g>
<g>
</g>
<g>
</g>
<g>
</g>
<g>
</g>
</svg>
