<?xml version="1.0" encoding="utf-8"?>
<!-- Generator: Adobe Illustrator 16.0.0, SVG Export Plug-In . SVG Version: 6.00 Build 0)  -->
<!DOCTYPE svg PUBLIC "-//W3C//DTD SVG 1.1//EN" "http://www.w3.org/Graphics/SVG/1.1/DTD/svg11.dtd">
<svg version="1.1" id="Layer_1" xmlns="http://www.w3.org/2000/svg" xmlns:xlink="http://www.w3.org/1999/xlink" x="0px" y="0px"
	 width="67.321px" height="116.718px" viewBox="0 0 67.321 116.718" enable-background="new 0 0 67.321 116.718"
	 xml:space="preserve">
<g id="g8942">
	<g id="g9000">
		<g id="g9034">
			<g id="g9036">
				<path id="polygon3_15_" fill="#030303" stroke="#262524" stroke-width="0.25" d="M23.196,58.847h-0.929l9.437-16.393h0.476
					l0.24,0.406L23.196,58.847z"/>
				<path id="polygon5_15_" fill="#030303" stroke="#262524" stroke-width="0.25" d="M32.419,42.049l-0.24,0.405h-0.476
					l-9.437-16.368h0.929L32.419,42.049z"/>
				<path id="polygon13_15_" fill="#030303" stroke="#262524" stroke-width="0.25" d="M23.196,26.087h-0.929l7.075-12.27
					l0.717,0.405L23.196,26.087z"/>
				<g id="g15_15_" transform="matrix(0.95,0,0,0.95,5.1188,3.0296)">
					<path id="path17_15_" fill="#030303" d="M-0.815,28.406c-1.431,0-2.55-0.383-3.358-1.154c-0.81-0.768-1.215-1.76-1.215-2.975
						c0-0.796,0.189-1.513,0.568-2.152c0.381-0.64,0.912-1.127,1.591-1.462c0.678-0.335,1.453-0.505,2.314-0.505
						c0.874,0,1.656,0.178,2.346,0.53c0.691,0.353,1.212,0.852,1.569,1.5c0.354,0.647,0.529,1.345,0.529,2.094
						c0,0.811-0.194,1.536-0.588,2.176c-0.392,0.637-0.926,1.122-1.604,1.453C0.659,28.242-0.058,28.406-0.815,28.406z M-0.8,27.23
						c1.036,0,1.856-0.28,2.455-0.839c0.596-0.558,0.895-1.26,0.895-2.101c0-0.858-0.301-1.567-0.906-2.123
						c-0.604-0.554-1.461-0.833-2.569-0.833c-0.7,0-1.314,0.119-1.838,0.356c-0.521,0.237-0.926,0.585-1.216,1.042
						c-0.287,0.457-0.433,0.969-0.433,1.537c0,0.807,0.279,1.503,0.834,2.086C-3.024,26.938-2.098,27.23-0.8,27.23z"/>
				</g>
				<path id="rect19_16_" fill="#030303" stroke="#262524" stroke-width="0.25" d="M9.546,27.922v-0.811h14.008v0.811H9.546z"/>
				<path id="rect21_15_" fill="#030303" stroke="#262524" stroke-width="0.25" d="M9.546,25.062v-0.81h14.008v0.81H9.546z"/>
				<path id="polygon33_16_" fill="#030303" stroke="#262524" stroke-width="0.25" d="M46.307,42.049v0.813H32.419l-0.24-0.406
					l0.24-0.404h13.888V42.049z"/>
				<polyline id="polyline9046" fill="#030303" points="21.991,58.847 24.091,60.392 32.419,42.861 				"/>
				<g id="g9048">
					<path id="path9050" fill="#010101" d="M30.557,12.512c-1.726-0.635-2.519-2.112-2.577-3.141
						c-0.105-1.862,1.492-4.25,3.429-4.526c2.104-0.303,4.251,1.462,4.225,3.557c-0.012,1.064-0.229,1.403-0.556,2.021
						c-0.682,1.288-1.46,1.742-1.781,1.924C32.616,12.727,31.667,12.918,30.557,12.512z M34.085,6.758
						c-2.922-3.477-7.701,3.283-3.242,4.86C33.394,12.519,35.587,8.549,34.085,6.758z"/>
					<path id="path9052" fill="#010101" d="M24.649,9.122c0.521-0.908,1.043-1.816,1.564-2.727c-0.93-0.707-2.242-1.313-3.319-1.979
						c-0.588,0.721-1.073,1.826-1.622,2.694c-0.27,0.001-0.631-0.322-0.939-0.464C21.604,4.431,22.875,2.215,24.146,0
						c0.302,0.174,0.604,0.348,0.908,0.521c-0.588,1.022-1.174,2.044-1.761,3.067c1.138,0.65,2.273,1.304,3.409,1.955
						c0.587-1.021,1.173-2.046,1.758-3.067c0.305,0.174,0.607,0.349,0.91,0.521c-1.238,2.16-2.476,4.317-3.716,6.477
						C25.437,9.789,24.979,9.223,24.649,9.122z"/>
				</g>
				<g id="g9054">
					<path id="path9056" fill="#FFFFFF" d="M47.868,38.826c0.032,2.028,0.067,4.06,0.102,6.087c0.275-0.005,0.555-0.009,0.832-0.014
						c-0.025-1.544-0.053-3.087-0.078-4.631c1.072,1.503,2.123,3.026,3.146,4.578c0.297-0.003,0.591-0.009,0.885-0.015
						c-0.033-2.028-0.066-4.058-0.102-6.087c-0.277,0.004-0.556,0.009-0.833,0.015c0.026,1.524,0.052,3.053,0.074,4.578
						c-1.069-1.484-2.09-3.023-3.145-4.528C48.456,38.815,48.161,38.821,47.868,38.826z"/>
					<path id="path9058" fill="#010101" d="M54.311,38.813c0.014,0.814,0.028,1.63,0.042,2.445c0.938,0.104,2.101-0.019,3.123,0
						c0.107-0.73-0.013-1.684,0.009-2.498c0.271,0.021,0.645-0.067,0.834,0.036c0.031,1.995,0.065,3.99,0.101,5.984
						c-0.187,0.111-0.563,0.036-0.831,0.065c-0.018-0.953-0.033-1.907-0.05-2.861c-1.058,0.018-2.114,0.035-3.171,0.053
						c0.015,0.954,0.03,1.908,0.047,2.862c-0.271-0.021-0.646,0.066-0.834-0.037c-0.031-1.96-0.064-3.921-0.099-5.88
						C53.503,38.68,54.044,38.88,54.311,38.813z"/>
					<path id="path9060" fill="#010101" d="M48.751,38.81c1.055,1.505,2.074,3.044,3.145,4.527
						c-0.022-1.524-0.048-3.053-0.074-4.577c0.277-0.007,0.556-0.011,0.833-0.015c0.034,2.029,0.067,4.059,0.102,6.087
						c-0.294,0.005-0.588,0.012-0.885,0.015c-1.023-1.552-2.074-3.075-3.146-4.578c0.025,1.544,0.053,3.087,0.078,4.631
						c-0.277,0.005-0.557,0.009-0.832,0.014c-0.033-2.028-0.068-4.059-0.102-6.087C48.161,38.821,48.456,38.815,48.751,38.81z"/>
					<path id="path9062" fill="#010101" d="M59.837,46.53c0.555-0.009,1.106-0.018,1.662-0.027c0.002,0.146,0.004,0.291,0.008,0.437
						c-0.766,0.013-1.529,0.025-2.296,0.039c-0.015-0.979,1.273-1.443,1.666-2.167c0.504-0.932-1.072-1.427-1.192-0.256
						c-0.18,0.024-0.248-0.066-0.436-0.032c-0.041-1.454,2.453-1.4,2.18,0.16C61.275,45.559,60.229,45.792,59.837,46.53z"/>
				</g>
			</g>
			<g id="XMLID_10_">
				<path id="path9065" opacity="0.6" fill="#FFFFFF" enable-background="new    " d="M35.412,81.358l-9.052,15.68l0.802,0.47
					l9.08-15.68L35.412,81.358z M53.932,113.438v-0.94h-18.1v0.94H53.932z M63.401,97.038l-9.05-15.68l-0.83,0.47l9.062,15.68
					L63.401,97.038z M66.252,97.258l-10.69,18.521H34.202l-10.69-18.521l10.69-18.5h21.358L66.252,97.258z"/>
				<polygon id="polygon9067" fill="#030303" points="67.321,97.258 56.122,116.718 55.562,115.778 66.252,97.258 				"/>
				<polygon id="polygon9069" fill="#030303" points="54.352,81.358 63.401,97.038 62.582,97.508 53.521,81.828 				"/>
				<polygon id="polygon9071" fill="#030303" points="56.122,77.818 67.321,97.258 66.252,97.258 55.562,78.758 				"/>
				<polygon id="polygon9073" fill="#030303" points="34.202,77.818 56.122,77.818 55.562,78.758 34.202,78.758 33.922,78.288 				
					"/>
				<rect id="rect9075" x="35.832" y="112.498" fill="#030303" width="18.1" height="0.94"/>
				<polygon id="polygon9077" fill="#030303" points="36.242,81.828 27.162,97.508 26.361,97.038 35.412,81.358 				"/>
				<polygon id="polygon9079" fill="#030303" points="55.562,115.778 56.122,116.718 33.642,116.718 34.202,115.778 				"/>
				<polygon id="polygon9081" fill="#030303" points="34.202,78.758 23.512,97.258 22.441,97.258 33.372,78.288 33.922,78.288 				
					"/>
				<polygon id="polygon9083" fill="#030303" points="23.512,59.328 34.202,77.818 33.922,78.288 33.372,78.288 22.441,59.328 				
					"/>
				<polygon id="polygon9085" fill="#030303" points="23.512,97.258 34.202,115.778 33.642,116.718 22.441,97.258 				"/>
			</g>
		</g>
	</g>
</g>
<g>
</g>
<g>
</g>
<g>
</g>
<g>
</g>
<g>
</g>
<g>
</g>
</svg>
