<?xml version="1.0" encoding="utf-8"?>
<!-- Generator: Adobe Illustrator 16.0.0, SVG Export Plug-In . SVG Version: 6.00 Build 0)  -->
<!DOCTYPE svg PUBLIC "-//W3C//DTD SVG 1.1//EN" "http://www.w3.org/Graphics/SVG/1.1/DTD/svg11.dtd">
<svg version="1.1" id="Layer_1" xmlns="http://www.w3.org/2000/svg" xmlns:xlink="http://www.w3.org/1999/xlink" x="0px" y="0px"
	 width="71.092px" height="80.231px" viewBox="14.538 59.798 71.092 80.231" enable-background="new 14.538 59.798 71.092 80.231"
	 xml:space="preserve">
<g id="g8288">
	<path id="polygon3_10_" fill="#000100" d="M51.486,105.816l-0.271,0.461l-0.488,0.055L39.918,87.623h1.061L51.486,105.816z"/>
	<path id="polygon11" fill="#000100" d="M40.979,87.623h-1.061l8.065-13.984l0.813,0.461L40.979,87.623z"/>
	<g id="g13" transform="matrix(0.95,0,0,0.95,3.88895,3.0121)">
		<path id="path15" fill="#000100" d="M16.423,93.776c-1.631,0-2.907-0.438-3.83-1.314c-0.922-0.876-1.384-2.007-1.384-3.392
			c0-0.906,0.217-1.724,0.651-2.452c0.432-0.728,1.037-1.283,1.811-1.666c0.775-0.381,1.655-0.573,2.638-0.573
			c0.995,0,1.886,0.203,2.674,0.603c0.785,0.402,1.381,0.972,1.786,1.709c0.404,0.737,0.608,1.534,0.608,2.386
			c0,0.925-0.224,1.752-0.67,2.479c-0.446,0.728-1.057,1.279-1.83,1.655C18.103,93.589,17.285,93.776,16.423,93.776z M16.439,92.436
			c1.183,0,2.118-0.319,2.797-0.956c0.682-0.635,1.022-1.435,1.022-2.395c0-0.98-0.343-1.784-1.032-2.417
			c-0.688-0.632-1.662-0.948-2.928-0.948c-0.799,0-1.497,0.135-2.094,0.405c-0.595,0.271-1.059,0.666-1.386,1.187
			c-0.328,0.519-0.492,1.105-0.492,1.752c0,0.919,0.317,1.713,0.948,2.377C13.906,92.105,14.961,92.436,16.439,92.436z"/>
	</g>
	<path id="rect17" fill="#000100" d="M25.418,89.715v-0.924h15.966v0.924H25.418z"/>
	<path id="rect19_10_" fill="#000100" d="M25.418,86.455v-0.923h15.966v0.923H25.418z"/>
	<g id="g8296">
		<g id="XMLID_13_">
			<polygon id="polygon8299" opacity="0.6" fill="#FFFFFF" enable-background="new    " points="74.93,109.26 74.95,109.26 
				74.95,111.49 74.08,111.76 78.561,125.641 61.99,138.891 46.33,127.51 51.54,106.74 67.32,106.74 67.32,105.82 68.85,105.82 
				68.85,109.26 70.04,109.26 70.04,101.93 			"/>
			<polygon id="polygon8301" fill="#000100" points="79.971,126.97 61.99,140.029 61.99,138.891 78.561,125.641 78.57,125.641 
				78.88,126.62 			"/>
			<polygon id="polygon8303" fill="#000100" points="79.971,126.97 78.88,126.62 78.57,125.641 			"/>
			<polygon id="polygon8305" fill="#000100" points="84.391,103.76 84.391,99.93 85.63,99.93 85.63,109.26 84.391,109.26 
				84.391,104.859 79.561,104.859 79.561,109.26 78.32,109.26 78.32,99.93 79.561,99.93 79.561,103.76 			"/>
			<polygon id="polygon8307" fill="#000100" points="74.95,111.49 79.971,126.97 78.57,125.641 78.561,125.641 74.08,111.76 			"/>
			<polygon id="polygon8309" fill="#000100" points="75.01,107.25 75.01,99.93 76.2,99.93 76.2,109.26 74.95,109.26 74.93,109.26 
				70.04,101.93 70.04,109.26 68.85,109.26 68.85,105.82 68.85,99.93 70.12,99.93 			"/>
			<polygon id="polygon8311" fill="#000100" points="51.49,105.82 67.32,105.82 67.32,106.74 51.54,106.74 51.21,106.28 			"/>
			<polygon id="polygon8313" fill="#000100" points="44.02,126.97 50.73,106.33 51.21,106.28 51.54,106.74 46.33,127.51 
				45.11,126.62 			"/>
			<polygon id="polygon8315" fill="#000100" points="45.11,126.62 46.33,127.51 44.02,126.97 			"/>
			<polygon id="polygon8317" fill="#000100" points="61.99,138.891 61.99,140.029 44.02,126.97 46.33,127.51 			"/>
		</g>
	</g>
	<g id="g8319">
		<path id="path8321" d="M50.548,73.252c-1.854-0.682-2.709-2.271-2.771-3.376c-0.114-2.003,1.604-4.569,3.686-4.868
			c2.262-0.324,4.571,1.572,4.543,3.824c-0.013,1.145-0.244,1.51-0.598,2.174c-0.732,1.386-1.57,1.873-1.915,2.067
			C52.762,73.483,51.741,73.689,50.548,73.252z M54.341,67.064c-3.141-3.737-8.278,3.531-3.483,5.227
			C53.598,73.26,55.956,68.99,54.341,67.064z"/>
		<path id="path8323" d="M44.196,69.607c0.56-0.977,1.121-1.954,1.682-2.932c-1-0.761-2.41-1.41-3.569-2.129
			c-0.632,0.774-1.153,1.964-1.742,2.897c-0.291,0.001-0.681-0.347-1.013-0.499c1.366-2.383,2.732-4.764,4.101-7.146
			c0.324,0.187,0.649,0.373,0.977,0.56c-0.631,1.101-1.262,2.198-1.893,3.3c1.223,0.699,2.444,1.4,3.666,2.102
			c0.631-1.1,1.261-2.199,1.891-3.299c0.326,0.187,0.653,0.375,0.979,0.561c-1.332,2.322-2.662,4.643-3.995,6.963
			C45.043,70.324,44.551,69.716,44.196,69.607z"/>
	</g>
</g>
</svg>
