<?xml version="1.0" encoding="utf-8"?>
<!-- Generator: Adobe Illustrator 16.0.0, SVG Export Plug-In . SVG Version: 6.00 Build 0)  -->
<!DOCTYPE svg PUBLIC "-//W3C//DTD SVG 1.1//EN" "http://www.w3.org/Graphics/SVG/1.1/DTD/svg11.dtd">
<svg version="1.1" id="Layer_1" xmlns="http://www.w3.org/2000/svg" xmlns:xlink="http://www.w3.org/1999/xlink" x="0px" y="0px"
	 width="100px" height="200px" viewBox="0 0 100 200" enable-background="new 0 0 100 200" xml:space="preserve">
<g id="g9493">
	<g id="g9495">
		<path id="polygon3_18_" fill="#000100" stroke="#262424" stroke-width="0.25" d="M43.27,114.866h-0.865l8.8-15.287h0.442
			l0.225,0.379L43.27,114.866z"/>
		<path id="polygon5_18_" fill="#000100" stroke="#262424" stroke-width="0.25" d="M51.87,99.201l-0.224,0.378h-0.443l-8.8-15.266
			h0.865L51.87,99.201z"/>
		<path id="polygon13_18_" fill="#000100" stroke="#262424" stroke-width="0.25" d="M43.27,84.313h-0.865l6.599-11.443l0.668,0.378
			L43.27,84.313z"/>
		<g id="g15_18_" transform="matrix(0.95,0,0,0.95,5.1188,3.0296)">
			<path id="path17_18_" fill="#000100" d="M21.65,89.419c-1.333,0-2.38-0.358-3.132-1.076c-0.756-0.715-1.133-1.642-1.133-2.774
				c0-0.742,0.177-1.411,0.53-2.008c0.356-0.595,0.849-1.05,1.483-1.362c0.633-0.313,1.355-0.47,2.158-0.47
				c0.815,0,1.544,0.165,2.19,0.494c0.641,0.329,1.13,0.795,1.461,1.398c0.33,0.603,0.495,1.255,0.495,1.953
				c0,0.757-0.183,1.433-0.549,2.03c-0.365,0.595-0.865,1.045-1.496,1.354C23.026,89.266,22.356,89.419,21.65,89.419z
				 M21.665,88.322c0.966,0,1.732-0.259,2.289-0.782c0.556-0.52,0.836-1.175,0.836-1.959c0-0.801-0.282-1.461-0.846-1.979
				c-0.561-0.517-1.36-0.776-2.394-0.776c-0.654,0-1.224,0.11-1.715,0.332c-0.486,0.221-0.865,0.545-1.134,0.971
				c-0.267,0.426-0.403,0.904-0.403,1.434c0,0.752,0.259,1.401,0.776,1.944C19.591,88.051,20.455,88.322,21.665,88.322z"/>
		</g>
		<path id="rect19_19_" fill="#000100" stroke="#262424" stroke-width="0.25" d="M30.538,86.025v-0.756h13.063v0.756H30.538z"/>
		<path id="rect21_18_" fill="#000100" stroke="#262424" stroke-width="0.25" d="M30.538,83.357v-0.754h13.063v0.754H30.538z"/>
		<path id="polygon33_18_" fill="#000100" stroke="#262424" stroke-width="0.25" d="M64.823,99.201v0.757H51.87l-0.224-0.379
			l0.224-0.378H64.823z"/>
		<path id="polygon35_14_" fill="#000100" stroke="#262424" stroke-width="0.25" d="M42.403,114.866h0.865l8.602,14.889
			l-0.445,0.755L42.403,114.866z"/>
		<polyline id="polyline9506" fill="#000100" points="43.27,114.866 44.103,116.309 51.87,99.958 		"/>
		<g id="g9508">
			<path id="path9510" d="M50.134,71.652c-1.608-0.591-2.35-1.97-2.403-2.928c-0.1-1.737,1.392-3.964,3.196-4.223
				c1.962-0.281,3.965,1.363,3.94,3.317c-0.012,0.993-0.213,1.31-0.52,1.886c-0.636,1.201-1.361,1.624-1.661,1.793
				C52.054,71.854,51.169,72.032,50.134,71.652z M53.424,66.286c-2.725-3.241-7.182,3.063-3.022,4.533
				C52.779,71.659,54.824,67.956,53.424,66.286z"/>
			<path id="path9512" d="M44.625,68.492c0.485-0.848,0.972-1.695,1.458-2.544c-0.867-0.659-2.09-1.223-3.096-1.846
				c-0.548,0.672-1.001,1.703-1.513,2.513c-0.253,0.001-0.59-0.301-0.878-0.433c1.187-2.067,2.37-4.132,3.557-6.198
				c0.281,0.161,0.563,0.323,0.848,0.485c-0.547,0.954-1.095,1.907-1.642,2.861c1.061,0.606,2.121,1.216,3.18,1.823
				c0.547-0.954,1.094-1.908,1.64-2.861c0.283,0.162,0.566,0.325,0.85,0.486c-1.155,2.014-2.31,4.027-3.465,6.04
				C45.359,69.114,44.933,68.586,44.625,68.492z"/>
		</g>
		<g id="g9514">
			<path id="path9516" fill="#FFFFFF" d="M66.079,95.678c0.04,2.381,0.08,4.765,0.119,7.146c0.324-0.006,0.649-0.011,0.976-0.019
				c-0.027-1.812-0.061-3.624-0.091-5.435c1.259,1.765,2.491,3.555,3.692,5.375c0.35-0.006,0.693-0.011,1.04-0.019
				c-0.038-2.38-0.078-4.762-0.118-7.145c-0.327,0.005-0.652,0.011-0.979,0.016c0.032,1.792,0.061,3.582,0.089,5.374
				c-1.256-1.741-2.453-3.548-3.689-5.313C66.77,95.666,66.424,95.672,66.079,95.678z"/>
			<path id="path9518" d="M73.641,95.663c0.016,0.957,0.033,1.912,0.05,2.869c1.102,0.124,2.465-0.021,3.666,0
				c0.127-0.857-0.017-1.976,0.01-2.934c0.316,0.025,0.756-0.077,0.979,0.045c0.037,2.344,0.076,4.685,0.117,7.023
				c-0.218,0.13-0.659,0.043-0.976,0.078c-0.021-1.12-0.039-2.24-0.059-3.359c-1.242,0.021-2.482,0.042-3.724,0.063
				c0.019,1.119,0.038,2.237,0.056,3.358c-0.315-0.024-0.758,0.077-0.979-0.045c-0.038-2.3-0.076-4.601-0.114-6.9
				C72.692,95.507,73.328,95.741,73.641,95.663z"/>
			<path id="path9520" d="M67.116,95.66c1.236,1.766,2.435,3.571,3.689,5.313c-0.028-1.792-0.057-3.582-0.089-5.374
				c0.327-0.005,0.652-0.011,0.979-0.016c0.04,2.383,0.08,4.765,0.118,7.145c-0.347,0.008-0.69,0.013-1.04,0.019
				c-1.201-1.82-2.435-3.61-3.692-5.375c0.03,1.811,0.063,3.623,0.091,5.435c-0.325,0.007-0.65,0.013-0.976,0.019
				c-0.039-2.382-0.079-4.766-0.119-7.146C66.424,95.672,66.77,95.666,67.116,95.66z"/>
			<path id="path9522" d="M80.127,104.722c0.65-0.011,1.3-0.021,1.95-0.032c0.002,0.171,0.005,0.341,0.01,0.512
				c-0.896,0.015-1.796,0.03-2.694,0.045c-0.017-1.146,1.497-1.694,1.955-2.541c0.593-1.094-1.258-1.677-1.399-0.303
				c-0.21,0.03-0.29-0.077-0.51-0.037c-0.05-1.707,2.878-1.645,2.558,0.188C81.815,103.581,80.586,103.854,80.127,104.722z"/>
		</g>
		<g id="g9524">
			<path id="path9526" fill="#262424" d="M48.928,137.462l1.086-0.095c0.052,0.435,0.17,0.792,0.357,1.07
				c0.187,0.277,0.479,0.504,0.875,0.676c0.395,0.172,0.84,0.258,1.334,0.258c0.438,0,0.826-0.064,1.162-0.195
				s0.586-0.31,0.75-0.536c0.164-0.228,0.246-0.476,0.246-0.743c0-0.273-0.078-0.513-0.236-0.716s-0.42-0.375-0.783-0.513
				c-0.233-0.091-0.75-0.232-1.547-0.424c-0.799-0.192-1.358-0.373-1.68-0.543c-0.414-0.217-0.723-0.487-0.928-0.811
				c-0.203-0.32-0.306-0.683-0.306-1.082c0-0.438,0.125-0.849,0.373-1.229c0.25-0.381,0.613-0.671,1.092-0.868
				c0.479-0.197,1.011-0.297,1.595-0.297c0.645,0,1.213,0.104,1.705,0.312c0.491,0.208,0.87,0.514,1.137,0.916
				c0.264,0.403,0.406,0.86,0.426,1.37l-1.102,0.083c-0.062-0.55-0.263-0.965-0.604-1.245s-0.846-0.421-1.514-0.421
				c-0.695,0-1.203,0.127-1.521,0.382c-0.317,0.256-0.477,0.563-0.477,0.923c0,0.313,0.11,0.568,0.338,0.771
				c0.221,0.201,0.799,0.408,1.734,0.619c0.934,0.212,1.575,0.396,1.924,0.555c0.506,0.233,0.879,0.528,1.121,0.887
				c0.239,0.357,0.36,0.771,0.36,1.235c0,0.463-0.133,0.898-0.397,1.309c-0.265,0.408-0.646,0.728-1.142,0.954
				c-0.496,0.228-1.055,0.342-1.676,0.342c-0.785,0-1.445-0.115-1.977-0.345c-0.531-0.229-0.949-0.573-1.252-1.034
				C49.104,138.564,48.943,138.043,48.928,137.462z"/>
			<path id="path9528" fill="#262424" d="M61.594,138.228l1.103,0.137c-0.175,0.645-0.496,1.145-0.968,1.5
				c-0.469,0.355-1.069,0.534-1.801,0.534c-0.922,0-1.651-0.284-2.19-0.853c-0.539-0.565-0.812-1.362-0.812-2.386
				c0-1.061,0.273-1.882,0.818-2.467c0.547-0.585,1.254-0.878,2.123-0.878c0.842,0,1.528,0.286,2.063,0.859
				c0.533,0.573,0.799,1.379,0.799,2.419c0,0.063-0.002,0.158-0.006,0.284h-4.694c0.039,0.692,0.233,1.222,0.588,1.589
				c0.352,0.368,0.789,0.552,1.315,0.552c0.392,0,0.726-0.103,1.002-0.309C61.211,139.006,61.432,138.678,61.594,138.228z
				 M58.088,136.502h3.519c-0.05-0.53-0.183-0.927-0.404-1.192c-0.34-0.41-0.781-0.615-1.322-0.615c-0.49,0-0.901,0.164-1.235,0.491
				C58.311,135.514,58.125,135.952,58.088,136.502z"/>
			<path id="path9530" fill="#262424" d="M64.207,140.255v-8.691h1.15v3.568h4.518v-3.568h1.15v8.691h-1.15v-4.097h-4.518v4.097
				H64.207z"/>
		</g>
	</g>
	<g id="g9532">
		<path id="path9534" fill="#262424" d="M18.529,61.905c0-0.372-0.013-0.671-0.023-0.947h0.467l0.031,0.498h0.012
			c0.209-0.354,0.558-0.558,1.031-0.558c0.707,0,1.235,0.594,1.235,1.469c0,1.043-0.643,1.559-1.325,1.559
			c-0.385,0-0.72-0.168-0.895-0.456H19.05v1.577h-0.521V61.905L18.529,61.905z M19.051,62.679c0,0.078,0.006,0.15,0.024,0.216
			c0.097,0.366,0.414,0.618,0.792,0.618c0.557,0,0.881-0.456,0.881-1.122c0-0.576-0.306-1.073-0.863-1.073
			c-0.358,0-0.701,0.252-0.797,0.647c-0.019,0.066-0.037,0.144-0.037,0.21V62.679z"/>
		<path id="path9536" fill="#262424" d="M21.961,59.818h0.522v1.949h0.019c0.107-0.156,0.215-0.3,0.317-0.432l1.234-1.518h0.647
			l-1.464,1.715l1.578,2.327h-0.618l-1.325-1.985l-0.39,0.444v1.541H21.96L21.961,59.818L21.961,59.818z"/>
		<path id="path9538" fill="#262424" d="M27.33,63.165c0,0.252,0.012,0.498,0.042,0.696h-0.474l-0.042-0.366h-0.02
			c-0.161,0.228-0.473,0.432-0.887,0.432c-0.588,0-0.889-0.414-0.889-0.833c0-0.702,0.624-1.085,1.745-1.08v-0.06
			c0-0.234-0.065-0.672-0.66-0.666c-0.274,0-0.557,0.078-0.762,0.216l-0.119-0.354c0.24-0.15,0.595-0.252,0.959-0.252
			c0.889,0,1.104,0.605,1.104,1.181L27.33,63.165L27.33,63.165z M26.82,62.379c-0.576-0.012-1.229,0.09-1.229,0.653
			c0,0.348,0.228,0.504,0.491,0.504c0.384,0,0.63-0.24,0.714-0.486c0.019-0.06,0.023-0.12,0.023-0.168L26.82,62.379L26.82,62.379z"
			/>
		<path id="path9540" fill="#262424" d="M30.433,60.454h-0.012l-0.678,0.366l-0.104-0.401l0.853-0.456h0.45v3.898h-0.511
			L30.433,60.454L30.433,60.454z"/>
		<path id="path9542" fill="#262424" d="M32.408,63.548c0-0.216,0.148-0.377,0.358-0.377c0.209,0,0.354,0.156,0.354,0.377
			c0,0.216-0.146,0.378-0.365,0.378C32.551,63.926,32.408,63.765,32.408,63.548z"/>
		<path id="path9544" fill="#262424" d="M33.914,63.489c0.113,0.012,0.246,0,0.426-0.018c0.305-0.042,0.594-0.162,0.814-0.378
			c0.258-0.234,0.443-0.576,0.516-1.031h-0.018c-0.217,0.264-0.527,0.414-0.925,0.414c-0.694,0-1.145-0.528-1.145-1.193
			c0-0.738,0.533-1.385,1.331-1.385s1.289,0.642,1.289,1.649c0,0.852-0.288,1.452-0.671,1.823c-0.301,0.294-0.715,0.474-1.134,0.521
			c-0.192,0.03-0.36,0.036-0.485,0.03L33.914,63.489L33.914,63.489z M34.105,61.252c0,0.485,0.294,0.827,0.75,0.827
			c0.354,0,0.629-0.174,0.768-0.408c0.029-0.054,0.047-0.108,0.047-0.198c0-0.666-0.245-1.175-0.803-1.175
			C34.424,60.298,34.105,60.694,34.105,61.252z"/>
	</g>
	<g id="g9546">
		<path id="path9548" fill="#262424" d="M60.626,110.844c0-0.371-0.013-0.672-0.024-0.946h0.469l0.029,0.497h0.013
			c0.21-0.354,0.558-0.559,1.03-0.559c0.708,0,1.236,0.594,1.236,1.47c0,1.044-0.643,1.561-1.326,1.561
			c-0.384,0-0.719-0.168-0.893-0.456h-0.013v1.577h-0.521V110.844z M61.147,111.617c0,0.078,0.006,0.149,0.023,0.217
			c0.096,0.365,0.414,0.617,0.791,0.617c0.558,0,0.882-0.456,0.882-1.121c0-0.576-0.306-1.074-0.864-1.074
			c-0.358,0-0.7,0.252-0.797,0.648c-0.018,0.064-0.036,0.144-0.036,0.209L61.147,111.617L61.147,111.617z"/>
		<path id="path9550" fill="#262424" d="M64.058,108.757h0.522v1.949h0.018c0.107-0.155,0.217-0.3,0.318-0.432l1.234-1.519h0.647
			l-1.464,1.716l1.577,2.326h-0.617l-1.326-1.983l-0.389,0.442v1.541h-0.522L64.058,108.757L64.058,108.757z"/>
		<path id="path9552" fill="#262424" d="M69.426,112.104c0,0.253,0.014,0.498,0.043,0.695h-0.475l-0.041-0.365h-0.02
			c-0.16,0.229-0.474,0.433-0.888,0.433c-0.588,0-0.887-0.414-0.887-0.834c0-0.701,0.623-1.086,1.744-1.08v-0.06
			c0-0.233-0.065-0.672-0.659-0.666c-0.276,0-0.559,0.078-0.762,0.216l-0.12-0.354c0.239-0.148,0.594-0.252,0.959-0.252
			c0.889,0,1.104,0.605,1.104,1.182L69.426,112.104L69.426,112.104z M68.916,111.318c-0.575-0.014-1.229,0.09-1.229,0.651
			c0,0.35,0.229,0.504,0.492,0.504c0.383,0,0.629-0.238,0.713-0.484c0.019-0.061,0.023-0.12,0.023-0.168L68.916,111.318
			L68.916,111.318z"/>
		<path id="path9554" fill="#262424" d="M72.529,109.393h-0.013l-0.678,0.365l-0.103-0.399l0.852-0.457h0.45v3.897h-0.51
			L72.529,109.393L72.529,109.393z"/>
		<path id="path9556" fill="#262424" d="M77.059,110.809c0,1.324-0.498,2.058-1.354,2.058c-0.762,0-1.283-0.714-1.295-2.004
			c0-1.313,0.568-2.026,1.36-2.026C76.584,108.835,77.059,109.566,77.059,110.809z M74.941,110.867c0,1.014,0.313,1.59,0.791,1.59
			c0.533,0,0.792-0.63,0.792-1.625c0-0.959-0.239-1.59-0.792-1.59C75.277,109.242,74.941,109.807,74.941,110.867z"/>
	</g>
</g>
</svg>
