<?xml version="1.0" encoding="utf-8"?>
<!-- Generator: Adobe Illustrator 16.0.0, SVG Export Plug-In . SVG Version: 6.00 Build 0)  -->
<!DOCTYPE svg PUBLIC "-//W3C//DTD SVG 1.1//EN" "http://www.w3.org/Graphics/SVG/1.1/DTD/svg11.dtd">
<svg version="1.1" id="Layer_1" xmlns="http://www.w3.org/2000/svg" xmlns:xlink="http://www.w3.org/1999/xlink" x="0px" y="0px"
	 width="69.696px" height="92.648px" viewBox="15.455 53.859 69.696 92.648" enable-background="new 15.455 53.859 69.696 92.648"
	 xml:space="preserve">
<g id="g7989">
	<path id="polygon3_4_" fill="#000100" stroke="#262424" stroke-width="0.25" d="M40.396,117.136h-0.999l10.146-17.625h0.512
		l0.257,0.438L40.396,117.136z"/>
	<path id="polygon5_4_" fill="#000100" stroke="#262424" stroke-width="0.25" d="M50.312,99.075l-0.257,0.436h-0.512L39.397,81.91
		h0.999L50.312,99.075z"/>
	<path id="polygon13_4_" fill="#000100" stroke="#262424" stroke-width="0.25" d="M40.396,81.91h-0.999l7.609-13.193l0.769,0.436
		L40.396,81.91z"/>
	<g id="g15_4_" transform="matrix(0.95,0,0,0.95,5.1188,3.0296)">
		<path id="path17_4_" fill="#000100" d="M15.797,87.479c-1.538,0-2.743-0.411-3.613-1.241c-0.87-0.825-1.304-1.892-1.304-3.199
			c0-0.855,0.204-1.628,0.613-2.314c0.408-0.687,0.979-1.21,1.71-1.571c0.73-0.361,1.561-0.541,2.488-0.541
			c0.94,0,1.78,0.19,2.522,0.569c0.742,0.379,1.303,0.916,1.685,1.612c0.38,0.695,0.572,1.446,0.572,2.251
			c0,0.872-0.211,1.652-0.632,2.34c-0.421,0.687-0.997,1.206-1.726,1.562C17.382,87.302,16.61,87.479,15.797,87.479z M15.812,86.215
			c1.115,0,1.996-0.3,2.639-0.9c0.641-0.6,0.964-1.355,0.964-2.26c0-0.923-0.324-1.684-0.975-2.281
			c-0.649-0.596-1.569-0.895-2.762-0.895c-0.753,0-1.412,0.127-1.975,0.382c-0.562,0.254-0.998,0.629-1.308,1.12
			c-0.308,0.491-0.465,1.042-0.465,1.653c0,0.868,0.299,1.616,0.894,2.242C13.421,85.902,14.418,86.215,15.812,86.215z"/>
	</g>
	<path id="rect19_4_" fill="#000100" stroke="#262424" stroke-width="0.25" d="M25.718,83.883v-0.871H40.78v0.871H25.718z"/>
	<path id="rect21_4_" fill="#000100" stroke="#262424" stroke-width="0.25" d="M25.718,80.809v-0.87H40.78v0.87H25.718z"/>
	<path id="polygon33_4_" fill="#000100" stroke="#262424" stroke-width="0.25" d="M65.247,99.075v0.872H50.312l-0.257-0.438
		l0.257-0.436L65.247,99.075L65.247,99.075z"/>
	<path id="polygon35_4_" fill="#000100" stroke="#262424" stroke-width="0.25" d="M39.397,117.136h0.999l9.916,17.165l-0.513,0.871
		L39.397,117.136z"/>
	<polyline id="polyline8000" fill="#000100" points="40.396,117.136 41.357,118.798 50.312,99.947 	"/>
	<g id="g8002">
		<path id="path8004" d="M48.311,67.313c-1.855-0.681-2.708-2.271-2.772-3.375c-0.114-2.002,1.605-4.57,3.686-4.868
			c2.261-0.324,4.572,1.572,4.542,3.825c-0.014,1.145-0.244,1.509-0.599,2.174c-0.731,1.385-1.569,1.873-1.915,2.067
			C50.523,67.545,49.504,67.751,48.311,67.313z M52.104,61.126c-3.141-3.737-8.277,3.532-3.484,5.227
			C51.359,67.321,53.719,63.052,52.104,61.126z"/>
		<path id="path8006" d="M41.958,63.669c0.56-0.977,1.122-1.955,1.682-2.933c-1-0.76-2.41-1.41-3.569-2.128
			c-0.632,0.774-1.154,1.963-1.743,2.897c-0.291,0.001-0.679-0.347-1.012-0.5c1.366-2.383,2.732-4.764,4.099-7.146
			c0.326,0.187,0.651,0.373,0.977,0.56c-0.631,1.1-1.262,2.199-1.893,3.299c1.222,0.699,2.445,1.401,3.666,2.102
			c0.63-1.1,1.261-2.199,1.891-3.299c0.325,0.187,0.653,0.375,0.978,0.561c-1.332,2.322-2.663,4.643-3.995,6.963
			C42.806,64.386,42.313,63.777,41.958,63.669z"/>
	</g>
	<g id="g8008">
		<path id="path8010" fill="#FFFFFF" d="M66.693,95.013c0.047,2.745,0.094,5.492,0.139,8.238c0.372-0.007,0.75-0.013,1.125-0.021
			c-0.034-2.09-0.07-4.18-0.105-6.268c1.451,2.034,2.873,4.1,4.258,6.197c0.402-0.008,0.801-0.014,1.199-0.021
			c-0.045-2.743-0.091-5.489-0.137-8.236c-0.377,0.006-0.752,0.013-1.128,0.019c0.037,2.065,0.067,4.13,0.103,6.195
			c-1.448-2.009-2.83-4.091-4.256-6.126C67.491,94.999,67.091,95.006,66.693,95.013z"/>
		<path id="path8012" d="M75.412,94.995c0.018,1.104,0.039,2.205,0.056,3.309c1.271,0.144,2.843-0.022,4.228,0
			c0.146-0.988-0.019-2.275,0.013-3.381c0.365,0.029,0.871-0.09,1.129,0.052c0.042,2.7,0.088,5.399,0.136,8.098
			c-0.25,0.149-0.761,0.05-1.125,0.091c-0.021-1.292-0.047-2.583-0.068-3.873c-1.43,0.022-2.861,0.048-4.291,0.071
			c0.021,1.291,0.043,2.582,0.063,3.873c-0.364-0.027-0.872,0.091-1.128-0.053c-0.043-2.649-0.088-5.304-0.132-7.956
			C74.318,94.815,75.052,95.086,75.412,94.995z"/>
		<path id="path8014" d="M67.891,94.992c1.426,2.035,2.808,4.117,4.256,6.126c-0.035-2.065-0.064-4.13-0.103-6.195
			c0.376-0.006,0.751-0.013,1.128-0.019c0.046,2.747,0.092,5.493,0.137,8.237c-0.397,0.008-0.795,0.015-1.199,0.021
			c-1.385-2.101-2.807-4.163-4.258-6.197c0.035,2.088,0.072,4.177,0.105,6.267c-0.375,0.009-0.753,0.015-1.125,0.021
			c-0.045-2.746-0.092-5.493-0.139-8.238C67.091,95.006,67.491,94.999,67.891,94.992z"/>
		<path id="path8016" d="M82.891,105.439c0.75-0.015,1.5-0.025,2.25-0.039c0.002,0.195,0.004,0.394,0.01,0.591
			c-1.034,0.017-2.069,0.034-3.105,0.052c-0.02-1.322,1.727-1.953,2.254-2.93c0.684-1.262-1.449-1.934-1.613-0.35
			c-0.242,0.035-0.334-0.091-0.588-0.044c-0.057-1.969,3.317-1.896,2.949,0.22C84.837,104.124,83.42,104.439,82.891,105.439z"/>
	</g>
	<g id="g8018">
		<path id="path8020" d="M51.67,146.469c-1.731,0.2-3.282-0.42-4.114-1.27c-1.881-1.924-1.855-6.652,0.746-8.301
			c1.671-1.061,4.38-1.104,6.058,0.521c2.834,2.748,1.414,8.782-2.541,9.048C51.77,146.471,51.719,146.463,51.67,146.469z
			 M53.764,144.074c1.438-1.99,0.551-5.694-1.349-6.504c-1.515-0.646-3.448-0.036-4.262,1.271c-0.856,1.376-0.71,3.688-0.074,4.859
			c0.572,1.054,1.861,1.793,3.44,1.571C52.664,145.109,53.316,144.693,53.764,144.074z"/>
		<path id="path8022" d="M62.959,146.402c0-1.37-0.001-2.742-0.001-4.113c-1.72,0.002-3.44,0.002-5.16,0.002
			c-0.007,1.082,0.007,2.782,0.002,4.111c-0.321,0.123-1.1,0.123-1.421,0c-0.001-3.314-0.002-6.629-0.003-9.943
			c0.321-0.12,1.101-0.12,1.421-0.001c-0.048,1.521,0.1,3.239-0.072,4.636c1.744,0,3.488,0,5.233,0c0-1.57,0-3.14-0.001-4.711
			c0.449,0,0.898,0,1.348-0.001c0,3.292,0,6.579,0.002,9.871C64.252,146.667,63.243,146.463,62.959,146.402z"/>
	</g>
</g>
</svg>
