<?xml version="1.0" encoding="utf-8"?>
<!-- Generator: Adobe Illustrator 16.0.0, SVG Export Plug-In . SVG Version: 6.00 Build 0)  -->
<!DOCTYPE svg PUBLIC "-//W3C//DTD SVG 1.1//EN" "http://www.w3.org/Graphics/SVG/1.1/DTD/svg11.dtd">
<svg version="1.1" id="Layer_1" xmlns="http://www.w3.org/2000/svg" xmlns:xlink="http://www.w3.org/1999/xlink" x="0px" y="0px"
	 width="78.787px" height="81.56px" viewBox="10.567 58.859 78.787 81.56" enable-background="new 10.567 58.859 78.787 81.56"
	 xml:space="preserve">
<g id="g8024">
	<path id="polygon3_6_" fill="#000100" stroke="#262424" stroke-width="0.25" d="M44.6,122.136h-0.999l10.146-17.625h0.512
		l0.257,0.438L44.6,122.136z"/>
	<path id="polygon5_6_" fill="#000100" stroke="#262424" stroke-width="0.25" d="M54.516,104.075l-0.257,0.436h-0.512L43.601,86.91
		H44.6L54.516,104.075z"/>
	<path id="polygon13_6_" fill="#000100" stroke="#262424" stroke-width="0.25" d="M44.6,86.91h-0.999l7.609-13.192l0.769,0.436
		L44.6,86.91z"/>
	<g id="g15_6_" transform="matrix(0.95,0,0,0.95,5.1188,3.0296)">
		<path id="path17_6_" fill="#000100" d="M20.221,92.743c-1.538,0-2.743-0.412-3.613-1.241c-0.87-0.826-1.305-1.893-1.305-3.199
			c0-0.855,0.204-1.627,0.613-2.313c0.408-0.689,0.979-1.212,1.709-1.572c0.73-0.361,1.561-0.542,2.488-0.542
			c0.94,0,1.78,0.19,2.522,0.57c0.742,0.378,1.303,0.916,1.685,1.611c0.38,0.697,0.572,1.447,0.572,2.253
			c0,0.872-0.211,1.651-0.632,2.339c-0.422,0.688-0.997,1.207-1.726,1.561C21.806,92.566,21.035,92.743,20.221,92.743z
			 M20.238,91.48c1.115,0,1.996-0.3,2.639-0.903c0.641-0.6,0.963-1.355,0.963-2.26c0-0.924-0.324-1.684-0.974-2.281
			c-0.649-0.596-1.569-0.894-2.762-0.894c-0.753,0-1.412,0.126-1.975,0.382c-0.562,0.255-0.998,0.629-1.308,1.12
			c-0.308,0.491-0.465,1.041-0.465,1.653c0,0.869,0.299,1.616,0.894,2.241C17.846,91.165,18.843,91.48,20.238,91.48z"/>
	</g>
	<path id="rect19_6_" fill="#000100" stroke="#262424" stroke-width="0.25" d="M29.921,88.884v-0.871h15.063v0.871H29.921z"/>
	<path id="rect21_6_" fill="#000100" stroke="#262424" stroke-width="0.25" d="M29.921,85.81v-0.871h15.063v0.871H29.921z"/>
	<path id="polygon33_6_" fill="#000100" stroke="#262424" stroke-width="0.25" d="M69.45,104.075v0.87H54.516l-0.258-0.437
		l0.258-0.436L69.45,104.075L69.45,104.075z"/>
	<path id="polygon35_5_" fill="#000100" stroke="#262424" stroke-width="0.25" d="M43.601,122.136H44.6l9.916,17.164l-0.513,0.871
		L43.601,122.136z"/>
	<polyline id="polyline8035" fill="#000100" points="44.6,122.136 45.561,123.798 54.516,104.945 	"/>
	<g id="g8037">
		<path id="path8039" d="M52.514,72.313c-1.854-0.681-2.708-2.271-2.771-3.375c-0.114-2.002,1.604-4.57,3.687-4.868
			c2.262-0.324,4.571,1.572,4.543,3.824c-0.014,1.145-0.244,1.51-0.599,2.174c-0.731,1.386-1.569,1.873-1.915,2.067
			C54.729,72.545,53.708,72.751,52.514,72.313z M56.307,66.126c-3.14-3.738-8.278,3.531-3.483,5.227
			C55.562,72.322,57.922,68.052,56.307,66.126z"/>
		<path id="path8041" d="M46.162,68.67c0.56-0.978,1.122-1.955,1.682-2.933c-1-0.761-2.409-1.411-3.569-2.128
			c-0.632,0.774-1.154,1.963-1.743,2.896c-0.291,0.001-0.679-0.347-1.012-0.5c1.366-2.382,2.732-4.763,4.099-7.146
			c0.326,0.187,0.651,0.373,0.978,0.56c-0.631,1.1-1.263,2.199-1.893,3.299c1.222,0.699,2.445,1.401,3.666,2.102
			c0.63-1.099,1.261-2.199,1.891-3.298c0.325,0.187,0.653,0.375,0.977,0.561c-1.331,2.322-2.662,4.643-3.994,6.964
			C47.009,69.386,46.517,68.777,46.162,68.67z"/>
	</g>
	<g id="g8043">
		<path id="path8045" fill="#FFFFFF" d="M70.898,100.013c0.045,2.746,0.092,5.492,0.138,8.238c0.373-0.008,0.75-0.015,1.125-0.021
			c-0.034-2.09-0.071-4.179-0.104-6.267c1.45,2.033,2.873,4.097,4.258,6.195c0.401-0.007,0.8-0.013,1.197-0.021
			c-0.044-2.744-0.09-5.49-0.136-8.238c-0.377,0.006-0.752,0.014-1.128,0.02c0.036,2.063,0.068,4.131,0.102,6.195
			c-1.447-2.011-2.828-4.093-4.256-6.127C71.693,99.999,71.294,100.005,70.898,100.013z"/>
		<path id="path8047" d="M79.616,99.995c0.018,1.104,0.038,2.205,0.056,3.31c1.271,0.144,2.844-0.022,4.227,0
			c0.146-0.988-0.018-2.277,0.014-3.382c0.363,0.029,0.871-0.09,1.129,0.051c0.042,2.701,0.088,5.4,0.134,8.099
			c-0.25,0.149-0.759,0.049-1.125,0.09c-0.021-1.291-0.045-2.582-0.065-3.873c-1.433,0.024-2.862,0.049-4.293,0.071
			c0.021,1.291,0.045,2.58,0.063,3.873c-0.364-0.026-0.873,0.091-1.128-0.053c-0.043-2.649-0.088-5.304-0.132-7.956
			C78.523,99.815,79.255,100.085,79.616,99.995z"/>
		<path id="path8049" d="M72.093,99.991c1.427,2.034,2.808,4.116,4.257,6.127c-0.033-2.063-0.064-4.132-0.103-6.195
			c0.376-0.006,0.751-0.014,1.128-0.02c0.046,2.748,0.092,5.494,0.137,8.238c-0.398,0.008-0.796,0.015-1.199,0.021
			c-1.385-2.101-2.807-4.162-4.258-6.195c0.035,2.089,0.072,4.177,0.105,6.267c-0.375,0.007-0.753,0.013-1.125,0.021
			c-0.045-2.746-0.092-5.492-0.139-8.238C71.294,100.005,71.693,99.999,72.093,99.991z"/>
		<path id="path8051" d="M87.094,110.438c0.752-0.012,1.5-0.023,2.25-0.035c0.002,0.193,0.006,0.393,0.01,0.59
			c-1.035,0.018-2.068,0.035-3.104,0.051c-0.021-1.322,1.728-1.953,2.254-2.93c0.683-1.262-1.45-1.934-1.612-0.35
			c-0.244,0.035-0.336-0.09-0.59-0.043c-0.056-1.969,3.318-1.896,2.95,0.219C89.041,109.124,87.624,109.439,87.094,110.438z"/>
	</g>
	<g id="g8053">
		<path id="path8055" d="M24.461,127.066c-1.731,0.199-3.282-0.42-4.114-1.271c-1.881-1.924-1.855-6.653,0.746-8.301
			c1.671-1.06,4.38-1.104,6.057,0.521c2.835,2.748,1.414,8.783-2.541,9.051C24.561,127.068,24.51,127.063,24.461,127.066z
			 M26.554,124.673c1.437-1.989,0.551-5.694-1.348-6.504c-1.515-0.646-3.448-0.037-4.262,1.271c-0.856,1.377-0.71,3.688-0.074,4.858
			c0.572,1.056,1.861,1.793,3.44,1.572C25.455,125.708,26.108,125.292,26.554,124.673z"/>
		<path id="path8057" d="M17.15,127.001c0-1.371-0.001-2.742-0.001-4.112c-1.72,0.002-3.44,0.002-5.16,0.002
			c-0.007,1.082,0.007,2.78,0.001,4.11c-0.322,0.123-1.099,0.123-1.421,0c-0.001-3.313-0.001-6.629-0.002-9.942
			c0.321-0.121,1.099-0.121,1.421-0.002c-0.049,1.521,0.099,3.239-0.074,4.637c1.745,0,3.489,0,5.234,0c0-1.571,0-3.142-0.001-4.711
			c0.449,0,0.898,0,1.347-0.002c0,3.293,0.001,6.58,0.002,9.871C18.443,127.266,17.434,127.063,17.15,127.001z"/>
	</g>
	<polygon id="polygon8059" fill="#030505" points="46.391,122.136 30.567,120.95 30.567,123.195 	"/>
</g>
</svg>
