<?xml version="1.0" encoding="utf-8"?>
<!-- Generator: Adobe Illustrator 16.0.0, SVG Export Plug-In . SVG Version: 6.00 Build 0)  -->
<!DOCTYPE svg PUBLIC "-//W3C//DTD SVG 1.1//EN" "http://www.w3.org/Graphics/SVG/1.1/DTD/svg11.dtd">
<svg version="1.1" id="Layer_1" xmlns="http://www.w3.org/2000/svg" xmlns:xlink="http://www.w3.org/1999/xlink" x="0px" y="0px"
	 width="73.551px" height="146.704px" viewBox="0 0 73.551 146.704" enable-background="new 0 0 73.551 146.704"
	 xml:space="preserve">
<g id="g9087">
	<g id="g9139">
		<path id="path9141" opacity="0.6" fill="#FFFFFF" enable-background="new    " d="M60.366,95.752c0.09,0.39,0.13,1.2,0.64,1.29
			l-0.568,2c-1.33,2.41-2.66,4.818-3.99,7.229c0.33,0.182,0.66,0.37,1,0.55l-1.27,1.61c-0.57,0-1.04,0.48-1.48,0.75
			c-3.71,2.29-7.51,4.64-11.29,6.63c-5.47-4.84-11.188-9.6-16.53-14.47c2.932-6.92,5.67-13.21,8.61-20.311
			c7.31,0.631,14.66,1.341,21.95,1.881C58.387,87.012,59.506,91.622,60.366,95.752z"/>
		<path id="path9143" opacity="0.6" fill="#FFFFFF" enable-background="new    " d="M26.406,101.715
			c5.51,4.83,11.08,9.63,16.66,14.43c-1.3,7.26-2.88,14.59-4.09,21.82c-7.03,2.51-14.051,5.01-21.141,7.29
			c-5.66-4.82-11.199-9.682-16.819-14.521c1.42-7.238,2.83-14.479,4.13-21.688C12.187,106.455,19.246,103.925,26.406,101.715z"/>
		<path id="polygon3_13_" fill="#030303" stroke="#262524" stroke-width="0.25" d="M23.246,58.847h-0.929l9.436-16.392h0.476
			l0.24,0.405L23.246,58.847z"/>
		<path id="polygon5_13_" fill="#030303" stroke="#262524" stroke-width="0.25" d="M32.468,42.05l-0.24,0.405h-0.476l-9.436-16.368
			h0.929L32.468,42.05z"/>
		<path id="polygon13_13_" fill="#030303" stroke="#262524" stroke-width="0.25" d="M23.246,26.087h-0.929l7.075-12.271l0.716,0.405
			L23.246,26.087z"/>
		<g id="g15_13_" transform="matrix(0.95,0,0,0.95,5.1188,3.0296)">
			<path id="path17_13_" fill="#030303" d="M-0.763,28.406c-1.431,0-2.549-0.383-3.358-1.154c-0.809-0.768-1.214-1.76-1.214-2.975
				c0-0.796,0.189-1.513,0.568-2.15c0.381-0.64,0.91-1.127,1.59-1.462c0.679-0.335,1.454-0.505,2.315-0.505
				c0.874,0,1.655,0.178,2.346,0.53c0.689,0.353,1.211,0.852,1.568,1.5c0.354,0.647,0.53,1.345,0.53,2.094
				c0,0.811-0.196,1.536-0.588,2.176c-0.392,0.637-0.927,1.122-1.605,1.453C0.711,28.242-0.007,28.406-0.763,28.406z M-0.748,27.23
				c1.036,0,1.856-0.28,2.454-0.839c0.596-0.558,0.896-1.26,0.896-2.101c0-0.858-0.302-1.567-0.908-2.123
				c-0.602-0.553-1.459-0.833-2.568-0.833c-0.701,0-1.314,0.119-1.838,0.356c-0.522,0.237-0.927,0.586-1.215,1.042
				c-0.288,0.457-0.433,0.969-0.433,1.537c0,0.807,0.278,1.503,0.832,2.087C-2.971,26.938-2.045,27.23-0.748,27.23z"/>
		</g>
		<path id="rect19_14_" fill="#030303" stroke="#262524" stroke-width="0.25" d="M9.595,27.922V27.11h14.008v0.812H9.595z"/>
		<path id="rect21_13_" fill="#030303" stroke="#262524" stroke-width="0.25" d="M9.595,25.062v-0.809h14.008v0.809H9.595z"/>
		<path id="polygon33_14_" fill="#030303" stroke="#262524" stroke-width="0.25" d="M46.356,42.05v0.812H32.468l-0.24-0.405
			l0.24-0.405L46.356,42.05L46.356,42.05z"/>
		<polyline id="polyline9153" fill="#030303" points="22.041,58.847 24.14,60.392 32.468,42.861 		"/>
		<g id="g9155">
			<path id="path9157" fill="#010101" d="M30.606,12.512c-1.728-0.634-2.521-2.112-2.578-3.14c-0.104-1.863,1.492-4.25,3.428-4.527
				c2.104-0.302,4.252,1.462,4.226,3.557c-0.013,1.064-0.229,1.403-0.556,2.021c-0.682,1.288-1.461,1.742-1.78,1.923
				C32.665,12.727,31.715,12.918,30.606,12.512z M34.133,6.757c-2.921-3.477-7.699,3.284-3.241,4.861
				C33.442,12.519,35.636,8.548,34.133,6.757z"/>
			<path id="path9159" fill="#010101" d="M24.699,9.122c0.521-0.908,1.042-1.817,1.563-2.728c-0.931-0.707-2.241-1.312-3.318-1.979
				c-0.588,0.72-1.074,1.826-1.622,2.693c-0.271,0.001-0.632-0.321-0.939-0.464C21.653,4.43,22.924,2.215,24.195,0
				c0.303,0.174,0.604,0.347,0.908,0.521c-0.587,1.023-1.174,2.044-1.76,3.068c1.137,0.65,2.272,1.303,3.407,1.955
				c0.589-1.022,1.175-2.046,1.76-3.068c0.304,0.174,0.607,0.35,0.909,0.521c-1.238,2.16-2.476,4.316-3.716,6.476
				C25.487,9.789,25.028,9.223,24.699,9.122z"/>
		</g>
		<g id="g9161">
			<path id="path9163" fill="#FFFFFF" d="M47.917,38.826c0.034,2.027,0.068,4.059,0.103,6.087c0.275-0.006,0.555-0.01,0.832-0.015
				c-0.025-1.544-0.053-3.087-0.078-4.631c1.072,1.503,2.123,3.027,3.146,4.578c0.298-0.003,0.593-0.009,0.887-0.014
				c-0.033-2.029-0.067-4.059-0.102-6.087c-0.278,0.004-0.557,0.008-0.834,0.014c0.027,1.525,0.051,3.053,0.075,4.578
				c-1.07-1.484-2.091-3.023-3.145-4.528C48.505,38.815,48.21,38.821,47.917,38.826z"/>
			<path id="path9165" fill="#010101" d="M54.36,38.812c0.012,0.815,0.027,1.63,0.041,2.446c0.938,0.104,2.101-0.02,3.123,0
				c0.106-0.731-0.012-1.684,0.01-2.499c0.271,0.021,0.644-0.067,0.834,0.037c0.031,1.995,0.064,3.99,0.101,5.983
				c-0.187,0.111-0.563,0.036-0.832,0.065c-0.017-0.953-0.033-1.907-0.05-2.861c-1.057,0.019-2.114,0.035-3.172,0.054
				c0.017,0.953,0.032,1.907,0.047,2.861c-0.27-0.021-0.645,0.067-0.833-0.037c-0.031-1.96-0.064-3.921-0.098-5.88
				C53.552,38.68,54.093,38.88,54.36,38.812z"/>
			<path id="path9167" fill="#010101" d="M48.801,38.81c1.054,1.505,2.073,3.044,3.145,4.528c-0.023-1.525-0.048-3.053-0.075-4.578
				c0.277-0.006,0.556-0.01,0.834-0.014c0.033,2.028,0.067,4.058,0.102,6.087c-0.294,0.005-0.589,0.011-0.887,0.014
				c-1.022-1.551-2.073-3.075-3.146-4.578c0.026,1.544,0.053,3.087,0.078,4.631c-0.277,0.005-0.557,0.01-0.832,0.015
				c-0.033-2.028-0.067-4.06-0.103-6.087C48.21,38.821,48.505,38.815,48.801,38.81z"/>
			<path id="path9169" fill="#010101" d="M59.886,46.53c0.555-0.009,1.107-0.018,1.661-0.026c0.002,0.146,0.005,0.291,0.009,0.436
				c-0.766,0.014-1.529,0.025-2.295,0.039c-0.015-0.978,1.273-1.442,1.666-2.167c0.504-0.931-1.072-1.427-1.193-0.256
				c-0.18,0.025-0.248-0.065-0.437-0.032c-0.039-1.454,2.453-1.399,2.182,0.16C61.325,45.559,60.278,45.792,59.886,46.53z"/>
		</g>
		<g id="g9171">
			<path id="path9173" fill="#FFFFFF" d="M37.492,84.407c5.928,0.433,11.938,1.146,17.83,1.456
				c-0.159-0.282,0.134-0.694-0.004-0.984c-5.931-0.367-11.977-1.12-17.876-1.371C37.57,83.777,37.364,84.14,37.492,84.407z"/>
			<path id="path9175" fill="#010101" d="M18.405,141.864c5.917-2.191,11.91-4.139,17.847-6.271c0.194,0.294,0.15,0.658,0.346,0.953
				c-5.909,2.153-11.896,4.032-17.804,6.188C18.465,142.502,18.629,142.128,18.405,141.864z"/>
			<path id="path9177" fill="#010101" d="M3.992,129.876c0.198-3.086,1.05-6.192,1.663-9.326c0.608-3.104,1.109-6.229,1.746-9.279
				c0.315,0.044,0.649,0.142,0.973,0.212c-1.181,6.167-2.382,12.341-3.573,18.513C4.527,129.937,4.275,129.967,3.992,129.876z"/>
			<path id="path9179" fill="#010101" d="M25.354,105.602c0.232-0.244,0.455-0.528,0.71-0.697
				c4.747,4.105,9.588,8.186,14.228,12.324c-0.203,0.12-0.578,0.902-0.666,0.611C34.687,113.812,30.222,109.648,25.354,105.602z"/>
			<g id="XMLID_11_">
				<path id="path9182" fill="#010101" d="M70.661,108.793c0.479-0.852,1.25-2.271,1.851-3.341c0.289-0.021,0.699,0.33,1.039,0.479
					c-1.329,2.41-2.659,4.82-3.989,7.24c-0.311-0.222-0.83-0.37-0.97-0.63c0.56-0.91,1.05-2.092,1.659-2.842
					c-1.011-0.76-2.471-1.39-3.649-2.1c-0.641,0.79-1.141,2.021-1.729,2.979c-0.311-0.21-0.819-0.369-0.971-0.619
					c1.311-2.37,2.62-4.74,3.92-7.102c0.301-0.02,0.7,0.341,1.04,0.49c-0.609,1.11-1.229,2.229-1.85,3.34
					C68.021,107.452,69.48,108.082,70.661,108.793z"/>
				<path id="path9184" fill="#010101" d="M61.7,99.393c0.2,2.47,0.312,4.97,0.62,7.42c1-1.81,2-3.62,2.99-5.42
					c0.34,0.181,0.67,0.37,1.01,0.55c-1.33,2.41-2.659,4.82-3.989,7.23c-0.319-0.17-0.631-0.341-0.939-0.521
					c-0.431-2.438-0.391-5.02-0.761-7.489c-0.989,1.811-1.989,3.62-2.989,5.42c-0.341-0.181-0.67-0.369-1-0.55
					c1.33-2.41,2.659-4.819,3.989-7.229C60.98,99.003,61.34,99.192,61.7,99.393z"/>
				<path id="path9186" fill="#010101" d="M39.051,138.223c1.21-7.229,2.789-14.561,4.09-21.82c-5.58-4.8-11.15-9.6-16.66-14.43
					c-7.16,2.21-14.22,4.74-21.26,7.33c-1.301,7.21-2.71,14.45-4.13,21.689c5.619,4.84,11.159,9.699,16.819,14.521
					C25.001,143.232,32.021,140.732,39.051,138.223z M61.521,95.162c0.109,0.479,0.689,1.351-0.03,1.631
					c-0.109,0.028-0.21,0.028-0.29,0.01c-0.51-0.09-0.55-0.9-0.64-1.29c-0.86-4.13-1.979-8.74-2.931-12.84
					c-7.29-0.54-14.641-1.25-21.949-1.88c-2.94,7.1-5.681,13.39-8.61,20.31c5.341,4.87,11.061,9.63,16.53,14.47
					c3.78-1.989,7.58-4.34,11.29-6.63c0.439-0.27,0.91-0.75,1.479-0.75c0.04,0,0.09,0,0.13,0.011c0.021,0.189,0.21,0.42,0.229,0.561
					c0.069,0.54-2.33,1.6-2.939,1.97c-3.189,1.94-6.79,4.21-9.681,5.88c-1.311,7.45-2.96,14.99-4.199,22.42
					c-7.41,2.53-14.79,5.2-22.221,7.671C11.779,141.604,5.87,136.493,0,131.374c1.46-7.619,3.021-15.279,4.351-22.869
					c6.3-2.16,12.5-4.49,19.061-6.7c0.779-0.26,2.3-0.49,2.689-0.91c0.42-0.46,0.71-1.66,1.09-2.561
					c2.49-5.96,5.13-12.039,7.601-17.92c-4.069-7.091-8.551-14.051-12.62-21.141l0.859-0.24l2.051,3.312l1.319,2.1
					c3.05,5.09,6.12,10.32,9.189,15.32c7.631,0.72,15.24,1.39,22.811,1.91C59.511,85.963,60.48,90.692,61.521,95.162z"/>
			</g>
			<path id="path9188" fill="#010101" d="M37.442,83.508c5.899,0.251,11.945,1.004,17.876,1.371c0.138,0.29-0.155,0.702,0.004,0.984
				c-5.893-0.312-11.902-1.023-17.83-1.456C37.364,84.14,37.57,83.777,37.442,83.508z"/>
		</g>
	</g>
</g>
<g>
</g>
<g>
</g>
<g>
</g>
<g>
</g>
<g>
</g>
<g>
</g>
</svg>
