<?xml version="1.0" encoding="utf-8"?>
<!-- Generator: Adobe Illustrator 16.0.0, SVG Export Plug-In . SVG Version: 6.00 Build 0)  -->
<!DOCTYPE svg PUBLIC "-//W3C//DTD SVG 1.1//EN" "http://www.w3.org/Graphics/SVG/1.1/DTD/svg11.dtd">
<svg version="1.1" id="Layer_1" xmlns="http://www.w3.org/2000/svg" xmlns:xlink="http://www.w3.org/1999/xlink" x="0px" y="0px"
	 width="76.597px" height="138.271px" viewBox="0 0 76.597 138.271" enable-background="new 0 0 76.597 138.271"
	 xml:space="preserve">
<g id="g9222">
	<g id="g9270">
		<path id="polygon35_9_" fill="#030303" stroke="#262524" stroke-width="0.25" d="M55.099,115.844l0.612-0.404l7.689,13.313
			l-0.642,0.378L55.099,115.844z"/>
		<g id="g9305">
			<g id="g9307">
				<path id="polygon3_16_" fill="#030303" stroke="#262524" stroke-width="0.25" d="M23.196,58.847h-0.929l9.436-16.393h0.477
					l0.24,0.406L23.196,58.847z"/>
				<path id="polygon5_16_" fill="#030303" stroke="#262524" stroke-width="0.25" d="M32.419,42.051l-0.24,0.404h-0.477
					l-9.436-16.368h0.929L32.419,42.051z"/>
				<path id="polygon13_16_" fill="#030303" stroke="#262524" stroke-width="0.25" d="M23.196,26.087h-0.929l7.075-12.27
					l0.717,0.405L23.196,26.087z"/>
				<g id="g15_16_" transform="matrix(0.95,0,0,0.95,5.1188,3.0296)">
					<path id="path17_16_" fill="#030303" d="M-0.815,28.406c-1.431,0-2.55-0.382-3.358-1.153c-0.81-0.768-1.215-1.76-1.215-2.975
						c0-0.797,0.189-1.513,0.568-2.152c0.381-0.639,0.911-1.126,1.591-1.461c0.678-0.336,1.453-0.505,2.314-0.505
						c0.874,0,1.656,0.178,2.346,0.529c0.69,0.353,1.212,0.852,1.569,1.501c0.354,0.647,0.529,1.345,0.529,2.093
						c0,0.811-0.195,1.537-0.588,2.176c-0.392,0.638-0.927,1.123-1.604,1.454C0.659,28.242-0.058,28.406-0.815,28.406z M-0.8,27.23
						c1.036,0,1.856-0.279,2.455-0.839c0.596-0.558,0.895-1.26,0.895-2.101c0-0.857-0.301-1.566-0.907-2.122
						c-0.603-0.554-1.46-0.833-2.568-0.833c-0.701,0-1.314,0.118-1.838,0.356c-0.522,0.237-0.927,0.585-1.216,1.042
						c-0.287,0.456-0.433,0.968-0.433,1.537c0,0.807,0.279,1.503,0.833,2.086C-3.024,26.938-2.098,27.23-0.8,27.23z"/>
				</g>
				<path id="rect19_17_" fill="#030303" stroke="#262524" stroke-width="0.25" d="M9.546,27.922v-0.811h14.008v0.811H9.546z"/>
				<path id="rect21_16_" fill="#030303" stroke="#262524" stroke-width="0.25" d="M9.546,25.062v-0.81h14.008v0.81H9.546z"/>
				<path id="polygon33_10_" fill="#030303" stroke="#262524" stroke-width="0.25" d="M46.307,42.051v0.812H32.419l-0.24-0.406
					l0.24-0.405H46.307L46.307,42.051z"/>
				<polyline id="polyline9317" fill="#030303" points="21.991,58.847 24.091,60.392 32.419,42.861 				"/>
				<g id="g9319">
					<path id="path9321" fill="#010101" d="M30.557,12.512c-1.727-0.635-2.52-2.112-2.577-3.141
						c-0.105-1.863,1.492-4.25,3.428-4.526c2.104-0.303,4.251,1.462,4.226,3.557c-0.013,1.063-0.229,1.403-0.557,2.021
						c-0.681,1.288-1.46,1.742-1.78,1.924C32.616,12.727,31.667,12.918,30.557,12.512z M34.085,6.757
						c-2.923-3.476-7.701,3.284-3.242,4.861C33.394,12.519,35.587,8.548,34.085,6.757z"/>
					<path id="path9323" fill="#010101" d="M24.649,9.122c0.521-0.908,1.043-1.816,1.564-2.727
						c-0.931-0.707-2.242-1.313-3.319-1.979c-0.588,0.721-1.073,1.826-1.622,2.694c-0.27,0.001-0.631-0.322-0.939-0.464
						C21.604,4.431,22.874,2.215,24.146,0c0.302,0.174,0.604,0.348,0.908,0.521c-0.588,1.022-1.174,2.044-1.761,3.067
						c1.138,0.65,2.273,1.304,3.408,1.955c0.587-1.021,1.173-2.046,1.759-3.067c0.305,0.174,0.607,0.349,0.909,0.521
						c-1.237,2.16-2.475,4.317-3.715,6.477C25.437,9.789,24.979,9.223,24.649,9.122z"/>
				</g>
				<g id="g9325">
					<path id="path9327" fill="#FFFFFF" d="M47.868,38.826c0.033,2.028,0.068,4.06,0.103,6.087c0.274-0.005,0.555-0.009,0.832-0.014
						c-0.025-1.544-0.054-3.087-0.078-4.631c1.072,1.503,2.123,3.026,3.146,4.578c0.298-0.003,0.592-0.01,0.886-0.015
						c-0.033-2.028-0.066-4.058-0.102-6.087c-0.277,0.004-0.556,0.008-0.833,0.015c0.026,1.524,0.051,3.053,0.074,4.577
						c-1.07-1.483-2.09-3.022-3.145-4.527C48.456,38.815,48.161,38.821,47.868,38.826z"/>
					<path id="path9329" fill="#010101" d="M54.311,38.812c0.013,0.814,0.028,1.63,0.042,2.445c0.938,0.104,2.1-0.019,3.123,0
						c0.107-0.73-0.013-1.684,0.009-2.499c0.271,0.021,0.645-0.066,0.834,0.037c0.031,1.995,0.065,3.99,0.101,5.984
						c-0.187,0.111-0.563,0.036-0.831,0.065c-0.018-0.953-0.033-1.907-0.051-2.861c-1.057,0.018-2.113,0.035-3.171,0.053
						c0.016,0.954,0.031,1.908,0.047,2.862c-0.27-0.021-0.646,0.066-0.834-0.037c-0.03-1.96-0.063-3.921-0.098-5.88
						C53.503,38.68,54.044,38.88,54.311,38.812z"/>
					<path id="path9331" fill="#010101" d="M48.751,38.81c1.055,1.505,2.073,3.044,3.145,4.527
						c-0.023-1.524-0.048-3.053-0.074-4.577c0.277-0.007,0.556-0.011,0.833-0.015c0.034,2.029,0.067,4.059,0.102,6.087
						c-0.294,0.005-0.588,0.012-0.886,0.015c-1.022-1.552-2.073-3.075-3.146-4.578c0.025,1.544,0.053,3.087,0.078,4.631
						c-0.277,0.005-0.558,0.009-0.832,0.014c-0.033-2.028-0.068-4.059-0.103-6.087C48.161,38.821,48.456,38.815,48.751,38.81z"/>
					<path id="path9333" fill="#010101" d="M59.837,46.53c0.555-0.009,1.106-0.018,1.662-0.027c0.002,0.146,0.004,0.291,0.008,0.437
						c-0.767,0.013-1.529,0.024-2.296,0.039c-0.015-0.979,1.273-1.443,1.666-2.167c0.504-0.932-1.072-1.427-1.192-0.256
						c-0.18,0.024-0.248-0.066-0.436-0.032c-0.041-1.454,2.452-1.4,2.18,0.16C61.275,45.559,60.229,45.792,59.837,46.53z"/>
				</g>
			</g>
			<g id="XMLID_14_">
				<path id="path9336" opacity="0.6" fill="#FFFFFF" enable-background="new    " d="M35.412,81.358l-9.051,15.68l0.801,0.47
					l9.08-15.68L35.412,81.358z M53.932,113.438v-0.94H35.831v0.94H53.932z M63.401,97.038l-9.05-15.68l-0.83,0.47l9.062,15.68
					L63.401,97.038z M66.252,97.258l-10.69,18.521H34.202L23.513,97.258l10.689-18.5h21.359L66.252,97.258z"/>
				<polygon id="polygon9338" fill="#030303" points="67.321,97.258 56.122,116.719 55.562,115.778 66.252,97.258 				"/>
				<polygon id="polygon9340" fill="#030303" points="54.352,81.358 63.401,97.038 62.581,97.508 53.521,81.828 				"/>
				<polygon id="polygon9342" fill="#030303" points="56.122,77.818 67.321,97.258 66.252,97.258 55.562,78.758 				"/>
				<polygon id="polygon9344" fill="#030303" points="34.202,77.818 56.122,77.818 55.562,78.758 34.202,78.758 33.922,78.288 				
					"/>
				<rect id="rect9346" x="35.831" y="112.498" fill="#030303" width="18.101" height="0.94"/>
				<polygon id="polygon9348" fill="#030303" points="36.242,81.828 27.162,97.508 26.361,97.038 35.412,81.358 				"/>
				<polygon id="polygon9350" fill="#030303" points="55.562,115.778 56.122,116.719 33.642,116.719 34.202,115.778 				"/>
				<polygon id="polygon9352" fill="#030303" points="34.202,78.758 23.512,97.258 22.441,97.258 33.372,78.288 33.922,78.288 				
					"/>
				<polygon id="polygon9354" fill="#030303" points="23.512,59.328 34.202,77.818 33.922,78.288 33.372,78.288 22.441,59.328 				
					"/>
				<polygon id="polygon9356" fill="#030303" points="23.512,97.258 34.202,115.778 33.642,116.719 22.441,97.258 				"/>
			</g>
		</g>
		<g id="g9358">
			<path id="path9360" fill="#010101" d="M65.907,138.239c-1.464,0.169-2.774-0.354-3.479-1.074
				c-1.591-1.627-1.569-5.627,0.632-7.021c1.414-0.896,3.705-0.934,5.123,0.439c2.398,2.325,1.196,7.431-2.148,7.654
				C65.992,138.241,65.949,138.234,65.907,138.239z M67.679,136.214c1.215-1.684,0.466-4.816-1.141-5.502
				c-1.281-0.546-2.917-0.029-3.604,1.076c-0.726,1.164-0.603,3.119-0.063,4.11c0.483,0.892,1.574,1.518,2.909,1.33
				C66.749,137.09,67.301,136.738,67.679,136.214z"/>
			<path id="path9362" fill="#010101" d="M75.456,138.184c0-1.159-0.001-2.32-0.001-3.48c-1.453,0.002-2.909,0.002-4.364,0.002
				c-0.006,0.915,0.006,2.354,0.001,3.479c-0.271,0.104-0.931,0.104-1.201,0c-0.001-2.806-0.001-5.608-0.003-8.412
				c0.271-0.103,0.931-0.103,1.203-0.001c-0.042,1.287,0.083,2.74-0.063,3.922c1.478,0,2.953,0,4.43,0c0-1.329,0-2.656-0.003-3.985
				c0.381,0,0.761,0,1.141-0.001c0,2.785,0,5.565,0.002,8.352C76.551,138.407,75.697,138.234,75.456,138.184z"/>
		</g>
	</g>
</g>
<g>
</g>
<g>
</g>
<g>
</g>
<g>
</g>
<g>
</g>
<g>
</g>
</svg>
