<?xml version="1.0" encoding="utf-8"?>
<!-- Generator: Adobe Illustrator 16.0.0, SVG Export Plug-In . SVG Version: 6.00 Build 0)  -->
<!DOCTYPE svg PUBLIC "-//W3C//DTD SVG 1.1//EN" "http://www.w3.org/Graphics/SVG/1.1/DTD/svg11.dtd">
<svg version="1.1" id="Layer_1" xmlns="http://www.w3.org/2000/svg" xmlns:xlink="http://www.w3.org/1999/xlink" x="0px" y="0px"
	 width="64.778px" height="74.631px" viewBox="17.141 59.038 64.778 74.631" enable-background="new 17.141 59.038 64.778 74.631"
	 xml:space="preserve">
<g id="g9382">
	<g id="g9426">
		<g id="g9428">
			<g id="g15_17_" transform="matrix(0.95,0,0,0.95,6.389275,3.0296)">
				<path id="path17_17_" fill="#000100" d="M16.225,91.864c-1.536,0-2.738-0.41-3.607-1.237c-0.866-0.824-1.301-1.888-1.301-3.192
					c0-0.854,0.205-1.624,0.614-2.308c0.406-0.688,0.976-1.21,1.703-1.571c0.732-0.358,1.558-0.539,2.481-0.539
					c0.94,0,1.778,0.19,2.519,0.567c0.739,0.377,1.299,0.915,1.682,1.609c0.38,0.693,0.567,1.443,0.567,2.246
					c0,0.872-0.207,1.649-0.627,2.332c-0.424,0.689-0.997,1.206-1.725,1.559C17.805,91.689,17.036,91.864,16.225,91.864z
					 M16.238,90.602c1.116,0,1.994-0.298,2.634-0.896c0.641-0.599,0.96-1.354,0.96-2.256c0-0.92-0.325-1.68-0.968-2.275
					c-0.649-0.594-1.567-0.892-2.755-0.892c-0.755,0-1.412,0.127-1.974,0.38c-0.559,0.256-0.997,0.626-1.306,1.117
					c-0.306,0.49-0.463,1.039-0.463,1.651c0,0.865,0.298,1.612,0.894,2.236C13.855,90.292,14.848,90.602,16.238,90.602z"/>
			</g>
			<g id="g9432">
				<path id="polygon3_17_" fill="#000100" d="M42.026,121.23h-0.997l10.122-17.586h0.511l0.256,0.437L42.026,121.23z"/>
				<path id="polygon5_17_" fill="#000100" d="M51.917,103.212l-0.256,0.435H51.15l-10.122-17.56h0.997L51.917,103.212z"/>
				<path id="polygon13_17_" fill="#000100" d="M42.026,86.087h-0.997l7.591-13.162l0.766,0.435L42.026,86.087z"/>
				<path id="rect19_18_" fill="#000100" d="M27.381,88.056v-0.87h15.027v0.87H27.381z"/>
				<path id="rect21_17_" fill="#000100" d="M27.381,84.987v-0.868h15.027v0.868H27.381z"/>
				<path id="polygon33_17_" fill="#000100" d="M66.843,103.212v0.867H51.917l-0.256-0.435l0.256-0.435L66.843,103.212
					L66.843,103.212z"/>
				<path id="polygon35_12_" fill="#000100" d="M41.029,121.23h0.997l7.359,12.438h-1.188L41.029,121.23z"/>
				<path id="polygon37_4_" fill="#000100" d="M48.198,133.669h1.188"/>
				<path id="rect53_3_" fill="#000100" d="M26.452,121.795v-0.869h15.027v0.869H26.452z"/>
				<polyline id="polyline9443" fill="#000100" points="42.026,121.23 42.805,122.578 51.917,104.081 				"/>
			</g>
			<g id="g9445">
				<path id="path9447" d="M51.08,72.995c-1.927-0.707-2.811-2.355-2.875-3.502c-0.118-2.076,1.664-4.74,3.822-5.051
					c2.348-0.336,4.744,1.631,4.715,3.968c-0.014,1.188-0.254,1.566-0.621,2.255c-0.76,1.438-1.629,1.944-1.986,2.146
					C53.376,73.235,52.316,73.45,51.08,72.995z M55.014,66.576C51.757,62.698,46.426,70.24,51.4,72
					C54.243,73.003,56.689,68.574,55.014,66.576z"/>
				<path id="path9449" d="M44.489,69.216c0.582-1.016,1.164-2.029,1.746-3.042c-1.039-0.791-2.5-1.465-3.704-2.209
					c-0.655,0.803-1.196,2.037-1.808,3.006c-0.301,0-0.705-0.359-1.049-0.52c1.416-2.471,2.834-4.94,4.252-7.413
					c0.338,0.193,0.676,0.388,1.014,0.581c-0.655,1.142-1.311,2.28-1.964,3.423c1.268,0.726,2.536,1.452,3.804,2.18
					c0.653-1.141,1.308-2.281,1.961-3.421c0.338,0.192,0.678,0.39,1.015,0.582c-1.38,2.407-2.762,4.815-4.144,7.224
					C45.368,69.959,44.858,69.327,44.489,69.216z"/>
			</g>
			<g id="g9451">
				<path id="path9453" fill="#FFFFFF" d="M68.279,100.046c0.035,2.027,0.068,4.06,0.104,6.087c0.275-0.005,0.556-0.009,0.832-0.015
					c-0.024-1.544-0.053-3.087-0.077-4.632c1.071,1.504,2.123,3.027,3.146,4.578c0.298-0.002,0.591-0.008,0.886-0.014
					c-0.033-2.029-0.066-4.059-0.102-6.087c-0.277,0.004-0.557,0.008-0.834,0.014c0.027,1.525,0.051,3.053,0.076,4.579
					c-1.07-1.484-2.093-3.023-3.146-4.529C68.869,100.035,68.574,100.041,68.279,100.046z"/>
				<path id="path9455" d="M74.725,100.032c0.012,0.815,0.026,1.631,0.041,2.446c0.938,0.104,2.102-0.02,3.123,0
					c0.106-0.731-0.013-1.685,0.01-2.5c0.27,0.021,0.645-0.067,0.834,0.037c0.031,1.995,0.063,3.99,0.1,5.984
					c-0.186,0.109-0.563,0.035-0.83,0.064c-0.018-0.953-0.033-1.907-0.051-2.861c-1.057,0.02-2.115,0.035-3.172,0.054
					c0.016,0.954,0.033,1.907,0.047,2.861c-0.27-0.021-0.645,0.067-0.832-0.036c-0.033-1.961-0.066-3.922-0.098-5.881
					C73.917,99.899,74.458,100.1,74.725,100.032z"/>
				<path id="path9457" d="M69.165,100.029c1.056,1.505,2.073,3.044,3.146,4.528c-0.024-1.524-0.049-3.053-0.076-4.578
					c0.279-0.006,0.557-0.01,0.834-0.014c0.035,2.028,0.068,4.059,0.104,6.087c-0.295,0.005-0.59,0.011-0.887,0.015
					c-1.023-1.551-2.074-3.075-3.146-4.578c0.027,1.544,0.055,3.087,0.078,4.631c-0.275,0.005-0.556,0.01-0.832,0.015
					c-0.033-2.028-0.066-4.06-0.103-6.087C68.574,100.041,68.869,100.035,69.165,100.029z"/>
				<path id="path9459" d="M80.251,107.75c0.556-0.01,1.106-0.02,1.662-0.027c0,0.146,0.002,0.291,0.006,0.437
					c-0.765,0.014-1.528,0.024-2.295,0.039c-0.015-0.979,1.274-1.442,1.666-2.167c0.504-0.932-1.072-1.428-1.192-0.256
					c-0.181,0.024-0.246-0.065-0.435-0.032c-0.041-1.453,2.45-1.399,2.18,0.159C81.687,106.777,80.643,107.012,80.251,107.75z"/>
			</g>
		</g>
	</g>
</g>
</svg>
